<svg version="1.1" viewBox="0.0 0.0 960.0 540.0" fill="none" stroke="none" stroke-linecap="square" stroke-miterlimit="10" xmlns:xlink="http://www.w3.org/1999/xlink" xmlns="http://www.w3.org/2000/svg"><clipPath id="g13f2f556acb_0_76.0"><path d="m0 0l960.0 0l0 540.0l-960.0 0l0 -540.0z" clip-rule="nonzero"/></clipPath><g clip-path="url(#g13f2f556acb_0_76.0)"><path fill="#ffffff" d="m0 0l960.0 0l0 540.0l-960.0 0z" fill-rule="evenodd"/><path fill="#fff2cc" d="m86.0 51.716534l788.0 0l0 435.2756l-788.0 0z" fill-rule="evenodd"/><path stroke="#595959" stroke-width="1.0" stroke-linejoin="round" stroke-linecap="butt" d="m86.0 51.716534l788.0 0l0 435.2756l-788.0 0z" fill-rule="evenodd"/><path fill="#000000" fill-opacity="0.0" d="m318.0 0l324.0 0l0 51.716534l-324.0 0z" fill-rule="evenodd"/><path fill="#000000" d="m405.30353 27.912498l2.53125 0.640625q-0.796875 3.109375 -2.859375 4.75q-2.0625 1.625 -5.046875 1.625q-3.09375 0 -5.03125 -1.25q-1.921875 -1.265625 -2.9375 -3.640625q-1.0 -2.390625 -1.0 -5.125q0 -2.984375 1.140625 -5.203125q1.140625 -2.21875 3.234375 -3.359375q2.109375 -1.15625 4.625 -1.15625q2.875 0 4.828125 1.46875q1.953125 1.453125 2.71875 4.09375l-2.484375 0.578125q-0.671875 -2.078125 -1.9375 -3.03125q-1.25 -0.953125 -3.171875 -0.953125q-2.203125 0 -3.6875 1.0625q-1.46875 1.046875 -2.0625 2.828125q-0.59375 1.78125 -0.59375 3.65625q0 2.4375 0.703125 4.265625q0.703125 1.8125 2.203125 2.71875q1.5 0.890625 3.25 0.890625q2.109375 0 3.578125 -1.21875q1.484375 -1.234375 2.0 -3.640625zm14.35968 4.984375q-1.3125 1.109375 -2.515625 1.5625q-1.203125 0.453125 -2.578125 0.453125q-2.28125 0 -3.5 -1.109375q-1.21875 -1.109375 -1.21875 -2.84375q0 -1.015625 0.453125 -1.859375q0.46875 -0.84375 1.21875 -1.34375q0.75 -0.515625 1.6875 -0.765625q0.6875 -0.1875 2.078125 -0.359375q2.828125 -0.328125 4.171875 -0.796875q0.015625 -0.484375 0.015625 -0.625q0 -1.421875 -0.65625 -2.015625q-0.90625 -0.796875 -2.671875 -0.796875q-1.65625 0 -2.453125 0.59375q-0.78125 0.578125 -1.15625 2.046875l-2.296875 -0.3125q0.3125 -1.46875 1.03125 -2.375q0.71875 -0.90625 2.0625 -1.390625q1.359375 -0.5 3.140625 -0.5q1.78125 0 2.875 0.421875q1.109375 0.421875 1.625 1.046875q0.53125 0.625 0.734375 1.59375q0.125 0.59375 0.125 2.15625l0 3.125q0 3.265625 0.140625 4.140625q0.15625 0.859375 0.59375 1.65625l-2.4375 0q-0.375 -0.734375 -0.46875 -1.703125zm-0.203125 -5.234375q-1.265625 0.515625 -3.828125 0.890625q-1.4375 0.203125 -2.046875 0.46875q-0.59375 0.25 -0.921875 0.75q-0.3125 0.5 -0.3125 1.125q0 0.9375 0.703125 1.5625q0.703125 0.625 2.078125 0.625q1.34375 0 2.390625 -0.59375q1.0625 -0.59375 1.5625 -1.625q0.375 -0.796875 0.375 -2.34375l0 -0.859375zm5.949951 6.9375l0 -19.078125l2.34375 0l0 19.078125l-2.34375 0zm15.000275 -5.0625l2.296875 0.296875q-0.375 2.390625 -1.9375 3.734375q-1.546875 1.34375 -3.8125 1.34375q-2.84375 0 -4.5625 -1.84375q-1.71875 -1.859375 -1.71875 -5.328125q0 -2.234375 0.734375 -3.90625q0.75 -1.6875 2.265625 -2.53125q1.515625 -0.84375 3.296875 -0.84375q2.25 0 3.671875 1.140625q1.4375 1.140625 1.84375 3.234375l-2.28125 0.359375q-0.328125 -1.390625 -1.15625 -2.09375q-0.8125 -0.703125 -1.984375 -0.703125q-1.78125 0 -2.890625 1.265625q-1.09375 1.265625 -1.09375 4.015625q0 2.78125 1.0625 4.046875q1.0625 1.265625 2.78125 1.265625q1.390625 0 2.3125 -0.84375q0.921875 -0.859375 1.171875 -2.609375zm13.359375 5.0625l0 -2.03125q-1.609375 2.34375 -4.375 2.34375q-1.234375 0 -2.296875 -0.46875q-1.0625 -0.46875 -1.578125 -1.171875q-0.5 -0.71875 -0.71875 -1.75q-0.140625 -0.6875 -0.140625 -2.1875l0 -8.5625l2.34375 0l0 7.671875q0 1.828125 0.140625 2.46875q0.21875 0.921875 0.9375 1.453125q0.71875 0.53125 1.765625 0.53125q1.0625 0 1.984375 -0.53125q0.921875 -0.546875 1.296875 -1.46875q0.390625 -0.9375 0.390625 -2.71875l0 -7.40625l2.34375 0l0 13.828125l-2.09375 0zm5.7155457 0l0 -19.078125l2.34375 0l0 19.078125l-2.34375 0zm17.21875 0l-5.25 -13.828125l2.46875 0l2.96875 8.28125q0.484375 1.34375 0.890625 2.78125q0.296875 -1.09375 0.859375 -2.625l3.078125 -8.4375l2.40625 0l-5.234375 13.828125l-2.1875 0zm18.953125 -4.453125l2.421875 0.296875q-0.578125 2.125 -2.125 3.296875q-1.546875 1.171875 -3.953125 1.171875q-3.03125 0 -4.8125 -1.859375q-1.78125 -1.875 -1.78125 -5.25q0 -3.484375 1.796875 -5.40625q1.796875 -1.9375 4.671875 -1.9375q2.765625 0 4.515625 1.890625q1.765625 1.890625 1.765625 5.3125q0 0.203125 -0.015625 0.625l-10.3125 0q0.140625 2.28125 1.296875 3.5q1.15625 1.203125 2.890625 1.203125q1.28125 0 2.1875 -0.671875q0.921875 -0.6875 1.453125 -2.171875zm-7.6875 -3.78125l7.71875 0q-0.15625 -1.75 -0.890625 -2.625q-1.125 -1.34375 -2.90625 -1.34375q-1.609375 0 -2.71875 1.078125q-1.09375 1.078125 -1.203125 2.890625zm22.074951 3.171875l2.296875 0.296875q-0.375 2.390625 -1.9375 3.734375q-1.546875 1.34375 -3.8125 1.34375q-2.84375 0 -4.5625 -1.84375q-1.71875 -1.859375 -1.71875 -5.328125q0 -2.234375 0.734375 -3.90625q0.75 -1.6875 2.265625 -2.53125q1.515625 -0.84375 3.296875 -0.84375q2.25 0 3.671875 1.140625q1.4375 1.140625 1.84375 3.234375l-2.28125 0.359375q-0.328125 -1.390625 -1.15625 -2.09375q-0.8125 -0.703125 -1.984375 -0.703125q-1.78125 0 -2.890625 1.265625q-1.09375 1.265625 -1.09375 4.015625q0 2.78125 1.0625 4.046875q1.0625 1.265625 2.78125 1.265625q1.390625 0 2.3125 -0.84375q0.921875 -0.859375 1.171875 -2.609375zm9.421875 2.96875l0.328125 2.0625q-0.984375 0.21875 -1.765625 0.21875q-1.265625 0 -1.96875 -0.40625q-0.703125 -0.40625 -1.0 -1.0625q-0.28125 -0.65625 -0.28125 -2.765625l0 -7.953125l-1.71875 0l0 -1.828125l1.71875 0l0 -3.421875l2.328125 -1.40625l0 4.828125l2.359375 0l0 1.828125l-2.359375 0l0 8.078125q0 1.0 0.125 1.296875q0.125 0.28125 0.40625 0.453125q0.28125 0.171875 0.796875 0.171875q0.390625 0 1.03125 -0.09375zm1.4215698 -4.8125q0 -3.84375 2.125 -5.6875q1.78125 -1.546875 4.34375 -1.546875q2.859375 0 4.65625 1.875q1.8125 1.859375 1.8125 5.15625q0 2.671875 -0.796875 4.203125q-0.796875 1.53125 -2.328125 2.375q-1.53125 0.84375 -3.34375 0.84375q-2.890625 0 -4.6875 -1.859375q-1.78125 -1.859375 -1.78125 -5.359375zm2.40625 0q0 2.65625 1.15625 3.984375q1.15625 1.3125 2.90625 1.3125q1.75 0 2.90625 -1.328125q1.15625 -1.328125 1.15625 -4.046875q0 -2.5625 -1.171875 -3.890625q-1.15625 -1.328125 -2.890625 -1.328125q-1.75 0 -2.90625 1.328125q-1.15625 1.3125 -1.15625 3.96875zm13.262451 6.90625l0 -13.828125l2.109375 0l0 2.09375q0.796875 -1.46875 1.484375 -1.9375q0.6875 -0.46875 1.5 -0.46875q1.1875 0 2.40625 0.765625l-0.796875 2.171875q-0.859375 -0.515625 -1.71875 -0.515625q-0.765625 0 -1.390625 0.46875q-0.609375 0.453125 -0.859375 1.28125q-0.390625 1.25 -0.390625 2.734375l0 7.234375l-2.34375 0zm8.90802 -16.390625l0 -2.6875l2.34375 0l0 2.6875l-2.34375 0zm0 16.390625l0 -13.828125l2.34375 0l0 13.828125l-2.34375 0zm15.375244 -4.453125l2.421875 0.296875q-0.578125 2.125 -2.125 3.296875q-1.546875 1.171875 -3.953125 1.171875q-3.03125 0 -4.8125 -1.859375q-1.78125 -1.875 -1.78125 -5.25q0 -3.484375 1.796875 -5.40625q1.796875 -1.9375 4.671875 -1.9375q2.765625 0 4.515625 1.890625q1.765625 1.890625 1.765625 5.3125q0 0.203125 -0.015625 0.625l-10.3125 0q0.140625 2.28125 1.296875 3.5q1.15625 1.203125 2.890625 1.203125q1.28125 0 2.1875 -0.671875q0.921875 -0.6875 1.453125 -2.171875zm-7.6875 -3.78125l7.71875 0q-0.15625 -1.75 -0.890625 -2.625q-1.125 -1.34375 -2.90625 -1.34375q-1.609375 0 -2.71875 1.078125q-1.09375 1.078125 -1.203125 2.890625zm12.996826 8.234375l0 -19.078125l2.34375 0l0 19.078125l-2.34375 0z" fill-rule="nonzero"/><path fill="#000000" fill-opacity="0.0" d="m86.0 51.716534l117.32283 0l0 42.01575l-117.32283 0z" fill-rule="evenodd"/><path fill="#000000" d="m96.4375 78.636536l0 -13.359375l5.046875 0q1.328125 0 2.03125 0.125q0.96875 0.171875 1.640625 0.640625q0.671875 0.453125 1.078125 1.28125q0.40625 0.828125 0.40625 1.828125q0 1.703125 -1.09375 2.890625q-1.078125 1.171875 -3.921875 1.171875l-3.421875 0l0 5.421875l-1.765625 0zm1.765625 -7.0l3.453125 0q1.71875 0 2.4375 -0.640625q0.71875 -0.640625 0.71875 -1.796875q0 -0.84375 -0.421875 -1.4375q-0.421875 -0.59375 -1.125 -0.78125q-0.4375 -0.125 -1.640625 -0.125l-3.421875 0l0 4.78125zm10.459198 7.0l0 -9.671875l1.46875 0l0 1.46875q0.5625 -1.03125 1.03125 -1.359375q0.484375 -0.328125 1.0625 -0.328125q0.828125 0 1.6875 0.53125l-0.5625 1.515625q-0.609375 -0.359375 -1.203125 -0.359375q-0.546875 0 -0.96875 0.328125q-0.421875 0.328125 -0.609375 0.890625q-0.28125 0.875 -0.28125 1.921875l0 5.0625l-1.625 0zm5.618927 -4.84375q0 -2.6875 1.484375 -3.96875q1.25 -1.078125 3.046875 -1.078125q2.0 0 3.265625 1.3125q1.265625 1.296875 1.265625 3.609375q0 1.859375 -0.5625 2.9375q-0.5625 1.0625 -1.640625 1.65625q-1.0625 0.59375 -2.328125 0.59375q-2.03125 0 -3.28125 -1.296875q-1.25 -1.3125 -1.25 -3.765625zm1.6875 0q0 1.859375 0.796875 2.796875q0.8125 0.921875 2.046875 0.921875q1.21875 0 2.03125 -0.921875q0.8125 -0.9375 0.8125 -2.84375q0 -1.796875 -0.8125 -2.71875q-0.8125 -0.921875 -2.03125 -0.921875q-1.234375 0 -2.046875 0.921875q-0.796875 0.90625 -0.796875 2.765625zm15.610092 1.296875l1.609375 0.21875q-0.265625 1.65625 -1.359375 2.609375q-1.078125 0.9375 -2.671875 0.9375q-1.984375 0 -3.1875 -1.296875q-1.203125 -1.296875 -1.203125 -3.71875q0 -1.578125 0.515625 -2.75q0.515625 -1.171875 1.578125 -1.75q1.0625 -0.59375 2.3125 -0.59375q1.578125 0 2.578125 0.796875q1.0 0.796875 1.28125 2.265625l-1.59375 0.234375q-0.234375 -0.96875 -0.8125 -1.453125q-0.578125 -0.5 -1.390625 -0.5q-1.234375 0 -2.015625 0.890625q-0.78125 0.890625 -0.78125 2.8125q0 1.953125 0.75 2.84375q0.75 0.875 1.953125 0.875q0.96875 0 1.609375 -0.59375q0.65625 -0.59375 0.828125 -1.828125zm9.640625 0.4375l1.6875 0.203125q-0.40625 1.484375 -1.484375 2.3125q-1.078125 0.8125 -2.765625 0.8125q-2.125 0 -3.375 -1.296875q-1.234375 -1.3125 -1.234375 -3.671875q0 -2.453125 1.25 -3.796875q1.265625 -1.34375 3.265625 -1.34375q1.9375 0 3.15625 1.328125q1.234375 1.3125 1.234375 3.703125q0 0.15625 0 0.4375l-7.21875 0q0.09375 1.59375 0.90625 2.453125q0.8125 0.84375 2.015625 0.84375q0.90625 0 1.546875 -0.46875q0.640625 -0.484375 1.015625 -1.515625zm-5.390625 -2.65625l5.40625 0q-0.109375 -1.21875 -0.625 -1.828125q-0.78125 -0.953125 -2.03125 -0.953125q-1.125 0 -1.90625 0.765625q-0.765625 0.75 -0.84375 2.015625zm8.485092 2.875l1.625 -0.25q0.125 0.96875 0.75 1.5q0.625 0.515625 1.75 0.515625q1.125 0 1.671875 -0.453125q0.546875 -0.46875 0.546875 -1.09375q0 -0.546875 -0.484375 -0.875q-0.328125 -0.21875 -1.671875 -0.546875q-1.8125 -0.46875 -2.515625 -0.796875q-0.6875 -0.328125 -1.046875 -0.90625q-0.359375 -0.59375 -0.359375 -1.3125q0 -0.640625 0.296875 -1.1875q0.296875 -0.5625 0.8125 -0.921875q0.375 -0.28125 1.03125 -0.46875q0.671875 -0.203125 1.421875 -0.203125q1.140625 0 2.0 0.328125q0.859375 0.328125 1.265625 0.890625q0.421875 0.5625 0.578125 1.5l-1.609375 0.21875q-0.109375 -0.75 -0.640625 -1.171875q-0.515625 -0.421875 -1.46875 -0.421875q-1.140625 0 -1.625 0.375q-0.46875 0.375 -0.46875 0.875q0 0.3125 0.1875 0.578125q0.203125 0.265625 0.640625 0.4375q0.234375 0.09375 1.4375 0.421875q1.75 0.453125 2.4375 0.75q0.6875 0.296875 1.078125 0.859375q0.390625 0.5625 0.390625 1.40625q0 0.828125 -0.484375 1.546875q-0.46875 0.71875 -1.375 1.125q-0.90625 0.390625 -2.046875 0.390625q-1.875 0 -2.875 -0.78125q-0.984375 -0.78125 -1.25 -2.328125zm9.328125 0l1.625 -0.25q0.125 0.96875 0.75 1.5q0.625 0.515625 1.75 0.515625q1.125 0 1.671875 -0.453125q0.546875 -0.46875 0.546875 -1.09375q0 -0.546875 -0.484375 -0.875q-0.328125 -0.21875 -1.671875 -0.546875q-1.8125 -0.46875 -2.515625 -0.796875q-0.6875 -0.328125 -1.046875 -0.90625q-0.359375 -0.59375 -0.359375 -1.3125q0 -0.640625 0.296875 -1.1875q0.296875 -0.5625 0.8125 -0.921875q0.375 -0.28125 1.03125 -0.46875q0.671875 -0.203125 1.421875 -0.203125q1.140625 0 2.0 0.328125q0.859375 0.328125 1.265625 0.890625q0.421875 0.5625 0.578125 1.5l-1.609375 0.21875q-0.109375 -0.75 -0.640625 -1.171875q-0.515625 -0.421875 -1.46875 -0.421875q-1.140625 0 -1.625 0.375q-0.46875 0.375 -0.46875 0.875q0 0.3125 0.1875 0.578125q0.203125 0.265625 0.640625 0.4375q0.234375 0.09375 1.4375 0.421875q1.75 0.453125 2.4375 0.75q0.6875 0.296875 1.078125 0.859375q0.390625 0.5625 0.390625 1.40625q0 0.828125 -0.484375 1.546875q-0.46875 0.71875 -1.375 1.125q-0.90625 0.390625 -2.046875 0.390625q-1.875 0 -2.875 -0.78125q-0.984375 -0.78125 -1.25 -2.328125zm16.3125 2.890625l0 -1.421875q-1.125 1.640625 -3.0625 1.640625q-0.859375 0 -1.609375 -0.328125q-0.734375 -0.328125 -1.09375 -0.828125q-0.359375 -0.5 -0.5 -1.21875q-0.109375 -0.46875 -0.109375 -1.53125l0 -5.984375l1.640625 0l0 5.359375q0 1.28125 0.109375 1.734375q0.15625 0.640625 0.65625 1.015625q0.5 0.375 1.234375 0.375q0.734375 0 1.375 -0.375q0.65625 -0.390625 0.921875 -1.03125q0.265625 -0.65625 0.265625 -1.890625l0 -5.1875l1.640625 0l0 9.671875l-1.46875 0zm3.3913422 -2.890625l1.625 -0.25q0.125 0.96875 0.75 1.5q0.625 0.515625 1.75 0.515625q1.125 0 1.671875 -0.453125q0.546875 -0.46875 0.546875 -1.09375q0 -0.546875 -0.484375 -0.875q-0.328125 -0.21875 -1.671875 -0.546875q-1.8125 -0.46875 -2.515625 -0.796875q-0.6875 -0.328125 -1.046875 -0.90625q-0.359375 -0.59375 -0.359375 -1.3125q0 -0.640625 0.296875 -1.1875q0.296875 -0.5625 0.8125 -0.921875q0.375 -0.28125 1.03125 -0.46875q0.671875 -0.203125 1.421875 -0.203125q1.140625 0 2.0 0.328125q0.859375 0.328125 1.265625 0.890625q0.421875 0.5625 0.578125 1.5l-1.609375 0.21875q-0.109375 -0.75 -0.640625 -1.171875q-0.515625 -0.421875 -1.46875 -0.421875q-1.140625 0 -1.625 0.375q-0.46875 0.375 -0.46875 0.875q0 0.3125 0.1875 0.578125q0.203125 0.265625 0.640625 0.4375q0.234375 0.09375 1.4375 0.421875q1.75 0.453125 2.4375 0.75q0.6875 0.296875 1.078125 0.859375q0.390625 0.5625 0.390625 1.40625q0 0.828125 -0.484375 1.546875q-0.46875 0.71875 -1.375 1.125q-0.90625 0.390625 -2.046875 0.390625q-1.875 0 -2.875 -0.78125q-0.984375 -0.78125 -1.25 -2.328125z" fill-rule="nonzero"/><path fill="#6fa8dc" d="m157.48032 119.0l40.314957 0l0 40.314957l-40.314957 0z" fill-rule="evenodd"/><path stroke="#000000" stroke-width="1.0" stroke-linejoin="round" stroke-linecap="butt" d="m157.48032 119.0l40.314957 0l0 40.314957l-40.314957 0z" fill-rule="evenodd"/><path fill="#6fa8dc" d="m197.79527 119.0l40.314957 0l0 40.314957l-40.314957 0z" fill-rule="evenodd"/><path stroke="#000000" stroke-width="1.0" stroke-linejoin="round" stroke-linecap="butt" d="m197.79527 119.0l40.314957 0l0 40.314957l-40.314957 0z" fill-rule="evenodd"/><path fill="#6fa8dc" d="m238.11023 119.0l40.314972 0l0 40.314957l-40.314972 0z" fill-rule="evenodd"/><path stroke="#000000" stroke-width="1.0" stroke-linejoin="round" stroke-linecap="butt" d="m238.11023 119.0l40.314972 0l0 40.314957l-40.314972 0z" fill-rule="evenodd"/><path fill="#6fa8dc" d="m278.4252 119.0l40.31494 0l0 40.314957l-40.31494 0z" fill-rule="evenodd"/><path stroke="#000000" stroke-width="1.0" stroke-linejoin="round" stroke-linecap="butt" d="m278.4252 119.0l40.31494 0l0 40.314957l-40.31494 0z" fill-rule="evenodd"/><path fill="#6fa8dc" d="m318.74014 119.0l40.314972 0l0 40.314957l-40.314972 0z" fill-rule="evenodd"/><path stroke="#000000" stroke-width="1.0" stroke-linejoin="round" stroke-linecap="butt" d="m318.74014 119.0l40.314972 0l0 40.314957l-40.314972 0z" fill-rule="evenodd"/><path fill="#6fa8dc" d="m359.0551 119.0l40.314972 0l0 40.314957l-40.314972 0z" fill-rule="evenodd"/><path stroke="#000000" stroke-width="1.0" stroke-linejoin="round" stroke-linecap="butt" d="m359.0551 119.0l40.314972 0l0 40.314957l-40.314972 0z" fill-rule="evenodd"/><path fill="#6fa8dc" d="m399.3701 119.0l40.31494 0l0 40.314957l-40.31494 0z" fill-rule="evenodd"/><path stroke="#000000" stroke-width="1.0" stroke-linejoin="round" stroke-linecap="butt" d="m399.3701 119.0l40.31494 0l0 40.314957l-40.31494 0z" fill-rule="evenodd"/><path fill="#6fa8dc" d="m439.68503 119.0l40.314972 0l0 40.314957l-40.314972 0z" fill-rule="evenodd"/><path stroke="#000000" stroke-width="1.0" stroke-linejoin="round" stroke-linecap="butt" d="m439.68503 119.0l40.314972 0l0 40.314957l-40.314972 0z" fill-rule="evenodd"/><path fill="#ea9999" d="m480.0 119.0l40.31494 0l0 40.314957l-40.31494 0z" fill-rule="evenodd"/><path stroke="#000000" stroke-width="1.0" stroke-linejoin="round" stroke-linecap="butt" d="m480.0 119.0l40.31494 0l0 40.314957l-40.31494 0z" fill-rule="evenodd"/><path fill="#ea9999" d="m520.31494 119.0l40.315002 0l0 40.314957l-40.315002 0z" fill-rule="evenodd"/><path stroke="#000000" stroke-width="1.0" stroke-linejoin="round" stroke-linecap="butt" d="m520.31494 119.0l40.315002 0l0 40.314957l-40.315002 0z" fill-rule="evenodd"/><path fill="#ea9999" d="m560.62994 119.0l40.31494 0l0 40.314957l-40.31494 0z" fill-rule="evenodd"/><path stroke="#000000" stroke-width="1.0" stroke-linejoin="round" stroke-linecap="butt" d="m560.62994 119.0l40.31494 0l0 40.314957l-40.31494 0z" fill-rule="evenodd"/><path fill="#ea9999" d="m600.9449 119.0l40.31494 0l0 40.314957l-40.31494 0z" fill-rule="evenodd"/><path stroke="#000000" stroke-width="1.0" stroke-linejoin="round" stroke-linecap="butt" d="m600.9449 119.0l40.31494 0l0 40.314957l-40.31494 0z" fill-rule="evenodd"/><path fill="#ea9999" d="m641.2598 119.0l40.315002 0l0 40.314957l-40.315002 0z" fill-rule="evenodd"/><path stroke="#000000" stroke-width="1.0" stroke-linejoin="round" stroke-linecap="butt" d="m641.2598 119.0l40.315002 0l0 40.314957l-40.315002 0z" fill-rule="evenodd"/><path fill="#ea9999" d="m681.5748 119.0l40.31494 0l0 40.314957l-40.31494 0z" fill-rule="evenodd"/><path stroke="#000000" stroke-width="1.0" stroke-linejoin="round" stroke-linecap="butt" d="m681.5748 119.0l40.31494 0l0 40.314957l-40.31494 0z" fill-rule="evenodd"/><path fill="#ea9999" d="m721.8898 119.0l40.31494 0l0 40.314957l-40.31494 0z" fill-rule="evenodd"/><path stroke="#000000" stroke-width="1.0" stroke-linejoin="round" stroke-linecap="butt" d="m721.8898 119.0l40.31494 0l0 40.314957l-40.31494 0z" fill-rule="evenodd"/><path fill="#ea9999" d="m762.2047 119.0l40.315002 0l0 40.314957l-40.315002 0z" fill-rule="evenodd"/><path stroke="#000000" stroke-width="1.0" stroke-linejoin="round" stroke-linecap="butt" d="m762.2047 119.0l40.315002 0l0 40.314957l-40.315002 0z" fill-rule="evenodd"/><path fill="#6aa84f" d="m157.48032 200.0l40.314957 0l0 40.314957l-40.314957 0z" fill-rule="evenodd"/><path stroke="#000000" stroke-width="1.0" stroke-linejoin="round" stroke-linecap="butt" d="m157.48032 200.0l40.314957 0l0 40.314957l-40.314957 0z" fill-rule="evenodd"/><path fill="#6aa84f" d="m197.79527 200.0l40.314957 0l0 40.314957l-40.314957 0z" fill-rule="evenodd"/><path stroke="#000000" stroke-width="1.0" stroke-linejoin="round" stroke-linecap="butt" d="m197.79527 200.0l40.314957 0l0 40.314957l-40.314957 0z" fill-rule="evenodd"/><path fill="#6aa84f" d="m238.11023 200.0l40.314972 0l0 40.314957l-40.314972 0z" fill-rule="evenodd"/><path stroke="#000000" stroke-width="1.0" stroke-linejoin="round" stroke-linecap="butt" d="m238.11023 200.0l40.314972 0l0 40.314957l-40.314972 0z" fill-rule="evenodd"/><path fill="#6aa84f" d="m278.4252 200.0l40.31494 0l0 40.314957l-40.31494 0z" fill-rule="evenodd"/><path stroke="#000000" stroke-width="1.0" stroke-linejoin="round" stroke-linecap="butt" d="m278.4252 200.0l40.31494 0l0 40.314957l-40.31494 0z" fill-rule="evenodd"/><path fill="#6aa84f" d="m318.74014 200.0l40.314972 0l0 40.314957l-40.314972 0z" fill-rule="evenodd"/><path stroke="#000000" stroke-width="1.0" stroke-linejoin="round" stroke-linecap="butt" d="m318.74014 200.0l40.314972 0l0 40.314957l-40.314972 0z" fill-rule="evenodd"/><path fill="#6aa84f" d="m359.0551 200.0l40.314972 0l0 40.314957l-40.314972 0z" fill-rule="evenodd"/><path stroke="#000000" stroke-width="1.0" stroke-linejoin="round" stroke-linecap="butt" d="m359.0551 200.0l40.314972 0l0 40.314957l-40.314972 0z" fill-rule="evenodd"/><path fill="#6aa84f" d="m399.3701 200.0l40.31494 0l0 40.314957l-40.31494 0z" fill-rule="evenodd"/><path stroke="#000000" stroke-width="1.0" stroke-linejoin="round" stroke-linecap="butt" d="m399.3701 200.0l40.31494 0l0 40.314957l-40.31494 0z" fill-rule="evenodd"/><path fill="#6aa84f" d="m439.68503 200.0l40.314972 0l0 40.314957l-40.314972 0z" fill-rule="evenodd"/><path stroke="#000000" stroke-width="1.0" stroke-linejoin="round" stroke-linecap="butt" d="m439.68503 200.0l40.314972 0l0 40.314957l-40.314972 0z" fill-rule="evenodd"/><path fill="#f1c232" d="m480.0 200.0l40.31494 0l0 40.314957l-40.31494 0z" fill-rule="evenodd"/><path stroke="#000000" stroke-width="1.0" stroke-linejoin="round" stroke-linecap="butt" d="m480.0 200.0l40.31494 0l0 40.314957l-40.31494 0z" fill-rule="evenodd"/><path fill="#f1c232" d="m520.31494 200.0l40.315002 0l0 40.314957l-40.315002 0z" fill-rule="evenodd"/><path stroke="#000000" stroke-width="1.0" stroke-linejoin="round" stroke-linecap="butt" d="m520.31494 200.0l40.315002 0l0 40.314957l-40.315002 0z" fill-rule="evenodd"/><path fill="#f1c232" d="m560.62994 200.0l40.31494 0l0 40.314957l-40.31494 0z" fill-rule="evenodd"/><path stroke="#000000" stroke-width="1.0" stroke-linejoin="round" stroke-linecap="butt" d="m560.62994 200.0l40.31494 0l0 40.314957l-40.31494 0z" fill-rule="evenodd"/><path fill="#f1c232" d="m600.9449 200.0l40.31494 0l0 40.314957l-40.31494 0z" fill-rule="evenodd"/><path stroke="#000000" stroke-width="1.0" stroke-linejoin="round" stroke-linecap="butt" d="m600.9449 200.0l40.31494 0l0 40.314957l-40.31494 0z" fill-rule="evenodd"/><path fill="#f1c232" d="m641.2598 200.0l40.315002 0l0 40.314957l-40.315002 0z" fill-rule="evenodd"/><path stroke="#000000" stroke-width="1.0" stroke-linejoin="round" stroke-linecap="butt" d="m641.2598 200.0l40.315002 0l0 40.314957l-40.315002 0z" fill-rule="evenodd"/><path fill="#f1c232" d="m681.5748 200.0l40.31494 0l0 40.314957l-40.31494 0z" fill-rule="evenodd"/><path stroke="#000000" stroke-width="1.0" stroke-linejoin="round" stroke-linecap="butt" d="m681.5748 200.0l40.31494 0l0 40.314957l-40.31494 0z" fill-rule="evenodd"/><path fill="#f1c232" d="m721.8898 200.0l40.31494 0l0 40.314957l-40.31494 0z" fill-rule="evenodd"/><path stroke="#000000" stroke-width="1.0" stroke-linejoin="round" stroke-linecap="butt" d="m721.8898 200.0l40.31494 0l0 40.314957l-40.31494 0z" fill-rule="evenodd"/><path fill="#f1c232" d="m762.2047 200.0l40.315002 0l0 40.314957l-40.315002 0z" fill-rule="evenodd"/><path stroke="#000000" stroke-width="1.0" stroke-linejoin="round" stroke-linecap="butt" d="m762.2047 200.0l40.315002 0l0 40.314957l-40.315002 0z" fill-rule="evenodd"/><path fill="#674ea7" d="m157.48032 281.0l40.314957 0l0 40.314972l-40.314957 0z" fill-rule="evenodd"/><path stroke="#000000" stroke-width="1.0" stroke-linejoin="round" stroke-linecap="butt" d="m157.48032 281.0l40.314957 0l0 40.314972l-40.314957 0z" fill-rule="evenodd"/><path fill="#674ea7" d="m197.79527 281.0l40.314957 0l0 40.314972l-40.314957 0z" fill-rule="evenodd"/><path stroke="#000000" stroke-width="1.0" stroke-linejoin="round" stroke-linecap="butt" d="m197.79527 281.0l40.314957 0l0 40.314972l-40.314957 0z" fill-rule="evenodd"/><path fill="#674ea7" d="m238.11023 281.0l40.314972 0l0 40.314972l-40.314972 0z" fill-rule="evenodd"/><path stroke="#000000" stroke-width="1.0" stroke-linejoin="round" stroke-linecap="butt" d="m238.11023 281.0l40.314972 0l0 40.314972l-40.314972 0z" fill-rule="evenodd"/><path fill="#674ea7" d="m278.4252 281.0l40.31494 0l0 40.314972l-40.31494 0z" fill-rule="evenodd"/><path stroke="#000000" stroke-width="1.0" stroke-linejoin="round" stroke-linecap="butt" d="m278.4252 281.0l40.31494 0l0 40.314972l-40.31494 0z" fill-rule="evenodd"/><path fill="#674ea7" d="m318.74014 281.0l40.314972 0l0 40.314972l-40.314972 0z" fill-rule="evenodd"/><path stroke="#000000" stroke-width="1.0" stroke-linejoin="round" stroke-linecap="butt" d="m318.74014 281.0l40.314972 0l0 40.314972l-40.314972 0z" fill-rule="evenodd"/><path fill="#674ea7" d="m359.0551 281.0l40.314972 0l0 40.314972l-40.314972 0z" fill-rule="evenodd"/><path stroke="#000000" stroke-width="1.0" stroke-linejoin="round" stroke-linecap="butt" d="m359.0551 281.0l40.314972 0l0 40.314972l-40.314972 0z" fill-rule="evenodd"/><path fill="#674ea7" d="m399.3701 281.0l40.31494 0l0 40.314972l-40.31494 0z" fill-rule="evenodd"/><path stroke="#000000" stroke-width="1.0" stroke-linejoin="round" stroke-linecap="butt" d="m399.3701 281.0l40.31494 0l0 40.314972l-40.31494 0z" fill-rule="evenodd"/><path fill="#674ea7" d="m439.68503 281.0l40.314972 0l0 40.314972l-40.314972 0z" fill-rule="evenodd"/><path stroke="#000000" stroke-width="1.0" stroke-linejoin="round" stroke-linecap="butt" d="m439.68503 281.0l40.314972 0l0 40.314972l-40.314972 0z" fill-rule="evenodd"/><path fill="#3c78d8" d="m480.0 281.0l40.31494 0l0 40.314972l-40.31494 0z" fill-rule="evenodd"/><path stroke="#000000" stroke-width="1.0" stroke-linejoin="round" stroke-linecap="butt" d="m480.0 281.0l40.31494 0l0 40.314972l-40.31494 0z" fill-rule="evenodd"/><path fill="#3c78d8" d="m520.31494 281.0l40.315002 0l0 40.314972l-40.315002 0z" fill-rule="evenodd"/><path stroke="#000000" stroke-width="1.0" stroke-linejoin="round" stroke-linecap="butt" d="m520.31494 281.0l40.315002 0l0 40.314972l-40.315002 0z" fill-rule="evenodd"/><path fill="#3c78d8" d="m560.62994 281.0l40.31494 0l0 40.314972l-40.31494 0z" fill-rule="evenodd"/><path stroke="#000000" stroke-width="1.0" stroke-linejoin="round" stroke-linecap="butt" d="m560.62994 281.0l40.31494 0l0 40.314972l-40.31494 0z" fill-rule="evenodd"/><path fill="#3c78d8" d="m600.9449 281.0l40.31494 0l0 40.314972l-40.31494 0z" fill-rule="evenodd"/><path stroke="#000000" stroke-width="1.0" stroke-linejoin="round" stroke-linecap="butt" d="m600.9449 281.0l40.31494 0l0 40.314972l-40.31494 0z" fill-rule="evenodd"/><path fill="#3c78d8" d="m641.2598 281.0l40.315002 0l0 40.314972l-40.315002 0z" fill-rule="evenodd"/><path stroke="#000000" stroke-width="1.0" stroke-linejoin="round" stroke-linecap="butt" d="m641.2598 281.0l40.315002 0l0 40.314972l-40.315002 0z" fill-rule="evenodd"/><path fill="#3c78d8" d="m681.5748 281.0l40.31494 0l0 40.314972l-40.31494 0z" fill-rule="evenodd"/><path stroke="#000000" stroke-width="1.0" stroke-linejoin="round" stroke-linecap="butt" d="m681.5748 281.0l40.31494 0l0 40.314972l-40.31494 0z" fill-rule="evenodd"/><path fill="#3c78d8" d="m721.8898 281.0l40.31494 0l0 40.314972l-40.31494 0z" fill-rule="evenodd"/><path stroke="#000000" stroke-width="1.0" stroke-linejoin="round" stroke-linecap="butt" d="m721.8898 281.0l40.31494 0l0 40.314972l-40.31494 0z" fill-rule="evenodd"/><path fill="#3c78d8" d="m762.2047 281.0l40.315002 0l0 40.314972l-40.315002 0z" fill-rule="evenodd"/><path stroke="#000000" stroke-width="1.0" stroke-linejoin="round" stroke-linecap="butt" d="m762.2047 281.0l40.315002 0l0 40.314972l-40.315002 0z" fill-rule="evenodd"/><path fill="#ffff00" d="m157.48032 362.0l40.314957 0l0 40.314972l-40.314957 0z" fill-rule="evenodd"/><path stroke="#000000" stroke-width="1.0" stroke-linejoin="round" stroke-linecap="butt" d="m157.48032 362.0l40.314957 0l0 40.314972l-40.314957 0z" fill-rule="evenodd"/><path fill="#ffff00" d="m197.79527 362.0l40.314957 0l0 40.314972l-40.314957 0z" fill-rule="evenodd"/><path stroke="#000000" stroke-width="1.0" stroke-linejoin="round" stroke-linecap="butt" d="m197.79527 362.0l40.314957 0l0 40.314972l-40.314957 0z" fill-rule="evenodd"/><path fill="#ffff00" d="m238.11023 362.0l40.314972 0l0 40.314972l-40.314972 0z" fill-rule="evenodd"/><path stroke="#000000" stroke-width="1.0" stroke-linejoin="round" stroke-linecap="butt" d="m238.11023 362.0l40.314972 0l0 40.314972l-40.314972 0z" fill-rule="evenodd"/><path fill="#ffff00" d="m278.4252 362.0l40.31494 0l0 40.314972l-40.31494 0z" fill-rule="evenodd"/><path stroke="#000000" stroke-width="1.0" stroke-linejoin="round" stroke-linecap="butt" d="m278.4252 362.0l40.31494 0l0 40.314972l-40.31494 0z" fill-rule="evenodd"/><path fill="#ffff00" d="m318.74014 362.0l40.314972 0l0 40.314972l-40.314972 0z" fill-rule="evenodd"/><path stroke="#000000" stroke-width="1.0" stroke-linejoin="round" stroke-linecap="butt" d="m318.74014 362.0l40.314972 0l0 40.314972l-40.314972 0z" fill-rule="evenodd"/><path fill="#ffff00" d="m359.0551 362.0l40.314972 0l0 40.314972l-40.314972 0z" fill-rule="evenodd"/><path stroke="#000000" stroke-width="1.0" stroke-linejoin="round" stroke-linecap="butt" d="m359.0551 362.0l40.314972 0l0 40.314972l-40.314972 0z" fill-rule="evenodd"/><path fill="#ffff00" d="m399.3701 362.0l40.31494 0l0 40.314972l-40.31494 0z" fill-rule="evenodd"/><path stroke="#000000" stroke-width="1.0" stroke-linejoin="round" stroke-linecap="butt" d="m399.3701 362.0l40.31494 0l0 40.314972l-40.31494 0z" fill-rule="evenodd"/><path fill="#ffff00" d="m439.68503 362.0l40.314972 0l0 40.314972l-40.314972 0z" fill-rule="evenodd"/><path stroke="#000000" stroke-width="1.0" stroke-linejoin="round" stroke-linecap="butt" d="m439.68503 362.0l40.314972 0l0 40.314972l-40.314972 0z" fill-rule="evenodd"/><path fill="#00ff00" d="m480.0 362.0l40.31494 0l0 40.314972l-40.31494 0z" fill-rule="evenodd"/><path stroke="#000000" stroke-width="1.0" stroke-linejoin="round" stroke-linecap="butt" d="m480.0 362.0l40.31494 0l0 40.314972l-40.31494 0z" fill-rule="evenodd"/><path fill="#00ff00" d="m520.31494 362.0l40.315002 0l0 40.314972l-40.315002 0z" fill-rule="evenodd"/><path stroke="#000000" stroke-width="1.0" stroke-linejoin="round" stroke-linecap="butt" d="m520.31494 362.0l40.315002 0l0 40.314972l-40.315002 0z" fill-rule="evenodd"/><path fill="#00ff00" d="m560.62994 362.0l40.31494 0l0 40.314972l-40.31494 0z" fill-rule="evenodd"/><path stroke="#000000" stroke-width="1.0" stroke-linejoin="round" stroke-linecap="butt" d="m560.62994 362.0l40.31494 0l0 40.314972l-40.31494 0z" fill-rule="evenodd"/><path fill="#00ff00" d="m600.9449 362.0l40.31494 0l0 40.314972l-40.31494 0z" fill-rule="evenodd"/><path stroke="#000000" stroke-width="1.0" stroke-linejoin="round" stroke-linecap="butt" d="m600.9449 362.0l40.31494 0l0 40.314972l-40.31494 0z" fill-rule="evenodd"/><path fill="#00ff00" d="m641.2598 362.0l40.315002 0l0 40.314972l-40.315002 0z" fill-rule="evenodd"/><path stroke="#000000" stroke-width="1.0" stroke-linejoin="round" stroke-linecap="butt" d="m641.2598 362.0l40.315002 0l0 40.314972l-40.315002 0z" fill-rule="evenodd"/><path fill="#00ff00" d="m681.5748 362.0l40.31494 0l0 40.314972l-40.31494 0z" fill-rule="evenodd"/><path stroke="#000000" stroke-width="1.0" stroke-linejoin="round" stroke-linecap="butt" d="m681.5748 362.0l40.31494 0l0 40.314972l-40.31494 0z" fill-rule="evenodd"/><path fill="#00ff00" d="m721.8898 362.0l40.31494 0l0 40.314972l-40.31494 0z" fill-rule="evenodd"/><path stroke="#000000" stroke-width="1.0" stroke-linejoin="round" stroke-linecap="butt" d="m721.8898 362.0l40.31494 0l0 40.314972l-40.31494 0z" fill-rule="evenodd"/><path fill="#00ff00" d="m762.2047 362.0l40.315002 0l0 40.314972l-40.315002 0z" fill-rule="evenodd"/><path stroke="#000000" stroke-width="1.0" stroke-linejoin="round" stroke-linecap="butt" d="m762.2047 362.0l40.315002 0l0 40.314972l-40.315002 0z" fill-rule="evenodd"/><path fill="#000000" d="m304.9129 172.35002l6.704834 -6.704834l7.122406 7.122406l7.1224365 -7.122406l6.704834 6.704834l-7.122406 7.1224213l7.122406 7.122406l-6.704834 6.7048492l-7.1224365 -7.1224213l-7.122406 7.1224213l-6.704834 -6.7048492l7.122406 -7.122406z" fill-rule="evenodd"/><path fill="#000000" d="m627.4326 172.35002l6.704834 -6.704834l7.1223755 7.122406l7.1224365 -7.122406l6.704834 6.704834l-7.1224365 7.1224213l7.1224365 7.122406l-6.704834 6.7048492l-7.1224365 -7.1224213l-7.1223755 7.1224213l-6.704834 -6.7048492l7.1223755 -7.122406z" fill-rule="evenodd"/><path fill="#000000" d="m303.92642 255.91644l10.072693 0l0 -10.072693l9.482086 0l0 10.072693l10.072693 0l0 9.482086l-10.072693 0l0 10.072693l-9.482086 0l0 -10.072693l-10.072693 0z" fill-rule="evenodd"/><path fill="#000000" d="m626.4461 255.91513l10.072693 0l0 -10.072693l9.482056 0l0 10.072693l10.072693 0l0 9.482086l-10.072693 0l0 10.072693l-9.482056 0l0 -10.072693l-10.072693 0z" fill-rule="evenodd"/><path fill="#000000" d="m303.29135 341.65747l7.7243958 0l0 -14.503937l15.448822 0l0 14.503937l7.7243958 0l-15.448822 14.503937z" fill-rule="evenodd"/><path fill="#000000" d="m625.81104 341.65616l7.7244263 0l0 -14.503937l15.4487915 0l0 14.503937l7.7244263 0l-15.448853 14.503937z" fill-rule="evenodd"/><path fill="#000000" fill-opacity="0.0" d="m319.0 433.0l322.99213 0" fill-rule="evenodd"/><path stroke="#000000" stroke-width="3.0" stroke-linejoin="round" stroke-linecap="butt" d="m319.0 433.0l304.99213 0" fill-rule="evenodd"/><path fill="#000000" stroke="#000000" stroke-width="3.0" stroke-linecap="butt" d="m623.9921 437.9552l13.614319 -4.9552l-13.614319 -4.9552z" fill-rule="evenodd"/><path fill="#000000" fill-opacity="0.0" d="m421.3386 433.0l117.322845 0l0 42.015747l-117.322845 0z" fill-rule="evenodd"/><path fill="#000000" d="m457.3701 459.91998l0 -11.78125l-4.40625 0l0 -1.578125l10.578125 0l0 1.578125l-4.40625 0l0 11.78125l-1.765625 0zm12.34259 -3.109375l1.6875 0.203125q-0.40625 1.484375 -1.484375 2.3125q-1.078125 0.8125 -2.765625 0.8125q-2.125 0 -3.375 -1.296875q-1.234375 -1.3125 -1.234375 -3.671875q0 -2.453125 1.25 -3.796875q1.265625 -1.34375 3.265625 -1.34375q1.9375 0 3.15625 1.328125q1.234375 1.3125 1.234375 3.703125q0 0.15625 0 0.4375l-7.21875 0q0.09375 1.59375 0.90625 2.453125q0.8125 0.84375 2.015625 0.84375q0.90625 0 1.546875 -0.46875q0.640625 -0.484375 1.015625 -1.515625zm-5.390625 -2.65625l5.40625 0q-0.109375 -1.21875 -0.625 -1.828125q-0.78125 -0.953125 -2.03125 -0.953125q-1.125 0 -1.90625 0.765625q-0.765625 0.75 -0.84375 2.015625zm9.141357 5.765625l0 -9.671875l1.46875 0l0 1.359375q0.453125 -0.71875 1.203125 -1.140625q0.765625 -0.4375 1.71875 -0.4375q1.078125 0 1.765625 0.453125q0.6875 0.4375 0.96875 1.234375q1.15625 -1.6875 2.984375 -1.6875q1.453125 0 2.21875 0.796875q0.78125 0.796875 0.78125 2.453125l0 6.640625l-1.640625 0l0 -6.09375q0 -0.984375 -0.15625 -1.40625q-0.15625 -0.4375 -0.578125 -0.703125q-0.421875 -0.265625 -0.984375 -0.265625q-1.015625 0 -1.6875 0.6875q-0.671875 0.671875 -0.671875 2.15625l0 5.625l-1.640625 0l0 -6.28125q0 -1.09375 -0.40625 -1.640625q-0.40625 -0.546875 -1.3125 -0.546875q-0.6875 0 -1.28125 0.359375q-0.59375 0.359375 -0.859375 1.0625q-0.25 0.703125 -0.25 2.03125l0 5.015625l-1.640625 0zm15.540802 3.703125l0 -13.375l1.484375 0l0 1.25q0.53125 -0.734375 1.1875 -1.09375q0.671875 -0.375 1.625 -0.375q1.234375 0 2.171875 0.640625q0.953125 0.625 1.4375 1.796875q0.484375 1.15625 0.484375 2.546875q0 1.484375 -0.53125 2.671875q-0.53125 1.1875 -1.546875 1.828125q-1.015625 0.625 -2.140625 0.625q-0.8125 0 -1.46875 -0.34375q-0.65625 -0.34375 -1.0625 -0.875l0 4.703125l-1.640625 0zm1.484375 -8.484375q0 1.859375 0.75 2.765625q0.765625 0.890625 1.828125 0.890625q1.09375 0 1.875 -0.921875q0.78125 -0.9375 0.78125 -2.875q0 -1.84375 -0.765625 -2.765625q-0.75 -0.921875 -1.8125 -0.921875q-1.046875 0 -1.859375 0.984375q-0.796875 0.96875 -0.796875 2.84375zm8.235077 1.890625l1.625 -0.25q0.125 0.96875 0.75 1.5q0.625 0.515625 1.75 0.515625q1.125 0 1.671875 -0.453125q0.546875 -0.46875 0.546875 -1.09375q0 -0.546875 -0.484375 -0.875q-0.328125 -0.21875 -1.671875 -0.546875q-1.8125 -0.46875 -2.515625 -0.796875q-0.6875 -0.328125 -1.046875 -0.90625q-0.359375 -0.59375 -0.359375 -1.3125q0 -0.640625 0.296875 -1.1875q0.296875 -0.5625 0.8125 -0.921875q0.375 -0.28125 1.03125 -0.46875q0.671875 -0.203125 1.421875 -0.203125q1.140625 0 2.0 0.328125q0.859375 0.328125 1.265625 0.890625q0.421875 0.5625 0.578125 1.5l-1.609375 0.21875q-0.109375 -0.75 -0.640625 -1.171875q-0.515625 -0.421875 -1.46875 -0.421875q-1.140625 0 -1.625 0.375q-0.46875 0.375 -0.46875 0.875q0 0.3125 0.1875 0.578125q0.203125 0.265625 0.640625 0.4375q0.234375 0.09375 1.4375 0.421875q1.75 0.453125 2.4375 0.75q0.6875 0.296875 1.078125 0.859375q0.390625 0.5625 0.390625 1.40625q0 0.828125 -0.484375 1.546875q-0.46875 0.71875 -1.375 1.125q-0.90625 0.390625 -2.046875 0.390625q-1.875 0 -2.875 -0.78125q-0.984375 -0.78125 -1.25 -2.328125z" fill-rule="nonzero"/></g></svg>