<svg version="1.1" viewBox="0.0 0.0 960.0 540.0" fill="none" stroke="none" stroke-linecap="square" stroke-miterlimit="10" xmlns:xlink="http://www.w3.org/1999/xlink" xmlns="http://www.w3.org/2000/svg"><clipPath id="g29bd1d84cae_0_24.0"><path d="m0 0l960.0 0l0 540.0l-960.0 0l0 -540.0z" clip-rule="nonzero"/></clipPath><g clip-path="url(#g29bd1d84cae_0_24.0)"><path fill="#ffffff" d="m0 0l960.0 0l0 540.0l-960.0 0z" fill-rule="evenodd"/><path fill="#000000" fill-opacity="0.0" d="m160.48819 0l639.0237 0l0 58.70866l-639.0237 0z" fill-rule="evenodd"/><path fill="#000000" d="m178.28125 39.72l0 -22.90625l7.890625 0q2.671875 0 4.078125 0.328125q1.96875 0.453125 3.359375 1.640625q1.8125 1.53125 2.703125 3.921875q0.90625 2.375 0.90625 5.4375q0 2.609375 -0.609375 4.625q-0.609375 2.015625 -1.5625 3.34375q-0.953125 1.3125 -2.09375 2.078125q-1.125 0.75 -2.734375 1.140625q-1.59375 0.390625 -3.671875 0.390625l-8.265625 0zm3.03125 -2.703125l4.890625 0q2.265625 0 3.546875 -0.421875q1.296875 -0.421875 2.0625 -1.1875q1.078125 -1.078125 1.671875 -2.890625q0.609375 -1.828125 0.609375 -4.421875q0 -3.59375 -1.1875 -5.515625q-1.171875 -1.9375 -2.859375 -2.59375q-1.21875 -0.46875 -3.921875 -0.46875l-4.8125 0l0 17.5zm19.546875 -17.171875l0 -3.265625l3.015625 0l0 2.578125q0 2.09375 -0.484375 3.015625q-0.671875 1.265625 -2.09375 1.90625l-0.6875 -1.109375q0.84375 -0.34375 1.25 -1.078125q0.421875 -0.75 0.46875 -2.046875l-1.46875 0zm18.15625 19.875l0 -2.4375q-1.9375 2.8125 -5.265625 2.8125q-1.46875 0 -2.75 -0.5625q-1.265625 -0.5625 -1.890625 -1.40625q-0.609375 -0.859375 -0.859375 -2.09375q-0.171875 -0.828125 -0.171875 -2.625l0 -10.28125l2.8125 0l0 9.203125q0 2.203125 0.171875 2.96875q0.265625 1.109375 1.125 1.75q0.859375 0.625 2.125 0.625q1.265625 0 2.375 -0.640625q1.109375 -0.65625 1.5625 -1.765625q0.46875 -1.125 0.46875 -3.25l0 -8.890625l2.8125 0l0 16.59375l-2.515625 0zm6.921875 0l0 -16.59375l2.53125 0l0 2.359375q1.828125 -2.734375 5.28125 -2.734375q1.5 0 2.75 0.546875q1.265625 0.53125 1.890625 1.40625q0.625 0.875 0.875 2.078125q0.15625 0.78125 0.15625 2.734375l0 10.203125l-2.8125 0l0 -10.09375q0 -1.71875 -0.328125 -2.5625q-0.328125 -0.859375 -1.171875 -1.359375q-0.828125 -0.515625 -1.953125 -0.515625q-1.796875 0 -3.109375 1.140625q-1.296875 1.140625 -1.296875 4.328125l0 9.0625l-2.8125 0zm38.046875 -5.34375l2.90625 0.359375q-0.6875 2.546875 -2.546875 3.953125q-1.859375 1.40625 -4.75 1.40625q-3.640625 0 -5.78125 -2.234375q-2.125 -2.25 -2.125 -6.296875q0 -4.1875 2.15625 -6.5q2.15625 -2.3125 5.59375 -2.3125q3.328125 0 5.4375 2.265625q2.109375 2.265625 2.109375 6.375q0 0.25 -0.015625 0.75l-12.375 0q0.15625 2.734375 1.546875 4.1875q1.390625 1.453125 3.46875 1.453125q1.546875 0 2.640625 -0.8125q1.09375 -0.8125 1.734375 -2.59375zm-9.234375 -4.546875l9.265625 0q-0.1875 -2.09375 -1.0625 -3.140625q-1.34375 -1.625 -3.484375 -1.625q-1.9375 0 -3.265625 1.296875q-1.3125 1.296875 -1.453125 3.46875zm15.671875 9.890625l0 -16.59375l2.53125 0l0 2.359375q1.828125 -2.734375 5.28125 -2.734375q1.5 0 2.75 0.546875q1.265625 0.53125 1.890625 1.40625q0.625 0.875 0.875 2.078125q0.15625 0.78125 0.15625 2.734375l0 10.203125l-2.8125 0l0 -10.09375q0 -1.71875 -0.328125 -2.5625q-0.328125 -0.859375 -1.171875 -1.359375q-0.828125 -0.515625 -1.953125 -0.515625q-1.796875 0 -3.109375 1.140625q-1.296875 1.140625 -1.296875 4.328125l0 9.0625l-2.8125 0zm23.9375 -2.515625l0.40625 2.484375q-1.1875 0.25 -2.125 0.25q-1.53125 0 -2.375 -0.484375q-0.84375 -0.484375 -1.1875 -1.265625q-0.34375 -0.796875 -0.34375 -3.328125l0 -9.546875l-2.0625 0l0 -2.1875l2.0625 0l0 -4.109375l2.796875 -1.6875l0 5.796875l2.828125 0l0 2.1875l-2.828125 0l0 9.703125q0 1.203125 0.140625 1.546875q0.15625 0.34375 0.484375 0.546875q0.34375 0.203125 0.96875 0.203125q0.46875 0 1.234375 -0.109375zm2.765625 -17.15625l0 -3.234375l2.8125 0l0 3.234375l-2.8125 0zm0 19.671875l0 -16.59375l2.8125 0l0 16.59375l-2.8125 0zm18.453125 -5.34375l2.90625 0.359375q-0.6875 2.546875 -2.546875 3.953125q-1.859375 1.40625 -4.75 1.40625q-3.640625 0 -5.78125 -2.234375q-2.125 -2.25 -2.125 -6.296875q0 -4.1875 2.15625 -6.5q2.15625 -2.3125 5.59375 -2.3125q3.328125 0 5.4375 2.265625q2.109375 2.265625 2.109375 6.375q0 0.25 -0.015625 0.75l-12.375 0q0.15625 2.734375 1.546875 4.1875q1.390625 1.453125 3.46875 1.453125q1.546875 0 2.640625 -0.8125q1.09375 -0.8125 1.734375 -2.59375zm-9.234375 -4.546875l9.265625 0q-0.1875 -2.09375 -1.0625 -3.140625q-1.34375 -1.625 -3.484375 -1.625q-1.9375 0 -3.265625 1.296875q-1.3125 1.296875 -1.453125 3.46875zm15.640625 9.890625l0 -16.59375l2.53125 0l0 2.515625q0.96875 -1.765625 1.78125 -2.328125q0.828125 -0.5625 1.8125 -0.5625q1.421875 0 2.890625 0.90625l-0.96875 2.609375q-1.03125 -0.609375 -2.0625 -0.609375q-0.921875 0 -1.65625 0.5625q-0.734375 0.546875 -1.046875 1.53125q-0.46875 1.5 -0.46875 3.28125l0 8.6875l-2.8125 0zm30.40625 -2.046875q-1.5625 1.328125 -3.015625 1.875q-1.4375 0.546875 -3.09375 0.546875q-2.734375 0 -4.203125 -1.328125q-1.46875 -1.34375 -1.46875 -3.421875q0 -1.21875 0.546875 -2.21875q0.5625 -1.015625 1.453125 -1.625q0.90625 -0.609375 2.03125 -0.921875q0.828125 -0.21875 2.5 -0.421875q3.40625 -0.40625 5.015625 -0.96875q0.015625 -0.578125 0.015625 -0.734375q0 -1.71875 -0.796875 -2.421875q-1.078125 -0.953125 -3.203125 -0.953125q-1.984375 0 -2.9375 0.703125q-0.9375 0.6875 -1.390625 2.453125l-2.75 -0.375q0.375 -1.765625 1.234375 -2.84375q0.859375 -1.09375 2.484375 -1.671875q1.625 -0.59375 3.765625 -0.59375q2.125 0 3.453125 0.5q1.328125 0.5 1.953125 1.265625q0.625 0.75 0.875 1.90625q0.140625 0.71875 0.140625 2.59375l0 3.75q0 3.921875 0.171875 4.96875q0.1875 1.03125 0.71875 1.984375l-2.9375 0q-0.4375 -0.875 -0.5625 -2.046875zm-0.234375 -6.28125q-1.53125 0.625 -4.59375 1.0625q-1.734375 0.25 -2.453125 0.5625q-0.71875 0.3125 -1.109375 0.921875q-0.390625 0.59375 -0.390625 1.328125q0 1.125 0.84375 1.875q0.859375 0.75 2.5 0.75q1.625 0 2.890625 -0.703125q1.265625 -0.71875 1.859375 -1.953125q0.453125 -0.953125 0.453125 -2.8125l0 -1.03125zm-1.53125 -10.328125l-2.265625 0l-3.609375 -4.375l3.765625 0l2.109375 4.375zm28.390625 18.65625l0 -2.09375q-1.578125 2.46875 -4.640625 2.46875q-1.984375 0 -3.65625 -1.09375q-1.65625 -1.09375 -2.578125 -3.046875q-0.90625 -1.96875 -0.90625 -4.515625q0 -2.484375 0.828125 -4.5q0.828125 -2.03125 2.484375 -3.109375q1.65625 -1.078125 3.703125 -1.078125q1.5 0 2.671875 0.640625q1.171875 0.625 1.90625 1.640625l0 -8.21875l2.796875 0l0 22.90625l-2.609375 0zm-8.890625 -8.28125q0 3.1875 1.34375 4.765625q1.34375 1.578125 3.171875 1.578125q1.84375 0 3.125 -1.5q1.296875 -1.515625 1.296875 -4.609375q0 -3.40625 -1.3125 -5.0q-1.3125 -1.59375 -3.234375 -1.59375q-1.875 0 -3.140625 1.53125q-1.25 1.53125 -1.25 4.828125zm27.28125 2.9375l2.90625 0.359375q-0.6875 2.546875 -2.546875 3.953125q-1.859375 1.40625 -4.75 1.40625q-3.640625 0 -5.78125 -2.234375q-2.125 -2.25 -2.125 -6.296875q0 -4.1875 2.15625 -6.5q2.15625 -2.3125 5.59375 -2.3125q3.328125 0 5.4375 2.265625q2.109375 2.265625 2.109375 6.375q0 0.25 -0.015625 0.75l-12.375 0q0.15625 2.734375 1.546875 4.1875q1.390625 1.453125 3.46875 1.453125q1.546875 0 2.640625 -0.8125q1.09375 -0.8125 1.734375 -2.59375zm-9.234375 -4.546875l9.265625 0q-0.1875 -2.09375 -1.0625 -3.140625q-1.34375 -1.625 -3.484375 -1.625q-1.9375 0 -3.265625 1.296875q-1.3125 1.296875 -1.453125 3.46875zm14.546875 4.9375l2.78125 -0.4375q0.234375 1.671875 1.296875 2.5625q1.078125 0.890625 3.0 0.890625q1.9375 0 2.875 -0.78125q0.9375 -0.796875 0.9375 -1.859375q0 -0.953125 -0.828125 -1.5q-0.578125 -0.375 -2.875 -0.953125q-3.09375 -0.78125 -4.296875 -1.34375q-1.1875 -0.578125 -1.8125 -1.578125q-0.609375 -1.015625 -0.609375 -2.234375q0 -1.109375 0.5 -2.046875q0.515625 -0.953125 1.390625 -1.578125q0.65625 -0.484375 1.78125 -0.8125q1.140625 -0.34375 2.4375 -0.34375q1.953125 0 3.421875 0.5625q1.484375 0.5625 2.1875 1.53125q0.703125 0.953125 0.96875 2.5625l-2.75 0.375q-0.1875 -1.28125 -1.09375 -2.0q-0.890625 -0.71875 -2.53125 -0.71875q-1.9375 0 -2.765625 0.640625q-0.828125 0.640625 -0.828125 1.5q0 0.546875 0.34375 0.984375q0.34375 0.453125 1.078125 0.75q0.421875 0.15625 2.484375 0.71875q2.984375 0.796875 4.15625 1.3125q1.1875 0.5 1.859375 1.46875q0.671875 0.96875 0.671875 2.40625q0 1.40625 -0.828125 2.65625q-0.8125 1.234375 -2.359375 1.921875q-1.546875 0.671875 -3.5 0.671875q-3.234375 0 -4.9375 -1.34375q-1.6875 -1.34375 -2.15625 -3.984375zm36.84375 -1.125l2.765625 0.359375q-0.453125 2.859375 -2.328125 4.484375q-1.859375 1.609375 -4.578125 1.609375q-3.40625 0 -5.484375 -2.21875q-2.0625 -2.234375 -2.0625 -6.390625q0 -2.6875 0.890625 -4.703125q0.890625 -2.015625 2.703125 -3.015625q1.828125 -1.015625 3.96875 -1.015625q2.703125 0 4.421875 1.375q1.71875 1.359375 2.203125 3.875l-2.734375 0.421875q-0.390625 -1.671875 -1.390625 -2.515625q-0.984375 -0.84375 -2.390625 -0.84375q-2.125 0 -3.453125 1.53125q-1.328125 1.515625 -1.328125 4.8125q0 3.34375 1.28125 4.859375q1.28125 1.515625 3.34375 1.515625q1.65625 0 2.765625 -1.015625q1.109375 -1.015625 1.40625 -3.125zm4.125 -2.21875q0 -4.609375 2.5625 -6.828125q2.140625 -1.84375 5.21875 -1.84375q3.421875 0 5.59375 2.25q2.171875 2.234375 2.171875 6.1875q0 3.203125 -0.96875 5.046875q-0.953125 1.828125 -2.796875 2.84375q-1.828125 1.015625 -4.0 1.015625q-3.484375 0 -5.640625 -2.234375q-2.140625 -2.234375 -2.140625 -6.4375zm2.890625 0q0 3.1875 1.390625 4.78125q1.390625 1.578125 3.5 1.578125q2.09375 0 3.484375 -1.59375q1.390625 -1.59375 1.390625 -4.859375q0 -3.078125 -1.40625 -4.65625q-1.390625 -1.59375 -3.46875 -1.59375q-2.109375 0 -3.5 1.578125q-1.390625 1.578125 -1.390625 4.765625zm14.90625 0q0 -4.609375 2.5625 -6.828125q2.140625 -1.84375 5.21875 -1.84375q3.421875 0 5.59375 2.25q2.171875 2.234375 2.171875 6.1875q0 3.203125 -0.96875 5.046875q-0.953125 1.828125 -2.796875 2.84375q-1.828125 1.015625 -4.0 1.015625q-3.484375 0 -5.640625 -2.234375q-2.140625 -2.234375 -2.140625 -6.4375zm2.890625 0q0 3.1875 1.390625 4.78125q1.390625 1.578125 3.5 1.578125q2.09375 0 3.484375 -1.59375q1.390625 -1.59375 1.390625 -4.859375q0 -3.078125 -1.40625 -4.65625q-1.390625 -1.59375 -3.46875 -1.59375q-2.109375 0 -3.5 1.578125q-1.390625 1.578125 -1.390625 4.765625zm15.921875 8.296875l0 -16.59375l2.53125 0l0 2.515625q0.96875 -1.765625 1.78125 -2.328125q0.828125 -0.5625 1.8125 -0.5625q1.421875 0 2.890625 0.90625l-0.96875 2.609375q-1.03125 -0.609375 -2.0625 -0.609375q-0.921875 0 -1.65625 0.5625q-0.734375 0.546875 -1.046875 1.53125q-0.46875 1.5 -0.46875 3.28125l0 8.6875l-2.8125 0zm21.453125 0l0 -2.09375q-1.578125 2.46875 -4.640625 2.46875q-1.984375 0 -3.65625 -1.09375q-1.65625 -1.09375 -2.578125 -3.046875q-0.90625 -1.96875 -0.90625 -4.515625q0 -2.484375 0.828125 -4.5q0.828125 -2.03125 2.484375 -3.109375q1.65625 -1.078125 3.703125 -1.078125q1.5 0 2.671875 0.640625q1.171875 0.625 1.90625 1.640625l0 -8.21875l2.796875 0l0 22.90625l-2.609375 0zm-8.890625 -8.28125q0 3.1875 1.34375 4.765625q1.34375 1.578125 3.171875 1.578125q1.84375 0 3.125 -1.5q1.296875 -1.515625 1.296875 -4.609375q0 -3.40625 -1.3125 -5.0q-1.3125 -1.59375 -3.234375 -1.59375q-1.875 0 -3.140625 1.53125q-1.25 1.53125 -1.25 4.828125zm14.875 -0.015625q0 -4.609375 2.5625 -6.828125q2.140625 -1.84375 5.21875 -1.84375q3.421875 0 5.59375 2.25q2.171875 2.234375 2.171875 6.1875q0 3.203125 -0.96875 5.046875q-0.953125 1.828125 -2.796875 2.84375q-1.828125 1.015625 -4.0 1.015625q-3.484375 0 -5.640625 -2.234375q-2.140625 -2.234375 -2.140625 -6.4375zm2.890625 0q0 3.1875 1.390625 4.78125q1.390625 1.578125 3.5 1.578125q2.09375 0 3.484375 -1.59375q1.390625 -1.59375 1.390625 -4.859375q0 -3.078125 -1.40625 -4.65625q-1.390625 -1.59375 -3.46875 -1.59375q-2.109375 0 -3.5 1.578125q-1.390625 1.578125 -1.390625 4.765625zm15.953125 8.296875l0 -16.59375l2.53125 0l0 2.359375q1.828125 -2.734375 5.28125 -2.734375q1.5 0 2.75 0.546875q1.265625 0.53125 1.890625 1.40625q0.625 0.875 0.875 2.078125q0.15625 0.78125 0.15625 2.734375l0 10.203125l-2.8125 0l0 -10.09375q0 -1.71875 -0.328125 -2.5625q-0.328125 -0.859375 -1.171875 -1.359375q-0.828125 -0.515625 -1.953125 -0.515625q-1.796875 0 -3.109375 1.140625q-1.296875 1.140625 -1.296875 4.328125l0 9.0625l-2.8125 0zm17.796875 0l0 -16.59375l2.53125 0l0 2.359375q1.828125 -2.734375 5.28125 -2.734375q1.5 0 2.75 0.546875q1.265625 0.53125 1.890625 1.40625q0.625 0.875 0.875 2.078125q0.15625 0.78125 0.15625 2.734375l0 10.203125l-2.8125 0l0 -10.09375q0 -1.71875 -0.328125 -2.5625q-0.328125 -0.859375 -1.171875 -1.359375q-0.828125 -0.515625 -1.953125 -0.515625q-1.796875 0 -3.109375 1.140625q-1.296875 1.140625 -1.296875 4.328125l0 9.0625l-2.8125 0zm29.15625 -5.34375l2.90625 0.359375q-0.6875 2.546875 -2.546875 3.953125q-1.859375 1.40625 -4.75 1.40625q-3.640625 0 -5.78125 -2.234375q-2.125 -2.25 -2.125 -6.296875q0 -4.1875 2.15625 -6.5q2.15625 -2.3125 5.59375 -2.3125q3.328125 0 5.4375 2.265625q2.109375 2.265625 2.109375 6.375q0 0.25 -0.015625 0.75l-12.375 0q0.15625 2.734375 1.546875 4.1875q1.390625 1.453125 3.46875 1.453125q1.546875 0 2.640625 -0.8125q1.09375 -0.8125 1.734375 -2.59375zm-9.234375 -4.546875l9.265625 0q-0.1875 -2.09375 -1.0625 -3.140625q-1.34375 -1.625 -3.484375 -1.625q-1.9375 0 -3.265625 1.296875q-1.3125 1.296875 -1.453125 3.46875zm3.03125 -8.765625l2.078125 -4.375l3.6875 0l-3.4375 4.375l-2.328125 0zm24.0 13.3125l2.90625 0.359375q-0.6875 2.546875 -2.546875 3.953125q-1.859375 1.40625 -4.75 1.40625q-3.640625 0 -5.78125 -2.234375q-2.125 -2.25 -2.125 -6.296875q0 -4.1875 2.15625 -6.5q2.15625 -2.3125 5.59375 -2.3125q3.328125 0 5.4375 2.265625q2.109375 2.265625 2.109375 6.375q0 0.25 -0.015625 0.75l-12.375 0q0.15625 2.734375 1.546875 4.1875q1.390625 1.453125 3.46875 1.453125q1.546875 0 2.640625 -0.8125q1.09375 -0.8125 1.734375 -2.59375zm-9.234375 -4.546875l9.265625 0q-0.1875 -2.09375 -1.0625 -3.140625q-1.34375 -1.625 -3.484375 -1.625q-1.9375 0 -3.265625 1.296875q-1.3125 1.296875 -1.453125 3.46875zm14.546875 4.9375l2.78125 -0.4375q0.234375 1.671875 1.296875 2.5625q1.078125 0.890625 3.0 0.890625q1.9375 0 2.875 -0.78125q0.9375 -0.796875 0.9375 -1.859375q0 -0.953125 -0.828125 -1.5q-0.578125 -0.375 -2.875 -0.953125q-3.09375 -0.78125 -4.296875 -1.34375q-1.1875 -0.578125 -1.8125 -1.578125q-0.609375 -1.015625 -0.609375 -2.234375q0 -1.109375 0.5 -2.046875q0.515625 -0.953125 1.390625 -1.578125q0.65625 -0.484375 1.78125 -0.8125q1.140625 -0.34375 2.4375 -0.34375q1.953125 0 3.421875 0.5625q1.484375 0.5625 2.1875 1.53125q0.703125 0.953125 0.96875 2.5625l-2.75 0.375q-0.1875 -1.28125 -1.09375 -2.0q-0.890625 -0.71875 -2.53125 -0.71875q-1.9375 0 -2.765625 0.640625q-0.828125 0.640625 -0.828125 1.5q0 0.546875 0.34375 0.984375q0.34375 0.453125 1.078125 0.75q0.421875 0.15625 2.484375 0.71875q2.984375 0.796875 4.15625 1.3125q1.1875 0.5 1.859375 1.46875q0.671875 0.96875 0.671875 2.40625q0 1.40625 -0.828125 2.65625q-0.8125 1.234375 -2.359375 1.921875q-1.546875 0.671875 -3.5 0.671875q-3.234375 0 -4.9375 -1.34375q-1.6875 -1.34375 -2.15625 -3.984375zm40.015625 2.25l0 2.703125l-15.140625 0q-0.03125 -1.015625 0.328125 -1.953125q0.578125 -1.546875 1.84375 -3.046875q1.28125 -1.5 3.6875 -3.46875q3.734375 -3.0625 5.046875 -4.84375q1.3125 -1.796875 1.3125 -3.390625q0 -1.671875 -1.203125 -2.8125q-1.1875 -1.15625 -3.109375 -1.15625q-2.03125 0 -3.25 1.21875q-1.21875 1.21875 -1.234375 3.375l-2.890625 -0.296875q0.296875 -3.234375 2.234375 -4.921875q1.9375 -1.703125 5.203125 -1.703125q3.296875 0 5.21875 1.828125q1.921875 1.828125 1.921875 4.53125q0 1.375 -0.5625 2.703125q-0.5625 1.328125 -1.875 2.796875q-1.296875 1.46875 -4.328125 4.03125q-2.53125 2.125 -3.25 2.890625q-0.71875 0.75 -1.1875 1.515625l11.234375 0zm4.15625 2.703125l0 -22.90625l7.890625 0q2.671875 0 4.078125 0.328125q1.96875 0.453125 3.359375 1.640625q1.8125 1.53125 2.703125 3.921875q0.90625 2.375 0.90625 5.4375q0 2.609375 -0.609375 4.625q-0.609375 2.015625 -1.5625 3.34375q-0.953125 1.3125 -2.09375 2.078125q-1.125 0.75 -2.734375 1.140625q-1.59375 0.390625 -3.671875 0.390625l-8.265625 0zm3.03125 -2.703125l4.890625 0q2.265625 0 3.546875 -0.421875q1.296875 -0.421875 2.0625 -1.1875q1.078125 -1.078125 1.671875 -2.890625q0.609375 -1.828125 0.609375 -4.421875q0 -3.59375 -1.1875 -5.515625q-1.171875 -1.9375 -2.859375 -2.59375q-1.21875 -0.46875 -3.921875 -0.46875l-4.8125 0l0 17.5zm39.96875 -2.640625l2.90625 0.359375q-0.6875 2.546875 -2.546875 3.953125q-1.859375 1.40625 -4.75 1.40625q-3.640625 0 -5.78125 -2.234375q-2.125 -2.25 -2.125 -6.296875q0 -4.1875 2.15625 -6.5q2.15625 -2.3125 5.59375 -2.3125q3.328125 0 5.4375 2.265625q2.109375 2.265625 2.109375 6.375q0 0.25 -0.015625 0.75l-12.375 0q0.15625 2.734375 1.546875 4.1875q1.390625 1.453125 3.46875 1.453125q1.546875 0 2.640625 -0.8125q1.09375 -0.8125 1.734375 -2.59375zm-9.234375 -4.546875l9.265625 0q-0.1875 -2.09375 -1.0625 -3.140625q-1.34375 -1.625 -3.484375 -1.625q-1.9375 0 -3.265625 1.296875q-1.3125 1.296875 -1.453125 3.46875zm15.671875 9.890625l0 -16.59375l2.53125 0l0 2.359375q1.828125 -2.734375 5.28125 -2.734375q1.5 0 2.75 0.546875q1.265625 0.53125 1.890625 1.40625q0.625 0.875 0.875 2.078125q0.15625 0.78125 0.15625 2.734375l0 10.203125l-2.8125 0l0 -10.09375q0 -1.71875 -0.328125 -2.5625q-0.328125 -0.859375 -1.171875 -1.359375q-0.828125 -0.515625 -1.953125 -0.515625q-1.796875 0 -3.109375 1.140625q-1.296875 1.140625 -1.296875 4.328125l0 9.0625l-2.8125 0zm23.9375 -2.515625l0.40625 2.484375q-1.1875 0.25 -2.125 0.25q-1.53125 0 -2.375 -0.484375q-0.84375 -0.484375 -1.1875 -1.265625q-0.34375 -0.796875 -0.34375 -3.328125l0 -9.546875l-2.0625 0l0 -2.1875l2.0625 0l0 -4.109375l2.796875 -1.6875l0 5.796875l2.828125 0l0 2.1875l-2.828125 0l0 9.703125q0 1.203125 0.140625 1.546875q0.15625 0.34375 0.484375 0.546875q0.34375 0.203125 0.96875 0.203125q0.46875 0 1.234375 -0.109375zm2.765625 -17.15625l0 -3.234375l2.8125 0l0 3.234375l-2.8125 0zm0 19.671875l0 -16.59375l2.8125 0l0 16.59375l-2.8125 0zm18.453125 -5.34375l2.90625 0.359375q-0.6875 2.546875 -2.546875 3.953125q-1.859375 1.40625 -4.75 1.40625q-3.640625 0 -5.78125 -2.234375q-2.125 -2.25 -2.125 -6.296875q0 -4.1875 2.15625 -6.5q2.15625 -2.3125 5.59375 -2.3125q3.328125 0 5.4375 2.265625q2.109375 2.265625 2.109375 6.375q0 0.25 -0.015625 0.75l-12.375 0q0.15625 2.734375 1.546875 4.1875q1.390625 1.453125 3.46875 1.453125q1.546875 0 2.640625 -0.8125q1.09375 -0.8125 1.734375 -2.59375zm-9.234375 -4.546875l9.265625 0q-0.1875 -2.09375 -1.0625 -3.140625q-1.34375 -1.625 -3.484375 -1.625q-1.9375 0 -3.265625 1.296875q-1.3125 1.296875 -1.453125 3.46875zm6.484375 -8.765625l-2.265625 0l-3.609375 -4.375l3.765625 0l2.109375 4.375zm9.15625 18.65625l0 -16.59375l2.53125 0l0 2.515625q0.96875 -1.765625 1.78125 -2.328125q0.828125 -0.5625 1.8125 -0.5625q1.421875 0 2.890625 0.90625l-0.96875 2.609375q-1.03125 -0.609375 -2.0625 -0.609375q-0.921875 0 -1.65625 0.5625q-0.734375 0.546875 -1.046875 1.53125q-0.46875 1.5 -0.46875 3.28125l0 8.6875l-2.8125 0zm22.046875 -5.34375l2.90625 0.359375q-0.6875 2.546875 -2.546875 3.953125q-1.859375 1.40625 -4.75 1.40625q-3.640625 0 -5.78125 -2.234375q-2.125 -2.25 -2.125 -6.296875q0 -4.1875 2.15625 -6.5q2.15625 -2.3125 5.59375 -2.3125q3.328125 0 5.4375 2.265625q2.109375 2.265625 2.109375 6.375q0 0.25 -0.015625 0.75l-12.375 0q0.15625 2.734375 1.546875 4.1875q1.390625 1.453125 3.46875 1.453125q1.546875 0 2.640625 -0.8125q1.09375 -0.8125 1.734375 -2.59375zm-9.234375 -4.546875l9.265625 0q-0.1875 -2.09375 -1.0625 -3.140625q-1.34375 -1.625 -3.484375 -1.625q-1.9375 0 -3.265625 1.296875q-1.3125 1.296875 -1.453125 3.46875zm14.546875 4.9375l2.78125 -0.4375q0.234375 1.671875 1.296875 2.5625q1.078125 0.890625 3.0 0.890625q1.9375 0 2.875 -0.78125q0.9375 -0.796875 0.9375 -1.859375q0 -0.953125 -0.828125 -1.5q-0.578125 -0.375 -2.875 -0.953125q-3.09375 -0.78125 -4.296875 -1.34375q-1.1875 -0.578125 -1.8125 -1.578125q-0.609375 -1.015625 -0.609375 -2.234375q0 -1.109375 0.5 -2.046875q0.515625 -0.953125 1.390625 -1.578125q0.65625 -0.484375 1.78125 -0.8125q1.140625 -0.34375 2.4375 -0.34375q1.953125 0 3.421875 0.5625q1.484375 0.5625 2.1875 1.53125q0.703125 0.953125 0.96875 2.5625l-2.75 0.375q-0.1875 -1.28125 -1.09375 -2.0q-0.890625 -0.71875 -2.53125 -0.71875q-1.9375 0 -2.765625 0.640625q-0.828125 0.640625 -0.828125 1.5q0 0.546875 0.34375 0.984375q0.34375 0.453125 1.078125 0.75q0.421875 0.15625 2.484375 0.71875q2.984375 0.796875 4.15625 1.3125q1.1875 0.5 1.859375 1.46875q0.671875 0.96875 0.671875 2.40625q0 1.40625 -0.828125 2.65625q-0.8125 1.234375 -2.359375 1.921875q-1.546875 0.671875 -3.5 0.671875q-3.234375 0 -4.9375 -1.34375q-1.6875 -1.34375 -2.15625 -3.984375z" fill-rule="nonzero"/><path shape-rendering="crispEdges" fill="#d9ead3" d="m186.75853 87.49213l706.55115 0l0 53.181107l-706.55115 0l0 -53.181107z" fill-rule="nonzero"/><path shape-rendering="crispEdges" fill="#c9daf8" d="m66.68767 140.67323l120.07086 0l0 53.18109l-120.07086 0l0 -53.18109z" fill-rule="nonzero"/><path shape-rendering="crispEdges" fill="#d9ead3" d="m186.75853 140.67323l58.879272 0l0 53.18109l-58.879272 0l0 -53.18109z" fill-rule="nonzero"/><path shape-rendering="crispEdges" fill="#d9ead3" d="m245.6378 140.67323l58.879257 0l0 53.18109l-58.879257 0l0 -53.18109z" fill-rule="nonzero"/><path shape-rendering="crispEdges" fill="#d9ead3" d="m304.51706 140.67323l58.879272 0l0 53.18109l-58.879272 0l0 -53.18109z" fill-rule="nonzero"/><path shape-rendering="crispEdges" fill="#d9ead3" d="m363.39633 140.67323l58.879272 0l0 53.18109l-58.879272 0l0 -53.18109z" fill-rule="nonzero"/><path shape-rendering="crispEdges" fill="#d9ead3" d="m422.2756 140.67323l58.879242 0l0 53.18109l-58.879242 0l0 -53.18109z" fill-rule="nonzero"/><path shape-rendering="crispEdges" fill="#d9ead3" d="m481.15485 140.67323l58.879272 0l0 53.18109l-58.879272 0l0 -53.18109z" fill-rule="nonzero"/><path shape-rendering="crispEdges" fill="#d9ead3" d="m540.0341 140.67323l58.879272 0l0 53.18109l-58.879272 0l0 -53.18109z" fill-rule="nonzero"/><path shape-rendering="crispEdges" fill="#d9ead3" d="m598.9134 140.67323l58.879272 0l0 53.18109l-58.879272 0l0 -53.18109z" fill-rule="nonzero"/><path shape-rendering="crispEdges" fill="#d9ead3" d="m657.79266 140.67323l58.879272 0l0 53.18109l-58.879272 0l0 -53.18109z" fill-rule="nonzero"/><path shape-rendering="crispEdges" fill="#d9ead3" d="m716.67194 140.67323l58.879272 0l0 53.18109l-58.879272 0l0 -53.18109z" fill-rule="nonzero"/><path shape-rendering="crispEdges" fill="#d9ead3" d="m775.5512 140.67323l58.87921 0l0 53.18109l-58.87921 0l0 -53.18109z" fill-rule="nonzero"/><path shape-rendering="crispEdges" fill="#d9ead3" d="m834.4304 140.67323l58.879272 0l0 53.18109l-58.879272 0l0 -53.18109z" fill-rule="nonzero"/><path shape-rendering="crispEdges" fill="#c9daf8" d="m66.68767 193.85432l120.07086 0l0 53.181107l-120.07086 0l0 -53.181107z" fill-rule="nonzero"/><path shape-rendering="crispEdges" fill="#c9daf8" d="m66.68767 247.03543l120.07086 0l0 53.18109l-120.07086 0l0 -53.18109z" fill-rule="nonzero"/><path shape-rendering="crispEdges" fill="#c9daf8" d="m66.68767 300.21652l120.07086 0l0 53.18112l-120.07086 0l0 -53.18112z" fill-rule="nonzero"/><path shape-rendering="crispEdges" fill="#c9daf8" d="m66.68767 353.39764l120.07086 0l0 53.18109l-120.07086 0l0 -53.18109z" fill-rule="nonzero"/><path shape-rendering="crispEdges" fill="#c9daf8" d="m66.68767 406.57874l120.07086 0l0 53.18112l-120.07086 0l0 -53.18112z" fill-rule="nonzero"/><path shape-rendering="crispEdges" fill="#c9daf8" d="m66.68767 459.75986l120.07086 0l0 53.18106l-120.07086 0l0 -53.18106z" fill-rule="nonzero"/><path stroke="#9e9e9e" stroke-width="1.0" stroke-linecap="butt" d="m66.68767 86.99344l0 426.4462" fill-rule="nonzero"/><path stroke="#9e9e9e" stroke-width="1.0" stroke-linecap="butt" d="m186.75853 86.99344l0 426.4462" fill-rule="nonzero"/><path stroke="#9e9e9e" stroke-width="1.0" stroke-linecap="butt" d="m245.6378 140.17455l0 373.26508" fill-rule="nonzero"/><path stroke="#9e9e9e" stroke-width="1.0" stroke-linecap="butt" d="m304.51706 140.17455l0 160.54066" fill-rule="nonzero"/><path stroke="#9e9e9e" stroke-width="1.0" stroke-linecap="butt" d="m363.39633 140.17455l0 107.35957" fill-rule="nonzero"/><path stroke="#9e9e9e" stroke-width="1.0" stroke-linecap="butt" d="m422.2756 140.17455l0 107.35957" fill-rule="nonzero"/><path stroke="#9e9e9e" stroke-width="1.0" stroke-linecap="butt" d="m481.15485 140.17455l0 107.35957" fill-rule="nonzero"/><path stroke="#9e9e9e" stroke-width="1.0" stroke-linecap="butt" d="m540.0341 140.17455l0 107.35957" fill-rule="nonzero"/><path stroke="#9e9e9e" stroke-width="1.0" stroke-linecap="butt" d="m598.9134 140.17455l0 107.35957" fill-rule="nonzero"/><path stroke="#9e9e9e" stroke-width="1.0" stroke-linecap="butt" d="m657.79266 140.17455l0 107.35957" fill-rule="nonzero"/><path stroke="#9e9e9e" stroke-width="1.0" stroke-linecap="butt" d="m716.67194 140.17455l0 107.35957" fill-rule="nonzero"/><path stroke="#9e9e9e" stroke-width="1.0" stroke-linecap="butt" d="m775.5512 140.17455l0 107.35957" fill-rule="nonzero"/><path stroke="#9e9e9e" stroke-width="1.0" stroke-linecap="butt" d="m834.4304 140.17455l0 373.26508" fill-rule="nonzero"/><path stroke="#9e9e9e" stroke-width="1.0" stroke-linecap="butt" d="m893.3097 86.99344l0 426.4462" fill-rule="nonzero"/><path stroke="#9e9e9e" stroke-width="1.0" stroke-linecap="butt" d="m66.18898 87.49213l827.61945 0" fill-rule="nonzero"/><path stroke="#9e9e9e" stroke-width="1.0" stroke-linecap="butt" d="m66.18898 140.67323l827.61945 0" fill-rule="nonzero"/><path stroke="#9e9e9e" stroke-width="1.0" stroke-linecap="butt" d="m66.18898 193.85432l827.61945 0" fill-rule="nonzero"/><path stroke="#9e9e9e" stroke-width="1.0" stroke-linecap="butt" d="m66.18898 247.03543l827.61945 0" fill-rule="nonzero"/><path stroke="#9e9e9e" stroke-width="1.0" stroke-linecap="butt" d="m66.18898 300.21652l827.61945 0" fill-rule="nonzero"/><path stroke="#9e9e9e" stroke-width="1.0" stroke-linecap="butt" d="m66.18898 353.39764l179.94751 0" fill-rule="nonzero"/><path stroke="#9e9e9e" stroke-width="1.0" stroke-linecap="butt" d="m833.93176 353.39764l59.876648 0" fill-rule="nonzero"/><path stroke="#9e9e9e" stroke-width="1.0" stroke-linecap="butt" d="m66.18898 406.57874l179.94751 0" fill-rule="nonzero"/><path stroke="#9e9e9e" stroke-width="1.0" stroke-linecap="butt" d="m833.93176 406.57874l59.876648 0" fill-rule="nonzero"/><path stroke="#9e9e9e" stroke-width="1.0" stroke-linecap="butt" d="m66.18898 459.75986l179.94751 0" fill-rule="nonzero"/><path stroke="#9e9e9e" stroke-width="1.0" stroke-linecap="butt" d="m833.93176 459.75986l59.876648 0" fill-rule="nonzero"/><path stroke="#9e9e9e" stroke-width="1.0" stroke-linecap="butt" d="m66.18898 512.9409l827.61945 0" fill-rule="nonzero"/><path fill="#000000" d="m498.803 122.72268l0 -15.75l2.203125 0l5.046875 9.890625l1.515625 3.265625l0.046875 0q-0.046875 -1.171875 -0.15625 -2.453125q-0.109375 -1.296875 -0.109375 -2.53125l0 -8.171875l1.921875 0l0 15.75l-2.21875 0l-5.03125 -9.890625l-1.515625 -3.265625l-0.046875 0q0.046875 1.203125 0.15625 2.453125q0.109375 1.25 0.109375 2.46875l0 8.234375l-1.921875 0zm30.815521 -7.703125q-0.96875 0 -1.71875 -0.453125q-0.75 -0.46875 -1.1875 -1.375q-0.4375 -0.921875 -0.4375 -2.15625q0 -1.859375 0.953125 -2.875q0.953125 -1.03125 2.390625 -1.03125q1.453125 0 2.390625 1.03125q0.9375 1.015625 0.9375 2.875q0 1.234375 -0.4375 2.15625q-0.421875 0.90625 -1.1875 1.375q-0.75 0.453125 -1.703125 0.453125zm0 -1.1875q0.78125 0 1.328125 -0.6875q0.546875 -0.6875 0.546875 -2.109375q0 -1.4375 -0.546875 -2.078125q-0.546875 -0.65625 -1.328125 -0.65625q-0.765625 0 -1.328125 0.65625q-0.546875 0.640625 -0.546875 2.078125q0 1.421875 0.546875 2.109375q0.5625 0.6875 1.328125 0.6875zm-2.140625 8.125l-1.171875 -1.078125l4.390625 -4.515625l0.796875 0.71875l-4.015625 4.875zm7.5 -8.625l-0.796875 -0.71875l4.0 -4.859375l1.1875 1.078125l-4.390625 4.5zm1.078125 9.671875q-0.96875 0 -1.71875 -0.453125q-0.75 -0.46875 -1.1875 -1.375q-0.4375 -0.921875 -0.4375 -2.15625q0 -1.859375 0.953125 -2.875q0.953125 -1.03125 2.390625 -1.03125q1.453125 0 2.390625 1.03125q0.9375 1.015625 0.9375 2.875q0 1.234375 -0.4375 2.15625q-0.421875 0.90625 -1.1875 1.375q-0.75 0.453125 -1.703125 0.453125zm0 -1.1875q0.78125 0 1.328125 -0.6875q0.546875 -0.6875 0.546875 -2.109375q0 -1.4375 -0.546875 -2.078125q-0.546875 -0.65625 -1.328125 -0.65625q-0.765625 0 -1.328125 0.65625q-0.546875 0.640625 -0.546875 2.078125q0 1.421875 0.546875 2.109375q0.5625 0.6875 1.328125 0.6875zm20.706177 0.90625l0 -1.625l4.421875 0l0 -11.28125l-3.4375 0l0 -1.28125q0.90625 -0.109375 1.59375 -0.28125q0.703125 -0.171875 1.28125 -0.375q0.578125 -0.203125 1.0625 -0.46875l1.46875 0l0 13.6875l4.0 0l0 1.625l-10.390625 0zm13.821838 0l0 -1.171875q2.59375 -2.28125 4.375 -4.015625q1.796875 -1.75 2.734375 -3.140625q0.9375 -1.390625 0.9375 -2.65625q0 -1.328125 -0.828125 -2.15625q-0.8125 -0.84375 -2.515625 -0.84375q-1.078125 0 -2.0 0.53125q-0.921875 0.515625 -1.671875 1.3125l-1.125 -1.125q1.03125 -1.0625 2.21875 -1.6875q1.1875 -0.640625 2.828125 -0.640625q1.53125 0 2.640625 0.5625q1.125 0.5625 1.734375 1.578125q0.609375 1.0 0.609375 2.359375q0 1.453125 -0.890625 2.921875q-0.890625 1.453125 -2.484375 3.078125q-1.59375 1.609375 -3.6875 3.53125q0.734375 -0.0625 1.453125 -0.09375q0.71875 -0.046875 1.40625 -0.046875l5.046875 0l0 1.703125l-10.78125 0z" fill-rule="nonzero"/><path fill="#000000" d="m85.49196 175.90378l0 -15.75l2.203125 0l5.046875 9.890625l1.515625 3.265625l0.046875 0q-0.046875 -1.171875 -0.15625 -2.453125q-0.109375 -1.296875 -0.109375 -2.53125l0 -8.171875l1.921875 0l0 15.75l-2.21875 0l-5.03125 -9.890625l-1.515625 -3.265625l-0.046875 0q0.046875 1.203125 0.15625 2.453125q0.109375 1.25 0.109375 2.46875l0 8.234375l-1.921875 0zm29.206177 3.84375l7.875 -20.890625l1.78125 0l-7.875 20.890625l-1.78125 0zm28.753052 -3.84375l0 -1.625l4.421875 0l0 -11.28125l-3.4375 0l0 -1.28125q0.90625 -0.109375 1.59375 -0.28125q0.703125 -0.171875 1.28125 -0.375q0.578125 -0.203125 1.0625 -0.46875l1.46875 0l0 13.6875l4.0 0l0 1.625l-10.390625 0zm13.821838 0l0 -1.171875q2.59375 -2.28125 4.375 -4.015625q1.796875 -1.75 2.734375 -3.140625q0.9375 -1.390625 0.9375 -2.65625q0 -1.328125 -0.828125 -2.15625q-0.8125 -0.84375 -2.515625 -0.84375q-1.078125 0 -2.0 0.53125q-0.921875 0.515625 -1.671875 1.3125l-1.125 -1.125q1.03125 -1.0625 2.21875 -1.6875q1.1875 -0.640625 2.828125 -0.640625q1.53125 0 2.640625 0.5625q1.125 0.5625 1.734375 1.578125q0.609375 1.0 0.609375 2.359375q0 1.453125 -0.890625 2.921875q-0.890625 1.453125 -2.484375 3.078125q-1.59375 1.609375 -3.6875 3.53125q0.734375 -0.0625 1.453125 -0.09375q0.71875 -0.046875 1.40625 -0.046875l5.046875 0l0 1.703125l-10.78125 0z" fill-rule="nonzero"/><path fill="#000000" d="m216.11809 158.65378q2.484375 0 3.890625 1.78125q1.6875 2.109375 1.6875 7.0q0 4.875 -1.6875 7.0q-1.40625 1.765625 -3.890625 1.765625q-2.515625 0 -4.046875 -1.921875q-1.53125 -1.9375 -1.53125 -6.890625q0 -4.84375 1.6875 -6.984375q1.390625 -1.75 3.890625 -1.75zm0 2.734375q-0.609375 0 -1.078125 0.375q-0.46875 0.375 -0.71875 1.359375q-0.34375 1.28125 -0.34375 4.3125q0 3.015625 0.296875 4.15625q0.3125 1.125 0.765625 1.5q0.46875 0.375 1.078125 0.375q0.59375 0 1.0625 -0.375q0.46875 -0.390625 0.71875 -1.375q0.34375 -1.265625 0.34375 -4.28125q0 -3.03125 -0.3125 -4.15625q-0.296875 -1.140625 -0.765625 -1.515625q-0.453125 -0.375 -1.046875 -0.375z" fill-rule="nonzero"/><path fill="#000000" d="m277.85672 175.90378l-3.296875 0l0 -12.40625q-1.8125 1.6875 -4.25 2.484375l0 -2.984375q1.28125 -0.421875 2.796875 -1.59375q1.515625 -1.1875 2.078125 -2.75l2.671875 0l0 17.25z" fill-rule="nonzero"/><path fill="#000000" d="m339.4235 172.84128l0 3.0625l-11.546875 0q0.1875 -1.734375 1.125 -3.28125q0.9375 -1.5625 3.703125 -4.125q2.234375 -2.078125 2.734375 -2.8125q0.6875 -1.015625 0.6875 -2.015625q0 -1.109375 -0.59375 -1.6875q-0.59375 -0.59375 -1.640625 -0.59375q-1.03125 0 -1.640625 0.625q-0.609375 0.609375 -0.703125 2.046875l-3.28125 -0.328125q0.296875 -2.71875 1.84375 -3.890625q1.546875 -1.1875 3.859375 -1.1875q2.546875 0 4.0 1.375q1.453125 1.359375 1.453125 3.40625q0 1.15625 -0.421875 2.203125q-0.40625 1.046875 -1.3125 2.203125q-0.59375 0.765625 -2.15625 2.203125q-1.5625 1.421875 -1.984375 1.890625q-0.40625 0.46875 -0.65625 0.90625l6.53125 0z" fill-rule="nonzero"/><path fill="#000000" d="m387.0684 171.34128l3.1875 -0.390625q0.15625 1.21875 0.8125 1.875q0.671875 0.640625 1.625 0.640625q1.015625 0 1.703125 -0.765625q0.703125 -0.78125 0.703125 -2.09375q0 -1.25 -0.671875 -1.96875q-0.65625 -0.734375 -1.625 -0.734375q-0.625 0 -1.5 0.25l0.359375 -2.6875q1.328125 0.046875 2.03125 -0.5625q0.703125 -0.625 0.703125 -1.640625q0 -0.875 -0.515625 -1.390625q-0.515625 -0.515625 -1.359375 -0.515625q-0.84375 0 -1.453125 0.59375q-0.59375 0.578125 -0.71875 1.703125l-3.03125 -0.515625q0.3125 -1.5625 0.953125 -2.484375q0.640625 -0.9375 1.78125 -1.46875q1.140625 -0.53125 2.5625 -0.53125q2.421875 0 3.890625 1.546875q1.203125 1.265625 1.203125 2.859375q0 2.265625 -2.46875 3.609375q1.46875 0.3125 2.34375 1.421875q0.890625 1.09375 0.890625 2.65625q0 2.265625 -1.65625 3.859375q-1.640625 1.59375 -4.109375 1.59375q-2.328125 0 -3.859375 -1.34375q-1.53125 -1.34375 -1.78125 -3.515625z" fill-rule="nonzero"/><path fill="#000000" d="m452.52576 175.90378l0 -3.453125l-7.03125 0l0 -2.890625l7.453125 -10.90625l2.765625 0l0 10.890625l2.125 0l0 2.90625l-2.125 0l0 3.453125l-3.1875 0zm0 -6.359375l0 -5.859375l-3.953125 5.859375l3.953125 0z" fill-rule="nonzero"/><path fill="#000000" d="m504.98315 171.4819l3.28125 -0.34375q0.140625 1.125 0.828125 1.78125q0.703125 0.640625 1.609375 0.640625q1.03125 0 1.734375 -0.828125q0.71875 -0.84375 0.71875 -2.53125q0 -1.59375 -0.71875 -2.375q-0.703125 -0.796875 -1.828125 -0.796875q-1.421875 0 -2.546875 1.25l-2.671875 -0.375l1.6875 -8.953125l8.703125 0l0 3.09375l-6.203125 0l-0.515625 2.90625q1.09375 -0.546875 2.25 -0.546875q2.1875 0 3.703125 1.59375q1.53125 1.59375 1.53125 4.140625q0 2.125 -1.234375 3.78125q-1.671875 2.28125 -4.65625 2.28125q-2.375 0 -3.875 -1.28125q-1.5 -1.28125 -1.796875 -3.4375z" fill-rule="nonzero"/><path fill="#000000" d="m574.9718 162.93503l-3.1875 0.34375q-0.109375 -0.984375 -0.609375 -1.453125q-0.484375 -0.46875 -1.265625 -0.46875q-1.046875 0 -1.765625 0.9375q-0.71875 0.9375 -0.90625 3.90625q1.21875 -1.453125 3.046875 -1.453125q2.0625 0 3.53125 1.578125q1.484375 1.5625 1.484375 4.046875q0 2.640625 -1.546875 4.234375q-1.546875 1.59375 -3.984375 1.59375q-2.59375 0 -4.28125 -2.015625q-1.671875 -2.03125 -1.671875 -6.640625q0 -4.71875 1.75 -6.796875q1.75 -2.09375 4.53125 -2.09375q1.96875 0 3.25 1.09375q1.28125 1.09375 1.625 3.1875zm-7.453125 7.171875q0 1.609375 0.734375 2.484375q0.734375 0.875 1.6875 0.875q0.90625 0 1.515625 -0.71875q0.609375 -0.71875 0.609375 -2.34375q0 -1.671875 -0.65625 -2.453125q-0.65625 -0.78125 -1.640625 -0.78125q-0.9375 0 -1.59375 0.75q-0.65625 0.734375 -0.65625 2.1875z" fill-rule="nonzero"/><path fill="#000000" d="m622.6948 162.01315l0 -3.0625l11.265625 0l0 2.390625q-1.390625 1.375 -2.84375 3.953125q-1.4375 2.5625 -2.1875 5.453125q-0.75 2.875 -0.75 5.15625l-3.171875 0q0.078125 -3.5625 1.46875 -7.265625q1.390625 -3.703125 3.71875 -6.625l-7.5 0z" fill-rule="nonzero"/><path fill="#000000" d="m684.4022 166.63815q-1.28125 -0.546875 -1.859375 -1.484375q-0.578125 -0.953125 -0.578125 -2.078125q0 -1.921875 1.34375 -3.171875q1.34375 -1.25 3.8125 -1.25q2.453125 0 3.796875 1.25q1.359375 1.25 1.359375 3.171875q0 1.203125 -0.625 2.140625q-0.609375 0.921875 -1.734375 1.421875q1.421875 0.5625 2.15625 1.671875q0.75 1.09375 0.75 2.546875q0 2.375 -1.515625 3.875q-1.515625 1.484375 -4.03125 1.484375q-2.34375 0 -3.90625 -1.234375q-1.84375 -1.453125 -1.84375 -3.984375q0 -1.40625 0.6875 -2.5625q0.703125 -1.171875 2.1875 -1.796875zm0.6875 -3.328125q0 0.984375 0.546875 1.546875q0.5625 0.546875 1.484375 0.546875q0.9375 0 1.5 -0.546875q0.5625 -0.5625 0.5625 -1.546875q0 -0.9375 -0.5625 -1.484375q-0.546875 -0.5625 -1.46875 -0.5625q-0.9375 0 -1.5 0.5625q-0.5625 0.5625 -0.5625 1.484375zm-0.3125 7.359375q0 1.359375 0.6875 2.125q0.703125 0.765625 1.75 0.765625q1.015625 0 1.6875 -0.734375q0.671875 -0.734375 0.671875 -2.109375q0 -1.21875 -0.6875 -1.9375q-0.671875 -0.734375 -1.71875 -0.734375q-1.203125 0 -1.796875 0.828125q-0.59375 0.828125 -0.59375 1.796875z" fill-rule="nonzero"/><path fill="#000000" d="m740.5315 171.93503l3.1875 -0.359375q0.109375 0.96875 0.59375 1.4375q0.5 0.46875 1.3125 0.46875q1.015625 0 1.734375 -0.9375q0.71875 -0.9375 0.921875 -3.890625q-1.25 1.453125 -3.109375 1.453125q-2.03125 0 -3.5 -1.5625q-1.46875 -1.578125 -1.46875 -4.078125q0 -2.609375 1.546875 -4.203125q1.5625 -1.609375 3.953125 -1.609375q2.625 0 4.296875 2.03125q1.671875 2.015625 1.671875 6.640625q0 4.703125 -1.75 6.796875q-1.734375 2.09375 -4.546875 2.09375q-2.015625 0 -3.265625 -1.078125q-1.234375 -1.078125 -1.578125 -3.203125zm7.453125 -7.203125q0 -1.59375 -0.734375 -2.46875q-0.734375 -0.875 -1.6875 -0.875q-0.921875 0 -1.53125 0.71875q-0.59375 0.71875 -0.59375 2.359375q0 1.65625 0.65625 2.4375q0.65625 0.78125 1.640625 0.78125q0.953125 0 1.59375 -0.75q0.65625 -0.75 0.65625 -2.203125z" fill-rule="nonzero"/><path fill="#000000" d="m801.09625 175.90378l-3.296875 0l0 -12.40625q-1.8125 1.6875 -4.25 2.484375l0 -2.984375q1.28125 -0.421875 2.796875 -1.59375q1.515625 -1.1875 2.078125 -2.75l2.671875 0l0 17.25zm10.488281 -17.25q2.484375 0 3.890625 1.78125q1.6875 2.109375 1.6875 7.0q0 4.875 -1.6875 7.0q-1.40625 1.765625 -3.890625 1.765625q-2.515625 0 -4.046875 -1.921875q-1.53125 -1.9375 -1.53125 -6.890625q0 -4.84375 1.6875 -6.984375q1.390625 -1.75 3.890625 -1.75zm0 2.734375q-0.609375 0 -1.078125 0.375q-0.46875 0.375 -0.71875 1.359375q-0.34375 1.28125 -0.34375 4.3125q0 3.015625 0.296875 4.15625q0.3125 1.125 0.765625 1.5q0.46875 0.375 1.078125 0.375q0.59375 0 1.0625 -0.375q0.46875 -0.390625 0.71875 -1.375q0.34375 -1.265625 0.34375 -4.28125q0 -3.03125 -0.3125 -4.15625q-0.296875 -1.140625 -0.765625 -1.515625q-0.453125 -0.375 -1.046875 -0.375z" fill-rule="nonzero"/><path fill="#000000" d="m860.63763 175.90378l-3.296875 0l0 -12.40625q-1.8125 1.6875 -4.25 2.484375l0 -2.984375q1.28125 -0.421875 2.796875 -1.59375q1.515625 -1.1875 2.078125 -2.75l2.671875 0l0 17.25zm12.0234375 0l-3.296875 0l0 -12.40625q-1.8125 1.6875 -4.25 2.484375l0 -2.984375q1.28125 -0.421875 2.796875 -1.59375q1.515625 -1.1875 2.078125 -2.75l2.671875 0l0 17.25z" fill-rule="nonzero"/><path fill="#000000" d="m126.64302 211.83488q2.484375 0 3.890625 1.78125q1.6875 2.109375 1.6875 7.0q0 4.875 -1.6875 7.0q-1.40625 1.765625 -3.890625 1.765625q-2.515625 0 -4.046875 -1.921875q-1.53125 -1.9375 -1.53125 -6.890625q0 -4.84375 1.6875 -6.984375q1.390625 -1.75 3.890625 -1.75zm0 2.734375q-0.609375 0 -1.078125 0.375q-0.46875 0.375 -0.71875 1.359375q-0.34375 1.28125 -0.34375 4.3125q0 3.015625 0.296875 4.15625q0.3125 1.125 0.765625 1.5q0.46875 0.375 1.078125 0.375q0.59375 0 1.0625 -0.375q0.46875 -0.390625 0.71875 -1.375q0.34375 -1.265625 0.34375 -4.28125q0 -3.03125 -0.3125 -4.15625q-0.296875 -1.140625 -0.765625 -1.515625q-0.453125 -0.375 -1.046875 -0.375z" fill-rule="nonzero"/><path fill="#000000" d="m210.52434 220.61613q0 -3.046875 0.625 -4.90625q0.625 -1.859375 1.859375 -2.859375q1.234375 -1.015625 3.109375 -1.015625q1.390625 0 2.421875 0.5625q1.046875 0.546875 1.71875 1.59375q0.6875 1.046875 1.078125 2.5625q0.390625 1.5 0.390625 4.0625q0 3.015625 -0.625 4.875q-0.625 1.859375 -1.859375 2.875q-1.234375 1.015625 -3.125 1.015625q-2.484375 0 -3.890625 -1.78125q-1.703125 -2.15625 -1.703125 -6.984375zm2.171875 0q0 4.21875 0.984375 5.625q0.984375 1.40625 2.4375 1.40625q1.453125 0 2.4375 -1.40625q1.0 -1.40625 1.0 -5.625q0 -4.25 -1.0 -5.640625q-0.984375 -1.390625 -2.453125 -1.390625q-1.453125 0 -2.328125 1.21875q-1.078125 1.578125 -1.078125 5.8125z" fill-rule="nonzero"/><path fill="#000000" d="m277.3411 229.08488l-2.109375 0l0 -13.4375q-0.75 0.71875 -2.0 1.453125q-1.234375 0.71875 -2.21875 1.078125l0 -2.03125q1.78125 -0.828125 3.09375 -2.015625q1.328125 -1.1875 1.875 -2.296875l1.359375 0l0 17.25z" fill-rule="nonzero"/><path fill="#000000" d="m339.361 227.05363l0 2.03125l-11.34375 0q-0.03125 -0.765625 0.234375 -1.46875q0.4375 -1.15625 1.390625 -2.28125q0.953125 -1.125 2.765625 -2.609375q2.796875 -2.296875 3.78125 -3.625q0.984375 -1.34375 0.984375 -2.546875q0 -1.25 -0.90625 -2.109375q-0.890625 -0.859375 -2.328125 -0.859375q-1.515625 0 -2.4375 0.921875q-0.90625 0.90625 -0.921875 2.515625l-2.171875 -0.21875q0.21875 -2.421875 1.671875 -3.6875q1.453125 -1.28125 3.90625 -1.28125q2.46875 0 3.90625 1.375q1.453125 1.359375 1.453125 3.390625q0 1.03125 -0.421875 2.03125q-0.421875 1.0 -1.40625 2.109375q-0.96875 1.09375 -3.25 3.015625q-1.890625 1.59375 -2.4375 2.15625q-0.53125 0.5625 -0.890625 1.140625l8.421875 0z" fill-rule="nonzero"/><path fill="#000000" d="m387.17776 224.55363l2.109375 -0.28125q0.359375 1.78125 1.234375 2.578125q0.875 0.796875 2.125 0.796875q1.484375 0 2.5 -1.03125q1.03125 -1.03125 1.03125 -2.5625q0 -1.453125 -0.953125 -2.390625q-0.9375 -0.953125 -2.40625 -0.953125q-0.59375 0 -1.484375 0.234375l0.234375 -1.84375q0.203125 0.015625 0.34375 0.015625q1.34375 0 2.421875 -0.703125q1.078125 -0.703125 1.078125 -2.15625q0 -1.171875 -0.796875 -1.921875q-0.78125 -0.765625 -2.015625 -0.765625q-1.234375 0 -2.0625 0.78125q-0.8125 0.765625 -1.046875 2.3125l-2.109375 -0.375q0.390625 -2.125 1.75 -3.28125q1.375 -1.171875 3.421875 -1.171875q1.40625 0 2.578125 0.609375q1.1875 0.59375 1.8125 1.640625q0.640625 1.046875 0.640625 2.21875q0 1.109375 -0.609375 2.03125q-0.59375 0.90625 -1.765625 1.4375q1.53125 0.359375 2.375 1.46875q0.84375 1.109375 0.84375 2.765625q0 2.25 -1.640625 3.828125q-1.640625 1.5625 -4.15625 1.5625q-2.265625 0 -3.765625 -1.34375q-1.484375 -1.359375 -1.6875 -3.5z" fill-rule="nonzero"/><path fill="#000000" d="m452.807 229.08488l0 -4.109375l-7.453125 0l0 -1.9375l7.828125 -11.140625l1.734375 0l0 11.140625l2.3125 0l0 1.9375l-2.3125 0l0 4.109375l-2.109375 0zm0 -6.046875l0 -7.75l-5.390625 7.75l5.390625 0z" fill-rule="nonzero"/><path fill="#000000" d="m504.92065 224.58488l2.21875 -0.1875q0.234375 1.609375 1.125 2.4375q0.90625 0.8125 2.171875 0.8125q1.53125 0 2.578125 -1.140625q1.0625 -1.15625 1.0625 -3.0625q0 -1.796875 -1.015625 -2.84375q-1.015625 -1.046875 -2.65625 -1.046875q-1.015625 0 -1.84375 0.46875q-0.8125 0.453125 -1.28125 1.203125l-1.984375 -0.265625l1.65625 -8.828125l8.546875 0l0 2.015625l-6.859375 0l-0.921875 4.625q1.546875 -1.078125 3.25 -1.078125q2.25 0 3.796875 1.5625q1.546875 1.546875 1.546875 4.0q0 2.328125 -1.359375 4.03125q-1.65625 2.09375 -4.515625 2.09375q-2.34375 0 -3.828125 -1.3125q-1.484375 -1.3125 -1.6875 -3.484375z" fill-rule="nonzero"/><path fill="#000000" d="m574.7374 216.11613l-2.09375 0.15625q-0.28125 -1.234375 -0.796875 -1.796875q-0.859375 -0.90625 -2.109375 -0.90625q-1.0 0 -1.765625 0.5625q-1.0 0.71875 -1.578125 2.125q-0.5625 1.390625 -0.59375 3.96875q0.765625 -1.15625 1.859375 -1.71875q1.109375 -0.5625 2.3125 -0.5625q2.109375 0 3.59375 1.546875q1.484375 1.546875 1.484375 4.015625q0 1.609375 -0.703125 3.0q-0.6875 1.390625 -1.90625 2.140625q-1.21875 0.734375 -2.765625 0.734375q-2.640625 0 -4.3125 -1.9375q-1.65625 -1.953125 -1.65625 -6.40625q0 -4.96875 1.84375 -7.234375q1.59375 -1.96875 4.3125 -1.96875q2.03125 0 3.328125 1.140625q1.296875 1.125 1.546875 3.140625zm-8.609375 7.40625q0 1.078125 0.453125 2.078125q0.46875 1.0 1.296875 1.53125q0.84375 0.515625 1.75 0.515625q1.34375 0 2.296875 -1.078125q0.96875 -1.078125 0.96875 -2.9375q0 -1.78125 -0.953125 -2.796875q-0.953125 -1.03125 -2.390625 -1.03125q-1.421875 0 -2.421875 1.03125q-1.0 1.015625 -1.0 2.6875z" fill-rule="nonzero"/><path fill="#000000" d="m622.8198 214.14738l0 -2.015625l11.125 0l0 1.640625q-1.640625 1.734375 -3.265625 4.640625q-1.609375 2.890625 -2.484375 5.953125q-0.625 2.15625 -0.8125 4.71875l-2.15625 0q0.03125 -2.03125 0.78125 -4.890625q0.765625 -2.875 2.1875 -5.546875q1.4375 -2.671875 3.03125 -4.5l-8.40625 0z" fill-rule="nonzero"/><path fill="#000000" d="m684.8085 219.77238q-1.3125 -0.484375 -1.953125 -1.375q-0.625 -0.890625 -0.625 -2.140625q0 -1.875 1.34375 -3.140625q1.34375 -1.28125 3.578125 -1.28125q2.25 0 3.625 1.3125q1.375 1.296875 1.375 3.171875q0 1.203125 -0.625 2.09375q-0.625 0.875 -1.90625 1.359375q1.578125 0.515625 2.40625 1.671875q0.828125 1.140625 0.828125 2.734375q0 2.203125 -1.5625 3.703125q-1.5625 1.5 -4.09375 1.5q-2.546875 0 -4.109375 -1.5q-1.5625 -1.515625 -1.5625 -3.765625q0 -1.671875 0.84375 -2.796875q0.859375 -1.140625 2.4375 -1.546875zm-0.421875 -3.578125q0 1.21875 0.78125 2.0q0.78125 0.765625 2.03125 0.765625q1.21875 0 2.0 -0.765625q0.78125 -0.765625 0.78125 -1.890625q0 -1.15625 -0.8125 -1.9375q-0.796875 -0.796875 -1.984375 -0.796875q-1.203125 0 -2.0 0.78125q-0.796875 0.765625 -0.796875 1.84375zm-0.6875 7.9375q0 0.890625 0.421875 1.734375q0.4375 0.84375 1.28125 1.3125q0.84375 0.46875 1.8125 0.46875q1.515625 0 2.5 -0.96875q0.984375 -0.984375 0.984375 -2.484375q0 -1.515625 -1.015625 -2.515625q-1.015625 -1.0 -2.53125 -1.0q-1.5 0 -2.484375 0.984375q-0.96875 0.984375 -0.96875 2.46875z" fill-rule="nonzero"/><path fill="#000000" d="m740.75024 225.11613l2.03125 -0.1875q0.25 1.421875 0.96875 2.078125q0.734375 0.640625 1.875 0.640625q0.96875 0 1.703125 -0.4375q0.734375 -0.453125 1.203125 -1.203125q0.46875 -0.75 0.78125 -2.015625q0.328125 -1.265625 0.328125 -2.578125q0 -0.140625 -0.015625 -0.421875q-0.640625 1.015625 -1.734375 1.640625q-1.09375 0.625 -2.375 0.625q-2.125 0 -3.609375 -1.546875q-1.46875 -1.546875 -1.46875 -4.078125q0 -2.609375 1.53125 -4.203125q1.546875 -1.59375 3.875 -1.59375q1.671875 0 3.0625 0.90625q1.390625 0.890625 2.109375 2.5625q0.71875 1.671875 0.71875 4.84375q0 3.28125 -0.71875 5.234375q-0.71875 1.953125 -2.125 2.984375q-1.40625 1.015625 -3.3125 1.015625q-2.015625 0 -3.296875 -1.125q-1.265625 -1.125 -1.53125 -3.140625zm8.640625 -7.59375q0 -1.8125 -0.96875 -2.875q-0.96875 -1.0625 -2.328125 -1.0625q-1.40625 0 -2.453125 1.15625q-1.03125 1.140625 -1.03125 2.96875q0 1.640625 0.984375 2.671875q0.984375 1.015625 2.4375 1.015625q1.46875 0 2.40625 -1.015625q0.953125 -1.03125 0.953125 -2.859375z" fill-rule="nonzero"/><path fill="#000000" d="m800.5806 229.08488l-2.109375 0l0 -13.4375q-0.75 0.71875 -2.0 1.453125q-1.234375 0.71875 -2.21875 1.078125l0 -2.03125q1.78125 -0.828125 3.09375 -2.015625q1.328125 -1.1875 1.875 -2.296875l1.359375 0l0 17.25zm5.4101562 -8.46875q0 -3.046875 0.625 -4.90625q0.625 -1.859375 1.859375 -2.859375q1.234375 -1.015625 3.109375 -1.015625q1.390625 0 2.421875 0.5625q1.046875 0.546875 1.71875 1.59375q0.6875 1.046875 1.078125 2.5625q0.390625 1.5 0.390625 4.0625q0 3.015625 -0.625 4.875q-0.625 1.859375 -1.859375 2.875q-1.234375 1.015625 -3.125 1.015625q-2.484375 0 -3.890625 -1.78125q-1.703125 -2.15625 -1.703125 -6.984375zm2.171875 0q0 4.21875 0.984375 5.625q0.984375 1.40625 2.4375 1.40625q1.453125 0 2.4375 -1.40625q1.0 -1.40625 1.0 -5.625q0 -4.25 -1.0 -5.640625q-0.984375 -1.390625 -2.453125 -1.390625q-1.453125 0 -2.328125 1.21875q-1.078125 1.578125 -1.078125 5.8125z" fill-rule="nonzero"/><path fill="#000000" d="m860.3505 229.08488l-2.109375 0l0 -13.4375q-0.75 0.71875 -2.0 1.453125q-1.234375 0.71875 -2.21875 1.078125l0 -2.03125q1.78125 -0.828125 3.09375 -2.015625q1.328125 -1.1875 1.875 -2.296875l1.359375 0l0 17.25zm11.566406 0l-2.109375 0l0 -13.4375q-0.75 0.71875 -2.0 1.453125q-1.234375 0.71875 -2.21875 1.078125l0 -2.03125q1.78125 -0.828125 3.09375 -2.015625q1.328125 -1.1875 1.875 -2.296875l1.359375 0l0 17.25z" fill-rule="nonzero"/><path fill="#000000" d="m129.5024 282.266l-3.296875 0l0 -12.40625q-1.8125 1.6875 -4.25 2.484375l0 -2.984375q1.28125 -0.421875 2.796875 -1.59375q1.515625 -1.1875 2.078125 -2.75l2.671875 0l0 17.25z" fill-rule="nonzero"/><path fill="#000000" d="m211.78801 282.266l-2.109375 0l0 -13.4375q-0.75 0.71875 -2.0 1.453125q-1.234375 0.71875 -2.21875 1.078125l0 -2.03125q1.78125 -0.828125 3.09375 -2.015625q1.328125 -1.1875 1.875 -2.296875l1.359375 0l0 17.25zm16.488281 -2.03125l0 2.03125l-11.34375 0q-0.03125 -0.765625 0.234375 -1.46875q0.4375 -1.15625 1.390625 -2.28125q0.953125 -1.125 2.765625 -2.609375q2.796875 -2.296875 3.78125 -3.625q0.984375 -1.34375 0.984375 -2.546875q0 -1.25 -0.90625 -2.109375q-0.890625 -0.859375 -2.328125 -0.859375q-1.515625 0 -2.4375 0.921875q-0.90625 0.90625 -0.921875 2.515625l-2.171875 -0.21875q0.21875 -2.421875 1.671875 -3.6875q1.453125 -1.28125 3.90625 -1.28125q2.46875 0 3.90625 1.375q1.453125 1.359375 1.453125 3.390625q0 1.03125 -0.421875 2.03125q-0.421875 1.0 -1.40625 2.109375q-0.96875 1.09375 -3.25 3.015625q-1.890625 1.59375 -2.4375 2.15625q-0.53125 0.5625 -0.890625 1.140625l8.421875 0z" fill-rule="nonzero"/><path fill="#000000" d="m270.66727 282.266l-2.109375 0l0 -13.4375q-0.75 0.71875 -2.0 1.453125q-1.234375 0.71875 -2.21875 1.078125l0 -2.03125q1.78125 -0.828125 3.09375 -2.015625q1.328125 -1.1875 1.875 -2.296875l1.359375 0l0 17.25zm5.4257812 -4.53125l2.109375 -0.28125q0.359375 1.78125 1.234375 2.578125q0.875 0.796875 2.125 0.796875q1.484375 0 2.5 -1.03125q1.03125 -1.03125 1.03125 -2.5625q0 -1.453125 -0.953125 -2.390625q-0.9375 -0.953125 -2.40625 -0.953125q-0.59375 0 -1.484375 0.234375l0.234375 -1.84375q0.203125 0.015625 0.34375 0.015625q1.34375 0 2.421875 -0.703125q1.078125 -0.703125 1.078125 -2.15625q0 -1.171875 -0.796875 -1.921875q-0.78125 -0.765625 -2.015625 -0.765625q-1.234375 0 -2.0625 0.78125q-0.8125 0.765625 -1.046875 2.3125l-2.109375 -0.375q0.390625 -2.125 1.75 -3.28125q1.375 -1.171875 3.421875 -1.171875q1.40625 0 2.578125 0.609375q1.1875 0.59375 1.8125 1.640625q0.640625 1.046875 0.640625 2.21875q0 1.109375 -0.609375 2.03125q-0.59375 0.90625 -1.765625 1.4375q1.53125 0.359375 2.375 1.46875q0.84375 1.109375 0.84375 2.765625q0 2.25 -1.640625 3.828125q-1.640625 1.5625 -4.15625 1.5625q-2.265625 0 -3.765625 -1.34375q-1.484375 -1.359375 -1.6875 -3.5z" fill-rule="nonzero"/><path fill="#000000" d="m560.2706 282.266l0 -2.40625l2.40625 0l0 2.40625l-2.40625 0zm8.015625 0l0 -2.40625l2.390625 0l0 2.40625l-2.390625 0zm7.984375 0l0 -2.40625l2.421875 0l0 2.40625l-2.421875 0z" fill-rule="nonzero"/><path fill="#000000" d="m862.6005 280.23474l0 2.03125l-11.34375 0q-0.03125 -0.765625 0.234375 -1.46875q0.4375 -1.15625 1.390625 -2.28125q0.953125 -1.125 2.765625 -2.609375q2.796875 -2.296875 3.78125 -3.625q0.984375 -1.34375 0.984375 -2.546875q0 -1.25 -0.90625 -2.109375q-0.890625 -0.859375 -2.328125 -0.859375q-1.515625 0 -2.4375 0.921875q-0.90625 0.90625 -0.921875 2.515625l-2.171875 -0.21875q0.21875 -2.421875 1.671875 -3.6875q1.453125 -1.28125 3.90625 -1.28125q2.46875 0 3.90625 1.375q1.453125 1.359375 1.453125 3.390625q0 1.03125 -0.421875 2.03125q-0.421875 1.0 -1.40625 2.109375q-0.96875 1.09375 -3.25 3.015625q-1.890625 1.59375 -2.4375 2.15625q-0.53125 0.5625 -0.890625 1.140625l8.421875 0zm2.2851562 -2.5l2.109375 -0.28125q0.359375 1.78125 1.234375 2.578125q0.875 0.796875 2.125 0.796875q1.484375 0 2.5 -1.03125q1.03125 -1.03125 1.03125 -2.5625q0 -1.453125 -0.953125 -2.390625q-0.9375 -0.953125 -2.40625 -0.953125q-0.59375 0 -1.484375 0.234375l0.234375 -1.84375q0.203125 0.015625 0.34375 0.015625q1.34375 0 2.421875 -0.703125q1.078125 -0.703125 1.078125 -2.15625q0 -1.171875 -0.796875 -1.921875q-0.78125 -0.765625 -2.015625 -0.765625q-1.234375 0 -2.0625 0.78125q-0.8125 0.765625 -1.046875 2.3125l-2.109375 -0.375q0.390625 -2.125 1.75 -3.28125q1.375 -1.171875 3.421875 -1.171875q1.40625 0 2.578125 0.609375q1.1875 0.59375 1.8125 1.640625q0.640625 1.046875 0.640625 2.21875q0 1.109375 -0.609375 2.03125q-0.59375 0.90625 -1.765625 1.4375q1.53125 0.359375 2.375 1.46875q0.84375 1.109375 0.84375 2.765625q0 2.25 -1.640625 3.828125q-1.640625 1.5625 -4.15625 1.5625q-2.265625 0 -3.765625 -1.34375q-1.484375 -1.359375 -1.6875 -3.5z" fill-rule="nonzero"/><path fill="#000000" d="m132.1899 332.38458l0 3.0625l-11.546875 0q0.1875 -1.734375 1.125 -3.28125q0.9375 -1.5625 3.703125 -4.125q2.234375 -2.078125 2.734375 -2.8125q0.6875 -1.015625 0.6875 -2.015625q0 -1.109375 -0.59375 -1.6875q-0.59375 -0.59375 -1.640625 -0.59375q-1.03125 0 -1.640625 0.625q-0.609375 0.609375 -0.703125 2.046875l-3.28125 -0.328125q0.296875 -2.71875 1.84375 -3.890625q1.546875 -1.1875 3.859375 -1.1875q2.546875 0 4.0 1.375q1.453125 1.359375 1.453125 3.40625q0 1.15625 -0.421875 2.203125q-0.40625 1.046875 -1.3125 2.203125q-0.59375 0.765625 -2.15625 2.203125q-1.5625 1.421875 -1.984375 1.890625q-0.40625 0.46875 -0.65625 0.90625l6.53125 0z" fill-rule="nonzero"/><path fill="#000000" d="m214.92863 333.41583l0 2.03125l-11.34375 0q-0.03125 -0.765625 0.234375 -1.46875q0.4375 -1.15625 1.390625 -2.28125q0.953125 -1.125 2.765625 -2.609375q2.796875 -2.296875 3.78125 -3.625q0.984375 -1.34375 0.984375 -2.546875q0 -1.25 -0.90625 -2.109375q-0.890625 -0.859375 -2.328125 -0.859375q-1.515625 0 -2.4375 0.921875q-0.90625 0.90625 -0.921875 2.515625l-2.171875 -0.21875q0.21875 -2.421875 1.671875 -3.6875q1.453125 -1.28125 3.90625 -1.28125q2.46875 0 3.90625 1.375q1.453125 1.359375 1.453125 3.390625q0 1.03125 -0.421875 2.03125q-0.421875 1.0 -1.40625 2.109375q-0.96875 1.09375 -3.25 3.015625q-1.890625 1.59375 -2.4375 2.15625q-0.53125 0.5625 -0.890625 1.140625l8.421875 0zm9.035156 2.03125l0 -4.109375l-7.453125 0l0 -1.9375l7.828125 -11.140625l1.734375 0l0 11.140625l2.3125 0l0 1.9375l-2.3125 0l0 4.109375l-2.109375 0zm0 -6.046875l0 -7.75l-5.390625 7.75l5.390625 0z" fill-rule="nonzero"/><path fill="#000000" d="m530.831 415.21875l0 -2.40625l2.40625 0l0 2.40625l-2.40625 0zm8.015625 0l0 -2.40625l2.390625 0l0 2.40625l-2.390625 0zm7.984375 0l0 -2.40625l2.421875 0l0 2.40625l-2.421875 0z" fill-rule="nonzero"/><path fill="#000000" d="m851.538 330.91583l2.109375 -0.28125q0.359375 1.78125 1.234375 2.578125q0.875 0.796875 2.125 0.796875q1.484375 0 2.5 -1.03125q1.03125 -1.03125 1.03125 -2.5625q0 -1.453125 -0.953125 -2.390625q-0.9375 -0.953125 -2.40625 -0.953125q-0.59375 0 -1.484375 0.234375l0.234375 -1.84375q0.203125 0.015625 0.34375 0.015625q1.34375 0 2.421875 -0.703125q1.078125 -0.703125 1.078125 -2.15625q0 -1.171875 -0.796875 -1.921875q-0.78125 -0.765625 -2.015625 -0.765625q-1.234375 0 -2.0625 0.78125q-0.8125 0.765625 -1.046875 2.3125l-2.109375 -0.375q0.390625 -2.125 1.75 -3.28125q1.375 -1.171875 3.421875 -1.171875q1.40625 0 2.578125 0.609375q1.1875 0.59375 1.8125 1.640625q0.640625 1.046875 0.640625 2.21875q0 1.109375 -0.609375 2.03125q-0.59375 0.90625 -1.765625 1.4375q1.53125 0.359375 2.375 1.46875q0.84375 1.109375 0.84375 2.765625q0 2.25 -1.640625 3.828125q-1.640625 1.5625 -4.15625 1.5625q-2.265625 0 -3.765625 -1.34375q-1.484375 -1.359375 -1.6875 -3.5zm13.332031 0.03125l2.21875 -0.1875q0.234375 1.609375 1.125 2.4375q0.90625 0.8125 2.171875 0.8125q1.53125 0 2.578125 -1.140625q1.0625 -1.15625 1.0625 -3.0625q0 -1.796875 -1.015625 -2.84375q-1.015625 -1.046875 -2.65625 -1.046875q-1.015625 0 -1.84375 0.46875q-0.8125 0.453125 -1.28125 1.203125l-1.984375 -0.265625l1.65625 -8.828125l8.546875 0l0 2.015625l-6.859375 0l-0.921875 4.625q1.546875 -1.078125 3.25 -1.078125q2.25 0 3.796875 1.5625q1.546875 1.546875 1.546875 4.0q0 2.328125 -1.359375 4.03125q-1.65625 2.09375 -4.515625 2.09375q-2.34375 0 -3.828125 -1.3125q-1.484375 -1.3125 -1.6875 -3.484375z" fill-rule="nonzero"/><path fill="#000000" d="m120.95552 384.0657l3.1875 -0.390625q0.15625 1.21875 0.8125 1.875q0.671875 0.640625 1.625 0.640625q1.015625 0 1.703125 -0.765625q0.703125 -0.78125 0.703125 -2.09375q0 -1.25 -0.671875 -1.96875q-0.65625 -0.734375 -1.625 -0.734375q-0.625 0 -1.5 0.25l0.359375 -2.6875q1.328125 0.046875 2.03125 -0.5625q0.703125 -0.625 0.703125 -1.640625q0 -0.875 -0.515625 -1.390625q-0.515625 -0.515625 -1.359375 -0.515625q-0.84375 0 -1.453125 0.59375q-0.59375 0.578125 -0.71875 1.703125l-3.03125 -0.515625q0.3125 -1.5625 0.953125 -2.484375q0.640625 -0.9375 1.78125 -1.46875q1.140625 -0.53125 2.5625 -0.53125q2.421875 0 3.890625 1.546875q1.203125 1.265625 1.203125 2.859375q0 2.265625 -2.46875 3.609375q1.46875 0.3125 2.34375 1.421875q0.890625 1.09375 0.890625 2.65625q0 2.265625 -1.65625 3.859375q-1.640625 1.59375 -4.109375 1.59375q-2.328125 0 -3.859375 -1.34375q-1.53125 -1.34375 -1.78125 -3.515625z" fill-rule="nonzero"/><path fill="#000000" d="m203.86613 384.09695l2.109375 -0.28125q0.359375 1.78125 1.234375 2.578125q0.875 0.796875 2.125 0.796875q1.484375 0 2.5 -1.03125q1.03125 -1.03125 1.03125 -2.5625q0 -1.453125 -0.953125 -2.390625q-0.9375 -0.953125 -2.40625 -0.953125q-0.59375 0 -1.484375 0.234375l0.234375 -1.84375q0.203125 0.015625 0.34375 0.015625q1.34375 0 2.421875 -0.703125q1.078125 -0.703125 1.078125 -2.15625q0 -1.171875 -0.796875 -1.921875q-0.78125 -0.765625 -2.015625 -0.765625q-1.234375 0 -2.0625 0.78125q-0.8125 0.765625 -1.046875 2.3125l-2.109375 -0.375q0.390625 -2.125 1.75 -3.28125q1.375 -1.171875 3.421875 -1.171875q1.40625 0 2.578125 0.609375q1.1875 0.59375 1.8125 1.640625q0.640625 1.046875 0.640625 2.21875q0 1.109375 -0.609375 2.03125q-0.59375 0.90625 -1.765625 1.4375q1.53125 0.359375 2.375 1.46875q0.84375 1.109375 0.84375 2.765625q0 2.25 -1.640625 3.828125q-1.640625 1.5625 -4.15625 1.5625q-2.265625 0 -3.765625 -1.34375q-1.484375 -1.359375 -1.6875 -3.5zm24.269531 -8.4375l-2.09375 0.15625q-0.28125 -1.234375 -0.796875 -1.796875q-0.859375 -0.90625 -2.109375 -0.90625q-1.0 0 -1.765625 0.5625q-1.0 0.71875 -1.578125 2.125q-0.5625 1.390625 -0.59375 3.96875q0.765625 -1.15625 1.859375 -1.71875q1.109375 -0.5625 2.3125 -0.5625q2.109375 0 3.59375 1.546875q1.484375 1.546875 1.484375 4.015625q0 1.609375 -0.703125 3.0q-0.6875 1.390625 -1.90625 2.140625q-1.21875 0.734375 -2.765625 0.734375q-2.640625 0 -4.3125 -1.9375q-1.65625 -1.953125 -1.65625 -6.40625q0 -4.96875 1.84375 -7.234375q1.59375 -1.96875 4.3125 -1.96875q2.03125 0 3.328125 1.140625q1.296875 1.125 1.546875 3.140625zm-8.609375 7.40625q0 1.078125 0.453125 2.078125q0.46875 1.0 1.296875 1.53125q0.84375 0.515625 1.75 0.515625q1.34375 0 2.296875 -1.078125q0.96875 -1.078125 0.96875 -2.9375q0 -1.78125 -0.953125 -2.796875q-0.953125 -1.03125 -2.390625 -1.03125q-1.421875 0 -2.421875 1.03125q-1.0 1.015625 -1.0 2.6875z" fill-rule="nonzero"/><path fill="#000000" d="m858.288 388.6282l0 -4.109375l-7.453125 0l0 -1.9375l7.828125 -11.140625l1.734375 0l0 11.140625l2.3125 0l0 1.9375l-2.3125 0l0 4.109375l-2.109375 0zm0 -6.046875l0 -7.75l-5.390625 7.75l5.390625 0zm6.7226562 -8.890625l0 -2.015625l11.125 0l0 1.640625q-1.640625 1.734375 -3.265625 4.640625q-1.609375 2.890625 -2.484375 5.953125q-0.625 2.15625 -0.8125 4.71875l-2.15625 0q0.03125 -2.03125 0.78125 -4.890625q0.765625 -2.875 2.1875 -5.546875q1.4375 -2.671875 3.03125 -4.5l-8.40625 0z" fill-rule="nonzero"/><path fill="#000000" d="m127.533646 441.8093l0 -3.453125l-7.03125 0l0 -2.890625l7.453125 -10.90625l2.765625 0l0 10.890625l2.125 0l0 2.90625l-2.125 0l0 3.453125l-3.1875 0zm0 -6.359375l0 -5.859375l-3.953125 5.859375l3.953125 0z" fill-rule="nonzero"/><path fill="#000000" d="m210.61613 441.8093l0 -4.109375l-7.453125 0l0 -1.9375l7.828125 -11.140625l1.734375 0l0 11.140625l2.3125 0l0 1.9375l-2.3125 0l0 4.109375l-2.109375 0zm0 -6.046875l0 -7.75l-5.390625 7.75l5.390625 0zm9.832031 -3.265625q-1.3125 -0.484375 -1.953125 -1.375q-0.625 -0.890625 -0.625 -2.140625q0 -1.875 1.34375 -3.140625q1.34375 -1.28125 3.578125 -1.28125q2.25 0 3.625 1.3125q1.375 1.296875 1.375 3.171875q0 1.203125 -0.625 2.09375q-0.625 0.875 -1.90625 1.359375q1.578125 0.515625 2.40625 1.671875q0.828125 1.140625 0.828125 2.734375q0 2.203125 -1.5625 3.703125q-1.5625 1.5 -4.09375 1.5q-2.546875 0 -4.109375 -1.5q-1.5625 -1.515625 -1.5625 -3.765625q0 -1.671875 0.84375 -2.796875q0.859375 -1.140625 2.4375 -1.546875zm-0.421875 -3.578125q0 1.21875 0.78125 2.0q0.78125 0.765625 2.03125 0.765625q1.21875 0 2.0 -0.765625q0.78125 -0.765625 0.78125 -1.890625q0 -1.15625 -0.8125 -1.9375q-0.796875 -0.796875 -1.984375 -0.796875q-1.203125 0 -2.0 0.78125q-0.796875 0.765625 -0.796875 1.84375zm-0.6875 7.9375q0 0.890625 0.421875 1.734375q0.4375 0.84375 1.28125 1.3125q0.84375 0.46875 1.8125 0.46875q1.515625 0 2.5 -0.96875q0.984375 -0.984375 0.984375 -2.484375q0 -1.515625 -1.015625 -2.515625q-1.015625 -1.0 -2.53125 -1.0q-1.5 0 -2.484375 0.984375q-0.96875 0.984375 -0.96875 2.46875z" fill-rule="nonzero"/><path fill="#000000" d="m851.5224 437.3093l2.21875 -0.1875q0.234375 1.609375 1.125 2.4375q0.90625 0.8125 2.171875 0.8125q1.53125 0 2.578125 -1.140625q1.0625 -1.15625 1.0625 -3.0625q0 -1.796875 -1.015625 -2.84375q-1.015625 -1.046875 -2.65625 -1.046875q-1.015625 0 -1.84375 0.46875q-0.8125 0.453125 -1.28125 1.203125l-1.984375 -0.265625l1.65625 -8.828125l8.546875 0l0 2.015625l-6.859375 0l-0.921875 4.625q1.546875 -1.078125 3.25 -1.078125q2.25 0 3.796875 1.5625q1.546875 1.546875 1.546875 4.0q0 2.328125 -1.359375 4.03125q-1.65625 2.09375 -4.515625 2.09375q-2.34375 0 -3.828125 -1.3125q-1.484375 -1.3125 -1.6875 -3.484375zm13.660156 0.53125l2.03125 -0.1875q0.25 1.421875 0.96875 2.078125q0.734375 0.640625 1.875 0.640625q0.96875 0 1.703125 -0.4375q0.734375 -0.453125 1.203125 -1.203125q0.46875 -0.75 0.78125 -2.015625q0.328125 -1.265625 0.328125 -2.578125q0 -0.140625 -0.015625 -0.421875q-0.640625 1.015625 -1.734375 1.640625q-1.09375 0.625 -2.375 0.625q-2.125 0 -3.609375 -1.546875q-1.46875 -1.546875 -1.46875 -4.078125q0 -2.609375 1.53125 -4.203125q1.546875 -1.59375 3.875 -1.59375q1.671875 0 3.0625 0.90625q1.390625 0.890625 2.109375 2.5625q0.71875 1.671875 0.71875 4.84375q0 3.28125 -0.71875 5.234375q-0.71875 1.953125 -2.125 2.984375q-1.40625 1.015625 -3.3125 1.015625q-2.015625 0 -3.296875 -1.125q-1.265625 -1.125 -1.53125 -3.140625zm8.640625 -7.59375q0 -1.8125 -0.96875 -2.875q-0.96875 -1.0625 -2.328125 -1.0625q-1.40625 0 -2.453125 1.15625q-1.03125 1.140625 -1.03125 2.96875q0 1.640625 0.984375 2.671875q0.984375 1.015625 2.4375 1.015625q1.46875 0 2.40625 -1.015625q0.953125 -1.03125 0.953125 -2.859375z" fill-rule="nonzero"/><path fill="#000000" d="m121.11177 490.5685l3.28125 -0.34375q0.140625 1.125 0.828125 1.78125q0.703125 0.640625 1.609375 0.640625q1.03125 0 1.734375 -0.828125q0.71875 -0.84375 0.71875 -2.53125q0 -1.59375 -0.71875 -2.375q-0.703125 -0.796875 -1.828125 -0.796875q-1.421875 0 -2.546875 1.25l-2.671875 -0.375l1.6875 -8.953125l8.703125 0l0 3.09375l-6.203125 0l-0.515625 2.90625q1.09375 -0.546875 2.25 -0.546875q2.1875 0 3.703125 1.59375q1.53125 1.59375 1.53125 4.140625q0 2.125 -1.234375 3.78125q-1.671875 2.28125 -4.65625 2.28125q-2.375 0 -3.875 -1.28125q-1.5 -1.28125 -1.796875 -3.4375z" fill-rule="nonzero"/><path fill="#000000" d="m214.78801 482.02164l-2.09375 0.15625q-0.28125 -1.234375 -0.796875 -1.796875q-0.859375 -0.90625 -2.109375 -0.90625q-1.0 0 -1.765625 0.5625q-1.0 0.71875 -1.578125 2.125q-0.5625 1.390625 -0.59375 3.96875q0.765625 -1.15625 1.859375 -1.71875q1.109375 -0.5625 2.3125 -0.5625q2.109375 0 3.59375 1.546875q1.484375 1.546875 1.484375 4.015625q0 1.609375 -0.703125 3.0q-0.6875 1.390625 -1.90625 2.140625q-1.21875 0.734375 -2.765625 0.734375q-2.640625 0 -4.3125 -1.9375q-1.65625 -1.953125 -1.65625 -6.40625q0 -4.96875 1.84375 -7.234375q1.59375 -1.96875 4.3125 -1.96875q2.03125 0 3.328125 1.140625q1.296875 1.125 1.546875 3.140625zm-8.609375 7.40625q0 1.078125 0.453125 2.078125q0.46875 1.0 1.296875 1.53125q0.84375 0.515625 1.75 0.515625q1.34375 0 2.296875 -1.078125q0.96875 -1.078125 0.96875 -2.9375q0 -1.78125 -0.953125 -2.796875q-0.953125 -1.03125 -2.390625 -1.03125q-1.421875 0 -2.421875 1.03125q-1.0 1.015625 -1.0 2.6875zm11.019531 -2.90625q0 -3.046875 0.625 -4.90625q0.625 -1.859375 1.859375 -2.859375q1.234375 -1.015625 3.109375 -1.015625q1.390625 0 2.421875 0.5625q1.046875 0.546875 1.71875 1.59375q0.6875 1.046875 1.078125 2.5625q0.390625 1.5 0.390625 4.0625q0 3.015625 -0.625 4.875q-0.625 1.859375 -1.859375 2.875q-1.234375 1.015625 -3.125 1.015625q-2.484375 0 -3.890625 -1.78125q-1.703125 -2.15625 -1.703125 -6.984375zm2.171875 0q0 4.21875 0.984375 5.625q0.984375 1.40625 2.4375 1.40625q1.453125 0 2.4375 -1.40625q1.0 -1.40625 1.0 -5.625q0 -4.25 -1.0 -5.640625q-0.984375 -1.390625 -2.453125 -1.390625q-1.453125 0 -2.328125 1.21875q-1.078125 1.578125 -1.078125 5.8125z" fill-rule="nonzero"/><path fill="#ff0000" d="m851.538 481.09976l0 -3.0625l11.265625 0l0 2.390625q-1.390625 1.375 -2.84375 3.953125q-1.4375 2.5625 -2.1875 5.453125q-0.75 2.875 -0.75 5.15625l-3.171875 0q0.078125 -3.5625 1.46875 -7.265625q1.390625 -3.703125 3.71875 -6.625l-7.5 0zm21.785156 13.890625l-3.296875 0l0 -12.40625q-1.8125 1.6875 -4.25 2.484375l0 -2.984375q1.28125 -0.421875 2.796875 -1.59375q1.515625 -1.1875 2.078125 -2.75l2.671875 0l0 17.25z" fill-rule="nonzero"/></g></svg>