<svg version="1.1" viewBox="0.0 0.0 960.0 540.0" fill="none" stroke="none" stroke-linecap="square" stroke-miterlimit="10" xmlns:xlink="http://www.w3.org/1999/xlink" xmlns="http://www.w3.org/2000/svg"><clipPath id="g16b114a21ed_0_0.0"><path d="m0 0l960.0 0l0 540.0l-960.0 0l0 -540.0z" clip-rule="nonzero"/></clipPath><g clip-path="url(#g16b114a21ed_0_0.0)"><path fill="#ffffff" d="m0 0l960.0 0l0 540.0l-960.0 0z" fill-rule="evenodd"/><path fill="#00ff00" d="m676.6247 98.685036l116.09448 0l0 37.228355l-116.09448 0z" fill-rule="evenodd"/><path stroke="#595959" stroke-width="1.0" stroke-linejoin="round" stroke-linecap="butt" d="m676.6247 98.685036l116.09448 0l0 37.228355l-116.09448 0z" fill-rule="evenodd"/><path fill="#000000" d="m692.5778 124.21921l-1.640625 0l0 -10.453125q-0.59375 0.5625 -1.5625 1.140625q-0.953125 0.5625 -1.71875 0.84375l0 -1.59375q1.375 -0.640625 2.40625 -1.5625q1.03125 -0.921875 1.453125 -1.78125l1.0625 0l0 13.40625z" fill-rule="nonzero"/><path fill="#00ff00" d="m692.6247 214.35957l116.09448 0l0 37.228348l-116.09448 0z" fill-rule="evenodd"/><path stroke="#595959" stroke-width="1.0" stroke-linejoin="round" stroke-linecap="butt" d="m692.6247 214.35957l116.09448 0l0 37.228348l-116.09448 0z" fill-rule="evenodd"/><path fill="#000000" d="m711.0153 238.31563l0 1.578125l-8.828125 0q-0.015625 -0.59375 0.1875 -1.140625q0.34375 -0.90625 1.078125 -1.78125q0.75 -0.875 2.15625 -2.015625q2.171875 -1.78125 2.9375 -2.828125q0.765625 -1.046875 0.765625 -1.96875q0 -0.984375 -0.703125 -1.640625q-0.6875 -0.671875 -1.8125 -0.671875q-1.1875 0 -1.90625 0.71875q-0.703125 0.703125 -0.703125 1.953125l-1.6875 -0.171875q0.171875 -1.890625 1.296875 -2.875q1.140625 -0.984375 3.03125 -0.984375q1.921875 0 3.046875 1.0625q1.125 1.0625 1.125 2.640625q0 0.796875 -0.328125 1.578125q-0.328125 0.78125 -1.09375 1.640625q-0.75 0.84375 -2.53125 2.34375q-1.46875 1.234375 -1.890625 1.6875q-0.421875 0.4375 -0.6875 0.875l6.546875 0z" fill-rule="nonzero"/><path fill="#00ff00" d="m749.1522 330.03412l116.09448 0l0 37.228363l-116.09448 0z" fill-rule="evenodd"/><path stroke="#595959" stroke-width="1.0" stroke-linejoin="round" stroke-linecap="butt" d="m749.1522 330.03412l116.09448 0l0 37.228363l-116.09448 0z" fill-rule="evenodd"/><path fill="#000000" d="m758.9335 352.03705l1.640625 -0.21875q0.28125 1.40625 0.953125 2.015625q0.6875 0.609375 1.65625 0.609375q1.15625 0 1.953125 -0.796875q0.796875 -0.796875 0.796875 -1.984375q0 -1.125 -0.734375 -1.859375q-0.734375 -0.734375 -1.875 -0.734375q-0.46875 0 -1.15625 0.171875l0.1875 -1.4375q0.15625 0.015625 0.265625 0.015625q1.046875 0 1.875 -0.546875q0.84375 -0.546875 0.84375 -1.671875q0 -0.90625 -0.609375 -1.5q-0.609375 -0.59375 -1.578125 -0.59375q-0.953125 0 -1.59375 0.609375q-0.640625 0.59375 -0.8125 1.796875l-1.640625 -0.296875q0.296875 -1.640625 1.359375 -2.546875q1.0625 -0.90625 2.65625 -0.90625q1.09375 0 2.0 0.46875q0.921875 0.46875 1.40625 1.28125q0.5 0.8125 0.5 1.71875q0 0.859375 -0.46875 1.578125q-0.46875 0.703125 -1.375 1.125q1.1875 0.28125 1.84375 1.140625q0.65625 0.859375 0.65625 2.15625q0 1.734375 -1.28125 2.953125q-1.265625 1.21875 -3.21875 1.21875q-1.765625 0 -2.921875 -1.046875q-1.15625 -1.046875 -1.328125 -2.71875z" fill-rule="nonzero"/><path fill="#00ff00" d="m721.33856 445.70865l116.09448 0l0 37.228363l-116.09448 0z" fill-rule="evenodd"/><path stroke="#595959" stroke-width="1.0" stroke-linejoin="round" stroke-linecap="butt" d="m721.33856 445.70865l116.09448 0l0 37.228363l-116.09448 0z" fill-rule="evenodd"/><path fill="#000000" d="m736.3698 471.24283l0 -3.203125l-5.796875 0l0 -1.5l6.09375 -8.65625l1.34375 0l0 8.65625l1.796875 0l0 1.5l-1.796875 0l0 3.203125l-1.640625 0zm0 -4.703125l0 -6.015625l-4.1875 6.015625l4.1875 0z" fill-rule="nonzero"/><path fill="#d9ead3" d="m620.1181 330.03412l116.09448 0l0 37.228363l-116.09448 0z" fill-rule="evenodd"/><path stroke="#595959" stroke-width="1.0" stroke-linejoin="round" stroke-linecap="butt" d="m620.1181 330.03412l116.09448 0l0 37.228363l-116.09448 0z" fill-rule="evenodd"/><path fill="#000000" d="m629.89935 352.0683l1.71875 -0.140625q0.1875 1.25 0.875 1.890625q0.703125 0.625 1.6875 0.625q1.1875 0 2.0 -0.890625q0.828125 -0.890625 0.828125 -2.359375q0 -1.40625 -0.796875 -2.21875q-0.78125 -0.8125 -2.0625 -0.8125q-0.78125 0 -1.421875 0.359375q-0.640625 0.359375 -1.0 0.9375l-1.546875 -0.203125l1.296875 -6.859375l6.640625 0l0 1.5625l-5.328125 0l-0.71875 3.59375q1.203125 -0.84375 2.515625 -0.84375q1.75 0 2.953125 1.21875q1.203125 1.203125 1.203125 3.109375q0 1.8125 -1.046875 3.140625q-1.296875 1.625 -3.515625 1.625q-1.8125 0 -2.96875 -1.015625q-1.15625 -1.03125 -1.3125 -2.71875z" fill-rule="nonzero"/><path fill="#d9ead3" d="m564.6247 214.35957l116.09448 0l0 37.228348l-116.09448 0z" fill-rule="evenodd"/><path stroke="#595959" stroke-width="1.0" stroke-linejoin="round" stroke-linecap="butt" d="m564.6247 214.35957l116.09448 0l0 37.228348l-116.09448 0z" fill-rule="evenodd"/><path fill="#000000" d="m574.5153 228.28438l0 -1.578125l8.640625 0l0 1.28125q-1.28125 1.359375 -2.53125 3.609375q-1.25 2.25 -1.9375 4.625q-0.484375 1.671875 -0.625 3.671875l-1.6875 0q0.03125 -1.578125 0.625 -3.8125q0.59375 -2.234375 1.6875 -4.296875q1.109375 -2.078125 2.359375 -3.5l-6.53125 0z" fill-rule="nonzero"/><path fill="#d9ead3" d="m634.1417 445.70865l72.944885 0l0 37.228363l-72.944885 0z" fill-rule="evenodd"/><path stroke="#595959" stroke-width="1.0" stroke-linejoin="round" stroke-linecap="butt" d="m634.1417 445.70865l72.944885 0l0 37.228363l-72.944885 0z" fill-rule="evenodd"/><path fill="#000000" d="m652.423 461.1647l-1.625 0.125q-0.21875 -0.96875 -0.625 -1.40625q-0.65625 -0.703125 -1.640625 -0.703125q-0.78125 0 -1.375 0.4375q-0.765625 0.5625 -1.21875 1.65625q-0.453125 1.078125 -0.46875 3.078125q0.59375 -0.890625 1.453125 -1.328125q0.859375 -0.4375 1.796875 -0.4375q1.640625 0 2.78125 1.203125q1.15625 1.203125 1.15625 3.109375q0 1.265625 -0.546875 2.34375q-0.53125 1.078125 -1.484375 1.65625q-0.9375 0.578125 -2.140625 0.578125q-2.0625 0 -3.359375 -1.5q-1.28125 -1.515625 -1.28125 -4.984375q0 -3.875 1.421875 -5.625q1.25 -1.53125 3.375 -1.53125q1.5625 0 2.5625 0.890625q1.015625 0.875 1.21875 2.4375zm-6.6875 5.75q0 0.84375 0.359375 1.625q0.359375 0.765625 1.0 1.171875q0.640625 0.40625 1.359375 0.40625q1.03125 0 1.78125 -0.828125q0.75 -0.84375 0.75 -2.28125q0 -1.390625 -0.734375 -2.1875q-0.734375 -0.796875 -1.859375 -0.796875q-1.109375 0 -1.890625 0.796875q-0.765625 0.796875 -0.765625 2.09375z" fill-rule="nonzero"/><path fill="#d9ead3" d="m590.9921 98.685036l72.944885 0l0 37.228355l-72.944885 0z" fill-rule="evenodd"/><path stroke="#595959" stroke-width="1.0" stroke-linejoin="round" stroke-linecap="butt" d="m590.9921 98.685036l72.944885 0l0 37.228355l-72.944885 0z" fill-rule="evenodd"/><path fill="#000000" d="m603.289 116.98483q-1.015625 -0.375 -1.515625 -1.0625q-0.484375 -0.703125 -0.484375 -1.671875q0 -1.453125 1.046875 -2.4375q1.046875 -1.0 2.78125 -1.0q1.75 0 2.8125 1.015625q1.078125 1.015625 1.078125 2.46875q0 0.9375 -0.5 1.625q-0.484375 0.6875 -1.46875 1.0625q1.21875 0.390625 1.859375 1.28125q0.65625 0.890625 0.65625 2.140625q0 1.703125 -1.21875 2.875q-1.21875 1.171875 -3.1875 1.171875q-1.984375 0 -3.203125 -1.171875q-1.203125 -1.171875 -1.203125 -2.921875q0 -1.3125 0.65625 -2.1875q0.671875 -0.875 1.890625 -1.1875zm-0.328125 -2.78125q0 0.9375 0.609375 1.546875q0.609375 0.59375 1.59375 0.59375q0.9375 0 1.546875 -0.59375q0.609375 -0.59375 0.609375 -1.453125q0 -0.90625 -0.625 -1.515625q-0.625 -0.625 -1.5625 -0.625q-0.9375 0 -1.5625 0.609375q-0.609375 0.59375 -0.609375 1.4375zm-0.53125 6.15625q0 0.703125 0.328125 1.359375q0.34375 0.65625 1.0 1.015625q0.65625 0.359375 1.40625 0.359375q1.171875 0 1.9375 -0.75q0.765625 -0.75 0.765625 -1.921875q0 -1.1875 -0.796875 -1.953125q-0.78125 -0.78125 -1.953125 -0.78125q-1.15625 0 -1.921875 0.765625q-0.765625 0.765625 -0.765625 1.90625z" fill-rule="nonzero"/><path fill="#d9ead3" d="m478.3596 445.70865l141.5433 0l0 37.228363l-141.5433 0z" fill-rule="evenodd"/><path stroke="#595959" stroke-width="1.0" stroke-linejoin="round" stroke-linecap="butt" d="m478.3596 445.70865l141.5433 0l0 37.228363l-141.5433 0z" fill-rule="evenodd"/><path fill="#000000" d="m488.3752 468.14908l1.578125 -0.140625q0.203125 1.109375 0.765625 1.609375q0.5625 0.5 1.453125 0.5q0.75 0 1.3125 -0.34375q0.578125 -0.34375 0.9375 -0.921875q0.375 -0.578125 0.609375 -1.5625q0.25 -0.984375 0.25 -2.0q0 -0.109375 0 -0.328125q-0.5 0.78125 -1.359375 1.265625q-0.84375 0.484375 -1.828125 0.484375q-1.671875 0 -2.8125 -1.203125q-1.140625 -1.203125 -1.140625 -3.171875q0 -2.03125 1.1875 -3.265625q1.203125 -1.234375 3.0 -1.234375q1.3125 0 2.390625 0.703125q1.078125 0.703125 1.640625 2.0q0.5625 1.296875 0.5625 3.75q0 2.5625 -0.5625 4.078125q-0.5625 1.515625 -1.65625 2.3125q-1.09375 0.796875 -2.578125 0.796875q-1.5625 0 -2.5625 -0.875q-0.984375 -0.875 -1.1875 -2.453125zm6.71875 -5.890625q0 -1.40625 -0.75 -2.234375q-0.75 -0.828125 -1.8125 -0.828125q-1.09375 0 -1.90625 0.890625q-0.8125 0.890625 -0.8125 2.3125q0 1.28125 0.765625 2.078125q0.78125 0.796875 1.90625 0.796875q1.140625 0 1.875 -0.796875q0.734375 -0.796875 0.734375 -2.21875z" fill-rule="nonzero"/><path fill="#d9ead3" d="m491.08398 330.03412l116.09448 0l0 37.228363l-116.09448 0z" fill-rule="evenodd"/><path stroke="#595959" stroke-width="1.0" stroke-linejoin="round" stroke-linecap="butt" d="m491.08398 330.03412l116.09448 0l0 37.228363l-116.09448 0z" fill-rule="evenodd"/><path fill="#000000" d="m507.0371 355.5683l-1.640625 0l0 -10.453125q-0.59375 0.5625 -1.5625 1.140625q-0.953125 0.5625 -1.71875 0.84375l0 -1.59375q1.375 -0.640625 2.40625 -1.5625q1.03125 -0.921875 1.453125 -1.78125l1.0625 0l0 13.40625zm4.2038574 -6.59375q0 -2.359375 0.484375 -3.796875q0.484375 -1.453125 1.4375 -2.234375q0.96875 -0.78125 2.421875 -0.78125q1.078125 0 1.890625 0.4375q0.8125 0.421875 1.328125 1.25q0.53125 0.8125 0.828125 1.984375q0.3125 1.15625 0.3125 3.140625q0 2.359375 -0.484375 3.8125q-0.484375 1.4375 -1.453125 2.234375q-0.953125 0.78125 -2.421875 0.78125q-1.921875 0 -3.03125 -1.390625q-1.3125 -1.671875 -1.3125 -5.4375zm1.671875 0q0 3.296875 0.765625 4.390625q0.78125 1.078125 1.90625 1.078125q1.140625 0 1.90625 -1.09375q0.765625 -1.09375 0.765625 -4.375q0 -3.296875 -0.765625 -4.375q-0.765625 -1.078125 -1.921875 -1.078125q-1.125 0 -1.796875 0.953125q-0.859375 1.21875 -0.859375 4.5z" fill-rule="nonzero"/><path fill="#d9ead3" d="m465.0971 214.35957l87.62207 0l0 37.228348l-87.62207 0z" fill-rule="evenodd"/><path stroke="#595959" stroke-width="1.0" stroke-linejoin="round" stroke-linecap="butt" d="m465.0971 214.35957l87.62207 0l0 37.228348l-87.62207 0z" fill-rule="evenodd"/><path fill="#000000" d="m481.05023 239.89375l-1.640625 0l0 -10.453125q-0.59375 0.5625 -1.5625 1.140625q-0.953125 0.5625 -1.71875 0.84375l0 -1.59375q1.375 -0.640625 2.40625 -1.5625q1.03125 -0.921875 1.453125 -1.78125l1.0625 0l0 13.40625zm12.813232 -1.578125l0 1.578125l-8.828125 0q-0.015625 -0.59375 0.1875 -1.140625q0.34375 -0.90625 1.078125 -1.78125q0.75 -0.875 2.15625 -2.015625q2.171875 -1.78125 2.9375 -2.828125q0.765625 -1.046875 0.765625 -1.96875q0 -0.984375 -0.703125 -1.640625q-0.6875 -0.671875 -1.8125 -0.671875q-1.1875 0 -1.90625 0.71875q-0.703125 0.703125 -0.703125 1.953125l-1.6875 -0.171875q0.171875 -1.890625 1.296875 -2.875q1.140625 -0.984375 3.03125 -0.984375q1.921875 0 3.046875 1.0625q1.125 1.0625 1.125 2.640625q0 0.796875 -0.328125 1.578125q-0.328125 0.78125 -1.09375 1.640625q-0.75 0.84375 -2.53125 2.34375q-1.46875 1.234375 -1.890625 1.6875q-0.421875 0.4375 -0.6875 0.875l6.546875 0z" fill-rule="nonzero"/><path fill="#d9ead3" d="m462.20996 98.685036l116.09448 0l0 37.228355l-116.09448 0z" fill-rule="evenodd"/><path stroke="#595959" stroke-width="1.0" stroke-linejoin="round" stroke-linecap="butt" d="m462.20996 98.685036l116.09448 0l0 37.228355l-116.09448 0z" fill-rule="evenodd"/><path fill="#000000" d="m478.1631 124.21921l-1.640625 0l0 -10.453125q-0.59375 0.5625 -1.5625 1.140625q-0.953125 0.5625 -1.71875 0.84375l0 -1.59375q1.375 -0.640625 2.40625 -1.5625q1.03125 -0.921875 1.453125 -1.78125l1.0625 0l0 13.40625zm8.990295 0l-1.640625 0l0 -10.453125q-0.59375 0.5625 -1.5625 1.140625q-0.953125 0.5625 -1.71875 0.84375l0 -1.59375q1.375 -0.640625 2.40625 -1.5625q1.03125 -0.921875 1.453125 -1.78125l1.0625 0l0 13.40625z" fill-rule="nonzero"/><path fill="#d9ead3" d="m362.04987 330.03412l116.09448 0l0 37.228363l-116.09448 0z" fill-rule="evenodd"/><path stroke="#595959" stroke-width="1.0" stroke-linejoin="round" stroke-linecap="butt" d="m362.04987 330.03412l116.09448 0l0 37.228363l-116.09448 0z" fill-rule="evenodd"/><path fill="#000000" d="m378.003 355.5683l-1.640625 0l0 -10.453125q-0.59375 0.5625 -1.5625 1.140625q-0.953125 0.5625 -1.71875 0.84375l0 -1.59375q1.375 -0.640625 2.40625 -1.5625q1.03125 -0.921875 1.453125 -1.78125l1.0625 0l0 13.40625zm4.2038574 -3.53125l1.640625 -0.21875q0.28125 1.40625 0.953125 2.015625q0.6875 0.609375 1.65625 0.609375q1.15625 0 1.953125 -0.796875q0.796875 -0.796875 0.796875 -1.984375q0 -1.125 -0.734375 -1.859375q-0.734375 -0.734375 -1.875 -0.734375q-0.46875 0 -1.15625 0.171875l0.1875 -1.4375q0.15625 0.015625 0.265625 0.015625q1.046875 0 1.875 -0.546875q0.84375 -0.546875 0.84375 -1.671875q0 -0.90625 -0.609375 -1.5q-0.609375 -0.59375 -1.578125 -0.59375q-0.953125 0 -1.59375 0.609375q-0.640625 0.59375 -0.8125 1.796875l-1.640625 -0.296875q0.296875 -1.640625 1.359375 -2.546875q1.0625 -0.90625 2.65625 -0.90625q1.09375 0 2.0 0.46875q0.921875 0.46875 1.40625 1.28125q0.5 0.8125 0.5 1.71875q0 0.859375 -0.46875 1.578125q-0.46875 0.703125 -1.375 1.125q1.1875 0.28125 1.84375 1.140625q0.65625 0.859375 0.65625 2.15625q0 1.734375 -1.28125 2.953125q-1.265625 1.21875 -3.21875 1.21875q-1.765625 0 -2.921875 -1.046875q-1.15625 -1.046875 -1.328125 -2.71875z" fill-rule="nonzero"/><path fill="#ffffff" d="m92.52887 482.937l0 0c7.1079483 0 12.870079 -5.762146 12.870079 -12.870087l-12.870079 0c3.553978 0 6.4350433 -2.881073 6.4350433 -6.435028c0 -3.5539856 -2.8810654 -6.4350586 -6.4350433 -6.4350586l12.870079 0l0 -345.64172l0 0c0 -7.1079483 5.7621307 -12.870079 12.870079 -12.870079l154.44093 0c7.107971 0 12.870087 5.7621307 12.870087 12.870079c0 7.1079483 -5.7621155 12.870079 -12.870087 12.870079l-12.870056 0l0 345.64172c0 7.1079407 -5.762146 12.870087 -12.870087 12.870087zm38.610245 -371.3819l0 0c0 7.1079483 -5.7621384 12.870079 -12.870087 12.870079c-3.5539703 0 -6.4350357 -2.8810654 -6.4350357 -6.4350357c0 -3.553978 2.8810654 -6.4350433 6.4350357 -6.4350433z" fill-rule="evenodd"/><path fill="#cbcbcb" d="m131.13911 111.555115l0 0c0 7.1079483 -5.7621384 12.870079 -12.870087 12.870079c-3.5539703 0 -6.4350357 -2.8810654 -6.4350357 -6.4350357c0 -3.553978 2.8810654 -6.4350433 6.4350357 -6.4350433zm-25.740166 358.5118c0 7.1079407 -5.7621307 12.870087 -12.870079 12.870087c-7.1079483 0 -12.870079 -5.762146 -12.870079 -12.870087c0 -7.1079407 5.7621307 -12.870087 12.870079 -12.870087l0 0c3.553978 0 6.4350433 2.881073 6.4350433 6.4350586c0 3.553955 -2.8810654 6.435028 -6.4350433 6.435028z" fill-rule="evenodd"/><path fill="#000000" fill-opacity="0.0" d="m105.39895 457.19684l0 -345.64172l0 0c0 -7.1079483 5.7621307 -12.870079 12.870079 -12.870079l154.44093 0c7.107971 0 12.870087 5.7621307 12.870087 12.870079c0 7.1079483 -5.7621155 12.870079 -12.870087 12.870079l-12.870056 0l0 345.64172c0 7.1079407 -5.762146 12.870087 -12.870087 12.870087l-154.44095 0l0 0c-7.1079483 0 -12.870079 -5.762146 -12.870079 -12.870087c0 -7.1079407 5.7621307 -12.870087 12.870079 -12.870087zm12.870079 -358.5118l0 0c7.1079483 0 12.870087 5.7621307 12.870087 12.870079c0 7.1079483 -5.7621384 12.870079 -12.870087 12.870079c-3.5539703 0 -6.4350357 -2.8810654 -6.4350357 -6.4350357c0 -3.553978 2.8810654 -6.4350433 6.4350357 -6.4350433l12.870087 0m128.70079 12.870079l-141.57088 0m-25.740158 332.77164l0 0c3.553978 0 6.4350433 2.881073 6.4350433 6.4350586c0 3.553955 -2.8810654 6.435028 -6.4350433 6.435028l12.870079 0m-12.870079 12.870087l0 0c7.1079483 0 12.870079 -5.762146 12.870079 -12.870087l0 -12.870087" fill-rule="evenodd"/><path stroke="#595959" stroke-width="1.0" stroke-linejoin="round" stroke-linecap="butt" d="m105.39895 457.19684l0 -345.64172l0 0c0 -7.1079483 5.7621307 -12.870079 12.870079 -12.870079l154.44093 0c7.107971 0 12.870087 5.7621307 12.870087 12.870079c0 7.1079483 -5.7621155 12.870079 -12.870087 12.870079l-12.870056 0l0 345.64172c0 7.1079407 -5.762146 12.870087 -12.870087 12.870087l-154.44095 0l0 0c-7.1079483 0 -12.870079 -5.762146 -12.870079 -12.870087c0 -7.1079407 5.7621307 -12.870087 12.870079 -12.870087zm12.870079 -358.5118l0 0c7.1079483 0 12.870087 5.7621307 12.870087 12.870079c0 7.1079483 -5.7621384 12.870079 -12.870087 12.870079c-3.5539703 0 -6.4350357 -2.8810654 -6.4350357 -6.4350357c0 -3.553978 2.8810654 -6.4350433 6.4350357 -6.4350433l12.870087 0m128.70079 12.870079l-141.57088 0m-25.740158 332.77164l0 0c3.553978 0 6.4350433 2.881073 6.4350433 6.4350586c0 3.553955 -2.8810654 6.435028 -6.4350433 6.435028l12.870079 0m-12.870079 12.870087l0 0c7.1079483 0 12.870079 -5.762146 12.870079 -12.870087l0 -12.870087" fill-rule="evenodd"/><path fill="#6aa84f" d="m151.3204 164.85356l0 -1.65625l10.640625 0l0 1.65625l-10.640625 0zm10.375717 0l0 -1.65625l10.640625 0l0 1.65625l-10.640625 0zm10.375717 0l0 -1.65625l10.640625 0l0 1.65625l-10.640625 0zm10.375717 0l0 -1.65625l10.640625 0l0 1.65625l-10.640625 0zm10.375717 0l0 -1.65625l10.640625 0l0 1.65625l-10.640625 0zm10.375717 0l0 -1.65625l10.640625 0l0 1.65625l-10.640625 0z" fill-rule="nonzero"/><path fill="#6aa84f" d="m156.50826 186.85356l0 -1.65625l10.640625 0l0 1.65625l-10.640625 0zm10.375717 0l0 -1.65625l10.640625 0l0 1.65625l-10.640625 0zm10.375717 0l0 -1.65625l10.640625 0l0 1.65625l-10.640625 0zm10.375717 0l0 -1.65625l10.640625 0l0 1.65625l-10.640625 0zm10.375717 0l0 -1.65625l10.640625 0l0 1.65625l-10.640625 0z" fill-rule="nonzero"/><path fill="#6aa84f" d="m151.3204 208.85356l0 -1.65625l10.640625 0l0 1.65625l-10.640625 0zm10.375717 0l0 -1.65625l10.640625 0l0 1.65625l-10.640625 0zm10.375717 0l0 -1.65625l10.640625 0l0 1.65625l-10.640625 0zm10.375717 0l0 -1.65625l10.640625 0l0 1.65625l-10.640625 0zm10.375717 0l0 -1.65625l10.640625 0l0 1.65625l-10.640625 0zm10.375717 0l0 -1.65625l10.640625 0l0 1.65625l-10.640625 0z" fill-rule="nonzero"/><path fill="#6aa84f" d="m140.94469 230.85356l0 -1.65625l10.640625 0l0 1.65625l-10.640625 0zm10.375717 0l0 -1.65625l10.640625 0l0 1.65625l-10.640625 0zm10.375717 0l0 -1.65625l10.640625 0l0 1.65625l-10.640625 0zm10.375717 0l0 -1.65625l10.640625 0l0 1.65625l-10.640625 0zm10.375717 0l0 -1.65625l10.640625 0l0 1.65625l-10.640625 0zm10.375717 0l0 -1.65625l10.640625 0l0 1.65625l-10.640625 0zm10.375717 0l0 -1.65625l10.640625 0l0 1.65625l-10.640625 0zm10.375717 0l0 -1.65625l10.640625 0l0 1.65625l-10.640625 0z" fill-rule="nonzero"/><path fill="#6aa84f" d="m151.3204 252.85356l0 -1.65625l10.640625 0l0 1.65625l-10.640625 0zm10.375717 0l0 -1.65625l10.640625 0l0 1.65625l-10.640625 0zm10.375717 0l0 -1.65625l10.640625 0l0 1.65625l-10.640625 0zm10.375717 0l0 -1.65625l10.640625 0l0 1.65625l-10.640625 0zm10.375717 0l0 -1.65625l10.640625 0l0 1.65625l-10.640625 0zm10.375717 0l0 -1.65625l10.640625 0l0 1.65625l-10.640625 0z" fill-rule="nonzero"/><path fill="#6aa84f" d="m146.13254 274.85355l0 -1.65625l10.640625 0l0 1.65625l-10.640625 0zm10.375717 0l0 -1.65625l10.640625 0l0 1.65625l-10.640625 0zm10.375717 0l0 -1.65625l10.640625 0l0 1.65625l-10.640625 0zm10.375717 0l0 -1.65625l10.640625 0l0 1.65625l-10.640625 0zm10.375717 0l0 -1.65625l10.640625 0l0 1.65625l-10.640625 0zm10.375717 0l0 -1.65625l10.640625 0l0 1.65625l-10.640625 0zm10.375717 0l0 -1.65625l10.640625 0l0 1.65625l-10.640625 0z" fill-rule="nonzero"/><path fill="#6aa84f" d="m161.69612 296.85355l0 -1.65625l10.640625 0l0 1.65625l-10.640625 0zm10.375717 0l0 -1.65625l10.640625 0l0 1.65625l-10.640625 0zm10.375717 0l0 -1.65625l10.640625 0l0 1.65625l-10.640625 0zm10.375717 0l0 -1.65625l10.640625 0l0 1.65625l-10.640625 0z" fill-rule="nonzero"/><path fill="#6aa84f" d="m151.3204 318.85355l0 -1.65625l10.640625 0l0 1.65625l-10.640625 0zm10.375717 0l0 -1.65625l10.640625 0l0 1.65625l-10.640625 0zm10.375717 0l0 -1.65625l10.640625 0l0 1.65625l-10.640625 0zm10.375717 0l0 -1.65625l10.640625 0l0 1.65625l-10.640625 0zm10.375717 0l0 -1.65625l10.640625 0l0 1.65625l-10.640625 0zm10.375717 0l0 -1.65625l10.640625 0l0 1.65625l-10.640625 0z" fill-rule="nonzero"/><path fill="#6aa84f" d="m135.75682 340.85355l0 -1.65625l10.640625 0l0 1.65625l-10.640625 0zm10.375717 0l0 -1.65625l10.640625 0l0 1.65625l-10.640625 0zm10.375717 0l0 -1.65625l10.640625 0l0 1.65625l-10.640625 0zm10.375717 0l0 -1.65625l10.640625 0l0 1.65625l-10.640625 0zm10.375717 0l0 -1.65625l10.640625 0l0 1.65625l-10.640625 0zm10.375717 0l0 -1.65625l10.640625 0l0 1.65625l-10.640625 0zm10.375717 0l0 -1.65625l10.640625 0l0 1.65625l-10.640625 0zm10.375717 0l0 -1.65625l10.640625 0l0 1.65625l-10.640625 0zm10.375717 0l0 -1.65625l10.640625 0l0 1.65625l-10.640625 0z" fill-rule="nonzero"/><path fill="#6aa84f" d="m151.3204 362.85355l0 -1.65625l10.640625 0l0 1.65625l-10.640625 0zm10.375717 0l0 -1.65625l10.640625 0l0 1.65625l-10.640625 0zm10.375717 0l0 -1.65625l10.640625 0l0 1.65625l-10.640625 0zm10.375717 0l0 -1.65625l10.640625 0l0 1.65625l-10.640625 0zm10.375717 0l0 -1.65625l10.640625 0l0 1.65625l-10.640625 0zm10.375717 0l0 -1.65625l10.640625 0l0 1.65625l-10.640625 0z" fill-rule="nonzero"/><path fill="#6aa84f" d="m140.94469 384.85355l0 -1.65625l10.640625 0l0 1.65625l-10.640625 0zm10.375717 0l0 -1.65625l10.640625 0l0 1.65625l-10.640625 0zm10.375717 0l0 -1.65625l10.640625 0l0 1.65625l-10.640625 0zm10.375717 0l0 -1.65625l10.640625 0l0 1.65625l-10.640625 0zm10.375717 0l0 -1.65625l10.640625 0l0 1.65625l-10.640625 0zm10.375717 0l0 -1.65625l10.640625 0l0 1.65625l-10.640625 0zm10.375717 0l0 -1.65625l10.640625 0l0 1.65625l-10.640625 0zm10.375717 0l0 -1.65625l10.640625 0l0 1.65625l-10.640625 0z" fill-rule="nonzero"/><path fill="#6aa84f" d="m161.69612 406.85355l0 -1.65625l10.640625 0l0 1.65625l-10.640625 0zm10.375717 0l0 -1.65625l10.640625 0l0 1.65625l-10.640625 0zm10.375717 0l0 -1.65625l10.640625 0l0 1.65625l-10.640625 0zm10.375717 0l0 -1.65625l10.640625 0l0 1.65625l-10.640625 0z" fill-rule="nonzero"/><path fill="#6aa84f" d="m156.50826 428.85355l0 -1.65625l10.640625 0l0 1.65625l-10.640625 0zm10.375717 0l0 -1.65625l10.640625 0l0 1.65625l-10.640625 0zm10.375717 0l0 -1.65625l10.640625 0l0 1.65625l-10.640625 0zm10.375717 0l0 -1.65625l10.640625 0l0 1.65625l-10.640625 0zm10.375717 0l0 -1.65625l10.640625 0l0 1.65625l-10.640625 0z" fill-rule="nonzero"/><path fill="#78909c" d="m803.67194 84.44095l65.71649 0l0 65.71654l-65.71649 0z" fill-rule="evenodd"/><path fill="#93a6af" d="m792.7192 73.48819l87.62201 0l-10.952759 10.952759l-65.71649 0z" fill-rule="evenodd"/><path fill="#5f737c" d="m792.7192 161.11023l10.952759 -10.952744l65.71649 0l10.952759 10.952744z" fill-rule="evenodd"/><path fill="#aebcc3" d="m792.7192 73.48819l10.952759 10.952759l0 65.71654l-10.952759 10.952744z" fill-rule="evenodd"/><path fill="#47565d" d="m880.3412 73.48819l0 87.62204l-10.952759 -10.952744l0 -65.71654z" fill-rule="evenodd"/><path fill="#000000" fill-opacity="0.0" d="m792.7192 73.48819l87.62201 0l0 87.62204l-87.62201 0zm10.952759 10.952759l65.71649 0l0 65.71654l-65.71649 0zm-10.952759 -10.952759l10.952759 10.952759m-10.952759 76.66928l10.952759 -10.952744m76.66925 -76.6693l-10.952759 10.952759m10.952759 76.66928l-10.952759 -10.952744" fill-rule="evenodd"/><path stroke="#595959" stroke-width="1.0" stroke-linejoin="round" stroke-linecap="butt" d="m792.7192 73.48819l87.62201 0l0 87.62204l-87.62201 0zm10.952759 10.952759l65.71649 0l0 65.71654l-65.71649 0zm-10.952759 -10.952759l10.952759 10.952759m-10.952759 76.66928l10.952759 -10.952744m76.66925 -76.6693l-10.952759 10.952759m10.952759 76.66928l-10.952759 -10.952744" fill-rule="evenodd"/><path fill="#78909c" d="m803.67194 200.11548l65.71649 0l0 65.71655l-65.71649 0z" fill-rule="evenodd"/><path fill="#93a6af" d="m792.7192 189.16273l87.62201 0l-10.952759 10.952744l-65.71649 0z" fill-rule="evenodd"/><path fill="#5f737c" d="m792.7192 276.7848l10.952759 -10.952759l65.71649 0l10.952759 10.952759z" fill-rule="evenodd"/><path fill="#aebcc3" d="m792.7192 189.16273l10.952759 10.952744l0 65.71655l-10.952759 10.952759z" fill-rule="evenodd"/><path fill="#47565d" d="m880.3412 189.16273l0 87.622055l-10.952759 -10.952759l0 -65.71655z" fill-rule="evenodd"/><path fill="#000000" fill-opacity="0.0" d="m792.7192 189.16273l87.62201 0l0 87.622055l-87.62201 0zm10.952759 10.952744l65.71649 0l0 65.71655l-65.71649 0zm-10.952759 -10.952744l10.952759 10.952744m-10.952759 76.66931l10.952759 -10.952759m76.66925 -76.6693l-10.952759 10.952744m10.952759 76.66931l-10.952759 -10.952759" fill-rule="evenodd"/><path stroke="#595959" stroke-width="1.0" stroke-linejoin="round" stroke-linecap="butt" d="m792.7192 189.16273l87.62201 0l0 87.622055l-87.62201 0zm10.952759 10.952744l65.71649 0l0 65.71655l-65.71649 0zm-10.952759 -10.952744l10.952759 10.952744m-10.952759 76.66931l10.952759 -10.952759m76.66925 -76.6693l-10.952759 10.952744m10.952759 76.66931l-10.952759 -10.952759" fill-rule="evenodd"/><path fill="#78909c" d="m803.67194 315.79004l65.71649 0l0 65.71652l-65.71649 0z" fill-rule="evenodd"/><path fill="#93a6af" d="m792.7192 304.83728l87.62201 0l-10.952759 10.952759l-65.71649 0z" fill-rule="evenodd"/><path fill="#5f737c" d="m792.7192 392.45932l10.952759 -10.952759l65.71649 0l10.952759 10.952759z" fill-rule="evenodd"/><path fill="#aebcc3" d="m792.7192 304.83728l10.952759 10.952759l0 65.71652l-10.952759 10.952759z" fill-rule="evenodd"/><path fill="#47565d" d="m880.3412 304.83728l0 87.62204l-10.952759 -10.952759l0 -65.71652z" fill-rule="evenodd"/><path fill="#000000" fill-opacity="0.0" d="m792.7192 304.83728l87.62201 0l0 87.62204l-87.62201 0zm10.952759 10.952759l65.71649 0l0 65.71652l-65.71649 0zm-10.952759 -10.952759l10.952759 10.952759m-10.952759 76.66928l10.952759 -10.952759m76.66925 -76.66928l-10.952759 10.952759m10.952759 76.66928l-10.952759 -10.952759" fill-rule="evenodd"/><path stroke="#595959" stroke-width="1.0" stroke-linejoin="round" stroke-linecap="butt" d="m792.7192 304.83728l87.62201 0l0 87.62204l-87.62201 0zm10.952759 10.952759l65.71649 0l0 65.71652l-65.71649 0zm-10.952759 -10.952759l10.952759 10.952759m-10.952759 76.66928l10.952759 -10.952759m76.66925 -76.66928l-10.952759 10.952759m10.952759 76.66928l-10.952759 -10.952759" fill-rule="evenodd"/><path fill="#78909c" d="m803.67194 431.46457l65.71649 0l0 65.71652l-65.71649 0z" fill-rule="evenodd"/><path fill="#93a6af" d="m792.7192 420.5118l87.62201 0l-10.952759 10.952759l-65.71649 0z" fill-rule="evenodd"/><path fill="#5f737c" d="m792.7192 508.13385l10.952759 -10.952759l65.71649 0l10.952759 10.952759z" fill-rule="evenodd"/><path fill="#aebcc3" d="m792.7192 420.5118l10.952759 10.952759l0 65.71652l-10.952759 10.952759z" fill-rule="evenodd"/><path fill="#47565d" d="m880.3412 420.5118l0 87.62204l-10.952759 -10.952759l0 -65.71652z" fill-rule="evenodd"/><path fill="#000000" fill-opacity="0.0" d="m792.7192 420.5118l87.62201 0l0 87.62204l-87.62201 0zm10.952759 10.952759l65.71649 0l0 65.71652l-65.71649 0zm-10.952759 -10.952759l10.952759 10.952759m-10.952759 76.66928l10.952759 -10.952759m76.66925 -76.66928l-10.952759 10.952759m10.952759 76.66928l-10.952759 -10.952759" fill-rule="evenodd"/><path stroke="#595959" stroke-width="1.0" stroke-linejoin="round" stroke-linecap="butt" d="m792.7192 420.5118l87.62201 0l0 87.62204l-87.62201 0zm10.952759 10.952759l65.71649 0l0 65.71652l-65.71649 0zm-10.952759 -10.952759l10.952759 10.952759m-10.952759 76.66928l10.952759 -10.952759m76.66925 -76.66928l-10.952759 10.952759m10.952759 76.66928l-10.952759 -10.952759" fill-rule="evenodd"/><path fill="#000000" fill-opacity="0.0" d="m271.34384 217.51968l170.86612 -78.83464" fill-rule="evenodd"/><path stroke="#595959" stroke-width="3.0" stroke-linejoin="round" stroke-linecap="butt" d="m271.34384 217.51968l154.52188 -71.2937" fill-rule="evenodd"/><path fill="#595959" stroke="#595959" stroke-width="3.0" stroke-linecap="butt" d="m427.94168 150.72537l10.286011 -10.202972l-14.437897 1.2041931z" fill-rule="evenodd"/><path fill="#000000" fill-opacity="0.0" d="m275.14697 271.2047l172.53543 -35.0551" fill-rule="evenodd"/><path stroke="#595959" stroke-width="3.0" stroke-linejoin="round" stroke-linecap="butt" d="m275.14697 271.2047l154.89584 -31.47116" fill-rule="evenodd"/><path fill="#595959" stroke="#595959" stroke-width="3.0" stroke-linecap="butt" d="m431.02945 244.58954l12.355072 -7.566696l-14.328308 -2.1452637z" fill-rule="evenodd"/><path fill="#000000" fill-opacity="0.0" d="m274.6273 320.49344l69.00787 16.440948" fill-rule="evenodd"/><path stroke="#595959" stroke-width="3.0" stroke-linejoin="round" stroke-linecap="butt" d="m274.6273 320.49344l51.497986 12.269257" fill-rule="evenodd"/><path fill="#595959" stroke="#595959" stroke-width="3.0" stroke-linecap="butt" d="m324.97684 337.58298l14.392029 -1.6650391l-12.095184 -7.975525z" fill-rule="evenodd"/><path fill="#000000" fill-opacity="0.0" d="m275.7139 388.41733l184.0315 60.22046" fill-rule="evenodd"/><path stroke="#595959" stroke-width="3.0" stroke-linejoin="round" stroke-linecap="butt" d="m275.7139 388.41733l166.92413 54.622467" fill-rule="evenodd"/><path fill="#595959" stroke="#595959" stroke-width="3.0" stroke-linecap="butt" d="m441.09695 447.74924l14.480225 -0.47540283l-11.398071 -8.9435425z" fill-rule="evenodd"/><path fill="#000000" fill-opacity="0.0" d="m214.31496 0l531.3701 0l0 58.17323l-531.3701 0z" fill-rule="evenodd"/><path fill="#000000" d="m247.84373 39.72l0 -22.90625l15.45314 0l0 2.703125l-12.42189 0l0 7.09375l10.750015 0l0 2.703125l-10.750015 0l0 10.40625l-3.03125 0zm17.98439 -8.296875q0 -4.609375 2.5625 -6.828125q2.140625 -1.84375 5.21875 -1.84375q3.421875 0 5.59375 2.25q2.171875 2.234375 2.171875 6.1875q0 3.203125 -0.96875 5.046875q-0.953125 1.828125 -2.796875 2.84375q-1.828125 1.015625 -4.0 1.015625q-3.484375 0 -5.640625 -2.234375q-2.140625 -2.234375 -2.140625 -6.4375zm2.890625 0q0 3.1875 1.390625 4.78125q1.390625 1.578125 3.5 1.578125q2.09375 0 3.484375 -1.59375q1.390625 -1.59375 1.390625 -4.859375q0 -3.078125 -1.40625 -4.65625q-1.390625 -1.59375 -3.46875 -1.59375q-2.109375 0 -3.5 1.578125q-1.390625 1.578125 -1.390625 4.765625zm15.953125 8.296875l0 -16.59375l2.53125 0l0 2.359375q1.828125 -2.734375 5.28125 -2.734375q1.5 0 2.75 0.546875q1.265625 0.53125 1.890625 1.40625q0.625 0.875 0.875 2.078125q0.15625 0.78125 0.15625 2.734375l0 10.203125l-2.8125 0l0 -10.09375q0 -1.71875 -0.328125 -2.5625q-0.328125 -0.859375 -1.171875 -1.359375q-0.828125 -0.515625 -1.953125 -0.515625q-1.796875 0 -3.109375 1.140625q-1.296875 1.140625 -1.296875 4.328125l0 9.0625l-2.8125 0zm28.625 -6.078125l2.765625 0.359375q-0.453125 2.859375 -2.328125 4.484375q-1.859375 1.609375 -4.578125 1.609375q-3.40625 0 -5.484375 -2.21875q-2.0625 -2.234375 -2.0625 -6.390625q0 -2.6875 0.890625 -4.703125q0.890625 -2.015625 2.703125 -3.015625q1.828125 -1.015625 3.96875 -1.015625q2.703125 0 4.421875 1.375q1.71875 1.359375 2.203125 3.875l-2.734375 0.421875q-0.390625 -1.671875 -1.390625 -2.515625q-0.984375 -0.84375 -2.390625 -0.84375q-2.125 0 -3.453125 1.53125q-1.328125 1.515625 -1.328125 4.8125q0 3.34375 1.28125 4.859375q1.28125 1.515625 3.34375 1.515625q1.65625 0 2.765625 -1.015625q1.109375 -1.015625 1.40625 -3.125zm11.3125 3.5625l0.40625 2.484375q-1.1875 0.25 -2.125 0.25q-1.53125 0 -2.375 -0.484375q-0.84375 -0.484375 -1.1875 -1.265625q-0.34375 -0.796875 -0.34375 -3.328125l0 -9.546875l-2.0625 0l0 -2.1875l2.0625 0l0 -4.109375l2.796875 -1.6875l0 5.796875l2.828125 0l0 2.1875l-2.828125 0l0 9.703125q0 1.203125 0.140625 1.546875q0.15625 0.34375 0.484375 0.546875q0.34375 0.203125 0.96875 0.203125q0.46875 0 1.234375 -0.109375zm2.765625 -17.15625l0 -3.234375l2.8125 0l0 3.234375l-2.8125 0zm0 19.671875l0 -16.59375l2.8125 0l0 16.59375l-2.8125 0zm6.046875 -8.296875q0 -4.609375 2.5625 -6.828125q2.140625 -1.84375 5.21875 -1.84375q3.421875 0 5.59375 2.25q2.171875 2.234375 2.171875 6.1875q0 3.203125 -0.96875 5.046875q-0.953125 1.828125 -2.796875 2.84375q-1.828125 1.015625 -4.0 1.015625q-3.484375 0 -5.640625 -2.234375q-2.140625 -2.234375 -2.140625 -6.4375zm2.890625 0q0 3.1875 1.390625 4.78125q1.390625 1.578125 3.5 1.578125q2.09375 0 3.484375 -1.59375q1.390625 -1.59375 1.390625 -4.859375q0 -3.078125 -1.40625 -4.65625q-1.390625 -1.59375 -3.46875 -1.59375q-2.109375 0 -3.5 1.578125q-1.390625 1.578125 -1.390625 4.765625zm15.953125 8.296875l0 -16.59375l2.53125 0l0 2.359375q1.828125 -2.734375 5.28125 -2.734375q1.5 0 2.75 0.546875q1.265625 0.53125 1.890625 1.40625q0.625 0.875 0.875 2.078125q0.15625 0.78125 0.15625 2.734375l0 10.203125l-2.8125 0l0 -10.09375q0 -1.71875 -0.328125 -2.5625q-0.328125 -0.859375 -1.171875 -1.359375q-0.828125 -0.515625 -1.953125 -0.515625q-1.796875 0 -3.109375 1.140625q-1.296875 1.140625 -1.296875 4.328125l0 9.0625l-2.8125 0zm17.796875 0l0 -16.59375l2.53125 0l0 2.359375q1.828125 -2.734375 5.28125 -2.734375q1.5 0 2.75 0.546875q1.265625 0.53125 1.890625 1.40625q0.625 0.875 0.875 2.078125q0.15625 0.78125 0.15625 2.734375l0 10.203125l-2.8125 0l0 -10.09375q0 -1.71875 -0.328125 -2.5625q-0.328125 -0.859375 -1.171875 -1.359375q-0.828125 -0.515625 -1.953125 -0.515625q-1.796875 0 -3.109375 1.140625q-1.296875 1.140625 -1.296875 4.328125l0 9.0625l-2.8125 0zm29.15625 -5.34375l2.90625 0.359375q-0.6875 2.546875 -2.546875 3.953125q-1.859375 1.40625 -4.75 1.40625q-3.640625 0 -5.78125 -2.234375q-2.125 -2.25 -2.125 -6.296875q0 -4.1875 2.15625 -6.5q2.15625 -2.3125 5.59375 -2.3125q3.328125 0 5.4375 2.265625q2.109375 2.265625 2.109375 6.375q0 0.25 -0.015625 0.75l-12.375 0q0.15625 2.734375 1.546875 4.1875q1.390625 1.453125 3.46875 1.453125q1.546875 0 2.640625 -0.8125q1.09375 -0.8125 1.734375 -2.59375zm-9.234375 -4.546875l9.265625 0q-0.1875 -2.09375 -1.0625 -3.140625q-1.34375 -1.625 -3.484375 -1.625q-1.9375 0 -3.265625 1.296875q-1.3125 1.296875 -1.453125 3.46875zm15.671875 9.890625l0 -16.59375l2.515625 0l0 2.328125q0.78125 -1.21875 2.078125 -1.953125q1.296875 -0.75 2.953125 -0.75q1.84375 0 3.015625 0.765625q1.1875 0.765625 1.671875 2.140625q1.96875 -2.90625 5.125 -2.90625q2.46875 0 3.796875 1.375q1.328125 1.359375 1.328125 4.203125l0 11.390625l-2.796875 0l0 -10.453125q0 -1.6875 -0.28125 -2.421875q-0.265625 -0.75 -0.984375 -1.203125q-0.71875 -0.453125 -1.6875 -0.453125q-1.75 0 -2.90625 1.171875q-1.15625 1.15625 -1.15625 3.71875l0 9.640625l-2.8125 0l0 -10.78125q0 -1.875 -0.6875 -2.8125q-0.6875 -0.9375 -2.25 -0.9375q-1.1875 0 -2.203125 0.625q-1.0 0.625 -1.453125 1.828125q-0.453125 1.203125 -0.453125 3.46875l0 8.609375l-2.8125 0zm38.015625 -5.34375l2.90625 0.359375q-0.6875 2.546875 -2.546875 3.953125q-1.859375 1.40625 -4.75 1.40625q-3.640625 0 -5.78125 -2.234375q-2.125 -2.25 -2.125 -6.296875q0 -4.1875 2.15625 -6.5q2.15625 -2.3125 5.59375 -2.3125q3.328125 0 5.4375 2.265625q2.109375 2.265625 2.109375 6.375q0 0.25 -0.015625 0.75l-12.375 0q0.15625 2.734375 1.546875 4.1875q1.390625 1.453125 3.46875 1.453125q1.546875 0 2.640625 -0.8125q1.09375 -0.8125 1.734375 -2.59375zm-9.234375 -4.546875l9.265625 0q-0.1875 -2.09375 -1.0625 -3.140625q-1.34375 -1.625 -3.484375 -1.625q-1.9375 0 -3.265625 1.296875q-1.3125 1.296875 -1.453125 3.46875zm15.671875 9.890625l0 -16.59375l2.53125 0l0 2.359375q1.828125 -2.734375 5.28125 -2.734375q1.5 0 2.75 0.546875q1.265625 0.53125 1.890625 1.40625q0.625 0.875 0.875 2.078125q0.15625 0.78125 0.15625 2.734375l0 10.203125l-2.8125 0l0 -10.09375q0 -1.71875 -0.328125 -2.5625q-0.328125 -0.859375 -1.171875 -1.359375q-0.828125 -0.515625 -1.953125 -0.515625q-1.796875 0 -3.109375 1.140625q-1.296875 1.140625 -1.296875 4.328125l0 9.0625l-2.8125 0zm23.9375 -2.515625l0.40625 2.484375q-1.1875 0.25 -2.125 0.25q-1.53125 0 -2.375 -0.484375q-0.84375 -0.484375 -1.1875 -1.265625q-0.34375 -0.796875 -0.34375 -3.328125l0 -9.546875l-2.0625 0l0 -2.1875l2.0625 0l0 -4.109375l2.796875 -1.6875l0 5.796875l2.828125 0l0 2.1875l-2.828125 0l0 9.703125q0 1.203125 0.140625 1.546875q0.15625 0.34375 0.484375 0.546875q0.34375 0.203125 0.96875 0.203125q0.46875 0 1.234375 -0.109375zm22.40625 2.515625l0 -2.09375q-1.578125 2.46875 -4.640625 2.46875q-1.984375 0 -3.65625 -1.09375q-1.65625 -1.09375 -2.578125 -3.046875q-0.90625 -1.96875 -0.90625 -4.515625q0 -2.484375 0.828125 -4.5q0.828125 -2.03125 2.484375 -3.109375q1.65625 -1.078125 3.703125 -1.078125q1.5 0 2.671875 0.640625q1.171875 0.625 1.90625 1.640625l0 -8.21875l2.796875 0l0 22.90625l-2.609375 0zm-8.890625 -8.28125q0 3.1875 1.34375 4.765625q1.34375 1.578125 3.171875 1.578125q1.84375 0 3.125 -1.5q1.296875 -1.515625 1.296875 -4.609375q0 -3.40625 -1.3125 -5.0q-1.3125 -1.59375 -3.234375 -1.59375q-1.875 0 -3.140625 1.53125q-1.25 1.53125 -1.25 4.828125zm27.28125 2.9375l2.90625 0.359375q-0.6875 2.546875 -2.546875 3.953125q-1.859375 1.40625 -4.75 1.40625q-3.640625 0 -5.78125 -2.234375q-2.125 -2.25 -2.125 -6.296875q0 -4.1875 2.15625 -6.5q2.15625 -2.3125 5.59375 -2.3125q3.328125 0 5.4375 2.265625q2.109375 2.265625 2.109375 6.375q0 0.25 -0.015625 0.75l-12.375 0q0.15625 2.734375 1.546875 4.1875q1.390625 1.453125 3.46875 1.453125q1.546875 0 2.640625 -0.8125q1.09375 -0.8125 1.734375 -2.59375zm-9.234375 -4.546875l9.265625 0q-0.1875 -2.09375 -1.0625 -3.140625q-1.34375 -1.625 -3.484375 -1.625q-1.9375 0 -3.265625 1.296875q-1.3125 1.296875 -1.453125 3.46875zm35.640625 0.90625l0 -2.6875l9.703125 -0.015625l0 8.5q-2.234375 1.78125 -4.609375 2.6875q-2.375 0.890625 -4.875 0.890625q-3.375 0 -6.140625 -1.4375q-2.75 -1.453125 -4.15625 -4.1875q-1.40625 -2.734375 -1.40625 -6.109375q0 -3.34375 1.390625 -6.234375q1.40625 -2.90625 4.03125 -4.3125q2.625 -1.40625 6.046875 -1.40625q2.484375 0 4.484375 0.8125q2.015625 0.796875 3.15625 2.234375q1.140625 1.4375 1.734375 3.75l-2.734375 0.75q-0.515625 -1.75 -1.28125 -2.75q-0.765625 -1.0 -2.1875 -1.59375q-1.421875 -0.609375 -3.15625 -0.609375q-2.078125 0 -3.59375 0.640625q-1.515625 0.625 -2.453125 1.65625q-0.921875 1.03125 -1.4375 2.265625q-0.875 2.125 -0.875 4.609375q0 3.0625 1.046875 5.125q1.0625 2.0625 3.078125 3.0625q2.015625 1.0 4.28125 1.0q1.96875 0 3.84375 -0.75q1.875 -0.765625 2.84375 -1.625l0 -4.265625l-6.734375 0zm14.140625 8.984375l0 -22.90625l3.109375 0l12.03125 17.984375l0 -17.984375l2.90625 0l0 22.90625l-3.109375 0l-12.03125 -18.0l0 18.0l-2.90625 0zm38.171875 -22.90625l3.03125 0l0 13.234375q0 3.453125 -0.78125 5.484375q-0.78125 2.03125 -2.828125 3.3125q-2.03125 1.265625 -5.34375 1.265625q-3.21875 0 -5.265625 -1.109375q-2.046875 -1.109375 -2.921875 -3.203125q-0.875 -2.109375 -0.875 -5.75l0 -13.234375l3.03125 0l0 13.21875q0 2.984375 0.546875 4.40625q0.5625 1.40625 1.90625 2.171875q1.359375 0.765625 3.3125 0.765625q3.34375 0 4.765625 -1.515625q1.421875 -1.515625 1.421875 -5.828125l0 -13.21875zm16.96875 22.90625l0 -22.90625l8.640625 0q2.28125 0 3.484375 0.21875q1.6875 0.28125 2.828125 1.078125q1.140625 0.78125 1.828125 2.203125q0.703125 1.421875 0.703125 3.125q0 2.921875 -1.859375 4.953125q-1.859375 2.015625 -6.71875 2.015625l-5.875 0l0 9.3125l-3.03125 0zm3.03125 -12.015625l5.921875 0q2.9375 0 4.171875 -1.09375q1.234375 -1.09375 1.234375 -3.078125q0 -1.4375 -0.734375 -2.453125q-0.71875 -1.03125 -1.90625 -1.359375q-0.765625 -0.203125 -2.828125 -0.203125l-5.859375 0l0 8.1875zm28.78125 9.96875q-1.5625 1.328125 -3.015625 1.875q-1.4375 0.546875 -3.09375 0.546875q-2.734375 0 -4.203125 -1.328125q-1.46875 -1.34375 -1.46875 -3.421875q0 -1.21875 0.546875 -2.21875q0.5625 -1.015625 1.453125 -1.625q0.90625 -0.609375 2.03125 -0.921875q0.828125 -0.21875 2.5 -0.421875q3.40625 -0.40625 5.015625 -0.96875q0.015625 -0.578125 0.015625 -0.734375q0 -1.71875 -0.796875 -2.421875q-1.078125 -0.953125 -3.203125 -0.953125q-1.984375 0 -2.9375 0.703125q-0.9375 0.6875 -1.390625 2.453125l-2.75 -0.375q0.375 -1.765625 1.234375 -2.84375q0.859375 -1.09375 2.484375 -1.671875q1.625 -0.59375 3.765625 -0.59375q2.125 0 3.453125 0.5q1.328125 0.5 1.953125 1.265625q0.625 0.75 0.875 1.90625q0.140625 0.71875 0.140625 2.59375l0 3.75q0 3.921875 0.171875 4.96875q0.1875 1.03125 0.71875 1.984375l-2.9375 0q-0.4375 -0.875 -0.5625 -2.046875zm-0.234375 -6.28125q-1.53125 0.625 -4.59375 1.0625q-1.734375 0.25 -2.453125 0.5625q-0.71875 0.3125 -1.109375 0.921875q-0.390625 0.59375 -0.390625 1.328125q0 1.125 0.84375 1.875q0.859375 0.75 2.5 0.75q1.625 0 2.890625 -0.703125q1.265625 -0.71875 1.859375 -1.953125q0.453125 -0.953125 0.453125 -2.8125l0 -1.03125zm7.171875 8.328125l0 -16.59375l2.53125 0l0 2.515625q0.96875 -1.765625 1.78125 -2.328125q0.828125 -0.5625 1.8125 -0.5625q1.421875 0 2.890625 0.90625l-0.96875 2.609375q-1.03125 -0.609375 -2.0625 -0.609375q-0.921875 0 -1.65625 0.5625q-0.734375 0.546875 -1.046875 1.53125q-0.46875 1.5 -0.46875 3.28125l0 8.6875l-2.8125 0zm21.515625 -2.046875q-1.5625 1.328125 -3.015625 1.875q-1.4375 0.546875 -3.09375 0.546875q-2.734375 0 -4.203125 -1.328125q-1.46875 -1.34375 -1.46875 -3.421875q0 -1.21875 0.546875 -2.21875q0.5625 -1.015625 1.453125 -1.625q0.90625 -0.609375 2.03125 -0.921875q0.828125 -0.21875 2.5 -0.421875q3.40625 -0.40625 5.015625 -0.96875q0.015625 -0.578125 0.015625 -0.734375q0 -1.71875 -0.796875 -2.421875q-1.078125 -0.953125 -3.203125 -0.953125q-1.984375 0 -2.9375 0.703125q-0.9375 0.6875 -1.390625 2.453125l-2.75 -0.375q0.375 -1.765625 1.234375 -2.84375q0.859375 -1.09375 2.484375 -1.671875q1.625 -0.59375 3.765625 -0.59375q2.125 0 3.453125 0.5q1.328125 0.5 1.953125 1.265625q0.625 0.75 0.875 1.90625q0.140625 0.71875 0.140625 2.59375l0 3.75q0 3.921875 0.171875 4.96875q0.1875 1.03125 0.71875 1.984375l-2.9375 0q-0.4375 -0.875 -0.5625 -2.046875zm-0.234375 -6.28125q-1.53125 0.625 -4.59375 1.0625q-1.734375 0.25 -2.453125 0.5625q-0.71875 0.3125 -1.109375 0.921875q-0.390625 0.59375 -0.390625 1.328125q0 1.125 0.84375 1.875q0.859375 0.75 2.5 0.75q1.625 0 2.890625 -0.703125q1.265625 -0.71875 1.859375 -1.953125q0.453125 -0.953125 0.453125 -2.8125l0 -1.03125zm7.140625 8.328125l0 -22.90625l2.8125 0l0 22.90625l-2.8125 0zm7.109375 0l0 -22.90625l2.8125 0l0 22.90625l-2.8125 0zm18.53125 -5.34375l2.90625 0.359375q-0.6875 2.546875 -2.546875 3.953125q-1.859375 1.40625 -4.75 1.40625q-3.640625 0 -5.78125 -2.234375q-2.125 -2.25 -2.125 -6.296875q0 -4.1875 2.15625 -6.5q2.15625 -2.3125 5.59375 -2.3125q3.328125 0 5.4375 2.265625q2.109375 2.265625 2.109375 6.375q0 0.25 -0.015625 0.75l-12.375 0q0.15625 2.734375 1.546875 4.1875q1.390625 1.453125 3.46875 1.453125q1.546875 0 2.640625 -0.8125q1.09375 -0.8125 1.734375 -2.59375zm-9.234375 -4.546875l9.265625 0q-0.1875 -2.09375 -1.0625 -3.140625q-1.34375 -1.625 -3.484375 -1.625q-1.9375 0 -3.265625 1.296875q-1.3125 1.296875 -1.453125 3.46875zm15.609375 9.890625l0 -22.90625l2.8125 0l0 22.90625l-2.8125 0z" fill-rule="nonzero"/></g></svg>